<?xml version="1.0" encoding="utf-8" standalone="no"?>
<!DOCTYPE svg PUBLIC "-//W3C//DTD SVG 1.1//EN"
  "http://www.w3.org/Graphics/SVG/1.1/DTD/svg11.dtd">
<!-- Created with matplotlib (https://matplotlib.org/) -->
<svg height="180pt" version="1.1" viewBox="0 0 288 180" width="288pt" xmlns="http://www.w3.org/2000/svg" xmlns:xlink="http://www.w3.org/1999/xlink">
 <metadata>
  <rdf:RDF xmlns:cc="http://creativecommons.org/ns#" xmlns:dc="http://purl.org/dc/elements/1.1/" xmlns:rdf="http://www.w3.org/1999/02/22-rdf-syntax-ns#">
   <cc:Work>
    <dc:type rdf:resource="http://purl.org/dc/dcmitype/StillImage"/>
    <dc:date>2020-10-08T14:58:23.161748</dc:date>
    <dc:format>image/svg+xml</dc:format>
    <dc:creator>
     <cc:Agent>
      <dc:title>Matplotlib v3.3.2, https://matplotlib.org/</dc:title>
     </cc:Agent>
    </dc:creator>
   </cc:Work>
  </rdf:RDF>
 </metadata>
 <defs>
  <style type="text/css">*{stroke-linecap:butt;stroke-linejoin:round;}</style>
 </defs>
 <g id="figure_1">
  <g id="patch_1">
   <path d="M 0 180 
L 288 180 
L 288 0 
L 0 0 
z
" style="fill:#ffffff;"/>
  </g>
  <g id="axes_1">
   <g id="patch_2">
    <path d="M 34.56 147.6 
L 273.6 147.6 
L 273.6 9 
L 34.56 9 
z
" style="fill:#ffffff;"/>
   </g>
   <g id="matplotlib.axis_1">
    <g id="xtick_1">
     <g id="line2d_1">
      <defs>
       <path d="M 0 0 
L 0 3.5 
" id="m1596a61f3c" style="stroke:#000000;stroke-width:0.8;"/>
      </defs>
      <g>
       <use style="stroke:#000000;stroke-width:0.8;" x="49.5" xlink:href="#m1596a61f3c" y="147.6"/>
      </g>
     </g>
     <g id="text_1">
      <!-- 1 -->
      <g transform="translate(47.009332 161.518498)scale(0.1 -0.1)">
       <defs>
        <path d="M 28.40625 67 
L 26.5 67 
C 21.09375 61.703125 14.796875 60.96875 8.40625 60.796875 
L 8.40625 55 
C 11.296875 55.09375 16 55.296875 20.703125 57.390625 
L 20.703125 5.796875 
L 8.90625 5.796875 
L 8.90625 0 
L 40.203125 0 
L 40.203125 5.796875 
L 28.40625 5.796875 
z
" id="CMSS17-49"/>
       </defs>
       <use transform="scale(0.996264)" xlink:href="#CMSS17-49"/>
      </g>
     </g>
    </g>
    <g id="xtick_2">
     <g id="line2d_2">
      <g>
       <use style="stroke:#000000;stroke-width:0.8;" x="79.38" xlink:href="#m1596a61f3c" y="147.6"/>
      </g>
     </g>
     <g id="text_2">
      <!-- 2 -->
      <g transform="translate(76.889332 161.518498)scale(0.1 -0.1)">
       <defs>
        <path d="M 25.796875 21.140625 
C 28.59375 24.03125 32.796875 27.515625 35.703125 31 
C 38.5 34.390625 42.203125 39.171875 42.203125 46.140625 
C 42.203125 57.109375 34.796875 67 22.203125 67 
C 12.296875 67 6.59375 60.796875 3.90625 51.125 
L 7.796875 45.75 
C 10 54.8125 13.09375 60.59375 20.90625 60.59375 
C 29.5 60.59375 34.296875 53.609375 34.296875 45.9375 
C 34.296875 36.78125 27.296875 29.703125 22 24.421875 
C 16.09375 18.546875 10.296875 12.578125 4.703125 6.390625 
L 4.703125 0 
L 42.203125 0 
L 42.203125 6.796875 
L 25.203125 6.796875 
C 24 6.796875 22.796875 6.6875 21.59375 6.6875 
L 11.59375 6.6875 
L 11.59375 6.796875 
z
" id="CMSS17-50"/>
       </defs>
       <use transform="scale(0.996264)" xlink:href="#CMSS17-50"/>
      </g>
     </g>
    </g>
    <g id="xtick_3">
     <g id="line2d_3">
      <g>
       <use style="stroke:#000000;stroke-width:0.8;" x="109.26" xlink:href="#m1596a61f3c" y="147.6"/>
      </g>
     </g>
     <g id="text_3">
      <!-- 3 -->
      <g transform="translate(106.769332 161.518498)scale(0.1 -0.1)">
       <defs>
        <path d="M 15.703125 32.1875 
L 22.5 32.1875 
C 31.90625 32.1875 34.59375 23.9375 34.59375 18.1875 
C 34.59375 10.34375 30.203125 4.1875 23 4.1875 
C 17.40625 4.1875 9.5 7.015625 5 14.46875 
C 4.296875 10.9375 4.296875 10.734375 3.90625 8.328125 
C 8.59375 1.390625 16.203125 -2 23.203125 -2 
C 34.59375 -2 43 7.515625 43 18.09375 
C 43 26.046875 37.5 32.6875 30 35.1875 
C 36 38.484375 40.40625 44.6875 40.40625 51.890625 
C 40.40625 60.296875 32.703125 67 23.296875 67 
C 14.703125 67 8 61.6875 5.203125 55.984375 
C 5.90625 54.984375 7.703125 52.09375 8.59375 50.59375 
C 10.796875 56.484375 16.5 60.890625 23.203125 60.890625 
C 28.796875 60.890625 32.5 57.1875 32.5 51.890625 
C 32.5 46.390625 29 40.390625 23.09375 39 
C 22.703125 39 16.5 38.390625 15.703125 38.296875 
z
" id="CMSS17-51"/>
       </defs>
       <use transform="scale(0.996264)" xlink:href="#CMSS17-51"/>
      </g>
     </g>
    </g>
    <g id="xtick_4">
     <g id="line2d_4">
      <g>
       <use style="stroke:#000000;stroke-width:0.8;" x="139.14" xlink:href="#m1596a61f3c" y="147.6"/>
      </g>
     </g>
     <g id="text_4">
      <!-- 4 -->
      <g transform="translate(136.649332 161.518498)scale(0.1 -0.1)">
       <defs>
        <path d="M 35.203125 17 
L 44.296875 17 
L 44.296875 23.09375 
L 35.203125 23.09375 
L 35.203125 66 
L 26.40625 66 
L 2.59375 23.09375 
L 2.59375 17 
L 27.296875 17 
L 27.296875 0 
L 35.203125 0 
z
M 10.296875 23.09375 
C 16.09375 33.421875 27.59375 54.28125 27.59375 61.359375 
L 27.59375 23.09375 
z
" id="CMSS17-52"/>
       </defs>
       <use transform="scale(0.996264)" xlink:href="#CMSS17-52"/>
      </g>
     </g>
    </g>
    <g id="xtick_5">
     <g id="line2d_5">
      <g>
       <use style="stroke:#000000;stroke-width:0.8;" x="169.02" xlink:href="#m1596a61f3c" y="147.6"/>
      </g>
     </g>
     <g id="text_5">
      <!-- 5 -->
      <g transform="translate(166.529332 161.518498)scale(0.1 -0.1)">
       <defs>
        <path d="M 14.59375 59.59375 
L 39.09375 59.59375 
L 39.09375 66 
L 7.296875 66 
L 7.296875 28.59375 
L 14 28.59375 
C 15.796875 32.859375 19.5 36 24.296875 36 
C 28.796875 36 33.796875 31.9375 33.796875 20.296875 
C 33.796875 7.84375 26.703125 4.1875 21.5 4.1875 
C 15.09375 4.1875 9.203125 8.140625 6.59375 13.609375 
L 3.40625 7.9375 
C 8 0.796875 15.5 -2 21.5 -2 
C 33.09375 -2 42.203125 7.9375 42.203125 20.09375 
C 42.203125 32.546875 34.09375 42.09375 24.40625 42.09375 
C 20.90625 42.09375 17.5 40.890625 14.59375 38.5 
z
" id="CMSS17-53"/>
       </defs>
       <use transform="scale(0.996264)" xlink:href="#CMSS17-53"/>
      </g>
     </g>
    </g>
    <g id="xtick_6">
     <g id="line2d_6">
      <g>
       <use style="stroke:#000000;stroke-width:0.8;" x="198.9" xlink:href="#m1596a61f3c" y="147.6"/>
      </g>
     </g>
     <g id="text_6">
      <!-- 6 -->
      <g transform="translate(196.409332 161.518498)scale(0.1 -0.1)">
       <defs>
        <path d="M 39 64.984375 
C 34.796875 66.6875 31.796875 67 29 67 
C 16 67 3.90625 53.25 3.90625 31.609375 
C 3.90625 4.1875 15.40625 -2 23.59375 -2 
C 28.09375 -2 32.59375 -0.609375 36.90625 4.390625 
C 41.296875 9.671875 43 14.0625 43 21.75 
C 43 34.109375 36.90625 45.09375 27.796875 45.09375 
C 21.203125 45.09375 15.5 41.59375 12 37.203125 
C 13 51.40625 19.59375 60.890625 29.09375 60.890625 
C 31.703125 60.890625 35.09375 60.484375 39 58.75 
z
M 12.09375 21.4375 
C 12.09375 22.234375 12.09375 22.734375 12.203125 24.234375 
C 12.203125 32.015625 16.703125 39 24 39 
C 28.703125 39 31.09375 36.5 32.90625 33.40625 
C 35 29.515625 35.09375 25.828125 35.09375 21.75 
C 35.09375 17.859375 35.09375 13.96875 32.796875 9.96875 
C 30.90625 6.890625 28.40625 4.1875 23.59375 4.1875 
C 14.09375 4.1875 12.5 17.453125 12.09375 21.4375 
z
" id="CMSS17-54"/>
       </defs>
       <use transform="scale(0.996264)" xlink:href="#CMSS17-54"/>
      </g>
     </g>
    </g>
    <g id="xtick_7">
     <g id="line2d_7">
      <g>
       <use style="stroke:#000000;stroke-width:0.8;" x="228.78" xlink:href="#m1596a61f3c" y="147.6"/>
      </g>
     </g>
     <g id="text_7">
      <!-- 7 -->
      <g transform="translate(226.289332 161.518498)scale(0.1 -0.1)">
       <defs>
        <path d="M 21.703125 59.1875 
C 22.90625 59.1875 24.09375 59.296875 25.296875 59.296875 
L 36.796875 59.296875 
C 22.5 42.421875 14.296875 21.09375 14.296875 -1 
L 22.296875 -1 
C 22.296875 20.390625 29.296875 42.109375 43 59.484375 
L 43 66 
L 3.90625 66 
L 3.90625 59.1875 
z
" id="CMSS17-55"/>
       </defs>
       <use transform="scale(0.996264)" xlink:href="#CMSS17-55"/>
      </g>
     </g>
    </g>
    <g id="xtick_8">
     <g id="line2d_8">
      <g>
       <use style="stroke:#000000;stroke-width:0.8;" x="258.66" xlink:href="#m1596a61f3c" y="147.6"/>
      </g>
     </g>
     <g id="text_8">
      <!-- 8 -->
      <g transform="translate(256.169332 161.518498)scale(0.1 -0.1)">
       <defs>
        <path d="M 30.203125 35.09375 
C 37.796875 37.59375 41.703125 43.640625 41.703125 49.59375 
C 41.703125 58.96875 33.703125 67 23.5 67 
C 12.90625 67 5.203125 58.671875 5.203125 49.59375 
C 5.203125 43.734375 9 37.6875 16.703125 35.09375 
C 6.90625 31.296875 3.90625 23.6875 3.90625 18 
C 3.90625 7 12.796875 -2 23.40625 -2 
C 34.40625 -2 43 7.1875 43 18 
C 43 24.59375 39.09375 31.59375 30.203125 35.09375 
z
M 23.5 38.09375 
C 16.796875 38.09375 12.296875 42.625 12.296875 49.484375 
C 12.296875 56.453125 16.796875 60.890625 23.5 60.890625 
C 29.703125 60.890625 34.59375 56.859375 34.59375 49.484375 
C 34.59375 42.234375 29.796875 38.09375 23.5 38.09375 
z
M 23.5 4.1875 
C 17.796875 4.1875 11.703125 8.09375 11.703125 18.09375 
C 11.703125 28.390625 18.5 32 23.40625 32 
C 28.796875 32 35.203125 28.1875 35.203125 18.09375 
C 35.203125 7.6875 28.59375 4.1875 23.5 4.1875 
z
" id="CMSS17-56"/>
       </defs>
       <use transform="scale(0.996264)" xlink:href="#CMSS17-56"/>
      </g>
     </g>
    </g>
    <g id="text_9">
     <!-- Scenario -->
     <g transform="translate(136.673024 174.374175)scale(0.1 -0.1)">
      <defs>
       <path d="M 43.703125 66.09375 
C 39.296875 68.6875 34.5 71 26.40625 71 
C 13.5 71 5.203125 61.46875 5.203125 51.703125 
C 5.203125 47.875 6.296875 43.546875 10.203125 39.125 
C 14.09375 34.6875 18.5 33.484375 24.09375 32.078125 
C 26.40625 31.46875 30.296875 30.359375 31 30.0625 
C 36.59375 27.84375 39.296875 22.71875 39.296875 17.875 
C 39.296875 11.53125 34.40625 4.796875 25.703125 4.796875 
C 22.703125 4.796875 13.90625 5.296875 5.59375 12.953125 
L 4.203125 5 
C 12.40625 -1 21.296875 -2 25.796875 -2 
C 38.09375 -2 46.90625 7.71875 46.90625 18.78125 
C 46.90625 22.8125 45.703125 27.953125 41.5 32.6875 
C 37.40625 37.203125 33.796875 38.21875 25.59375 40.4375 
C 20.90625 41.640625 17.90625 42.453125 15.40625 45.5625 
C 13.703125 47.78125 12.796875 49.890625 12.796875 52.609375 
C 12.796875 58.25 17.59375 64.390625 26.40625 64.390625 
C 30.796875 64.390625 36.5 63.484375 42.296875 58.046875 
z
" id="CMSS17-83"/>
       <path d="M 38.5 39.6875 
C 38.5 40.390625 33.90625 42.390625 32.703125 42.796875 
C 29.40625 44 25.203125 44 24.09375 44 
C 11.09375 44 3.296875 32.6875 3.296875 21.296875 
C 3.296875 9.296875 12 -1 23.703125 -1 
C 30.40625 -1 35.203125 1.1875 39.09375 3.796875 
L 38.5 10.390625 
C 34.203125 7.09375 29.203125 5.296875 23.796875 5.296875 
C 16 5.296875 10.90625 12.09375 10.90625 21.390625 
C 10.90625 28.59375 14.203125 37.6875 24.203125 37.6875 
C 29.703125 37.6875 32.796875 36.59375 37.40625 33.484375 
z
" id="CMSS17-99"/>
       <path d="M 39.09375 21.484375 
C 39.09375 24.796875 38.90625 31.265625 35.703125 36.671875 
C 32.203125 42.390625 26.5 44 22.203125 44 
C 11.796875 44 3 34.125 3 21.296875 
C 3 9.046875 12.09375 -1 23.59375 -1 
C 28.09375 -1 33.59375 0.296875 38.59375 3.890625 
C 38.59375 4.296875 38.40625 6.46875 38.296875 6.578125 
C 38.296875 6.765625 38 9.828125 38 10.234375 
C 33.203125 6.375 27.703125 5.09375 23.703125 5.09375 
C 17.296875 5.09375 10.40625 10.421875 10.09375 21.484375 
z
M 10.90625 27 
C 12.203125 32.59375 16.59375 37.890625 22.203125 37.890625 
C 23.703125 37.890625 30.703125 37.6875 32.5 27 
z
" id="CMSS17-101"/>
       <path d="M 40.90625 29.34375 
C 40.90625 35.671875 39.40625 44 28.09375 44 
C 21.703125 44 17.5 40.6875 14.703125 37.28125 
L 14.703125 43.484375 
L 7.40625 43.484375 
L 7.40625 0 
L 15 0 
L 15 24.3125 
C 15 30.65625 17.40625 37.890625 24.203125 37.890625 
C 33 37.890625 33.296875 31.953125 33.296875 28.53125 
L 33.296875 0 
L 40.90625 0 
z
" id="CMSS17-110"/>
       <path d="M 37.59375 27.953125 
C 37.59375 37.484375 30.90625 44 21.90625 44 
C 17.5 44 12.703125 43.1875 7.203125 39.984375 
L 7.796875 33.328125 
C 10.296875 35.15625 14.59375 38.09375 21.796875 38.09375 
C 26.90625 38.09375 30 34.140625 30 27.84375 
L 30 24 
C 14 23.5 4 18.890625 4 11.109375 
C 4 7.0625 6.5 -1 14.796875 -1 
C 16.296875 -1 24.40625 -0.8125 30.203125 3.5 
L 30.203125 -0.203125 
L 37.59375 -0.203125 
z
M 30 12.875 
C 30 11.109375 30 8.734375 27 6.96875 
C 24.40625 5.296875 21.09375 5.09375 19.703125 5.09375 
C 14.703125 5.09375 11.296875 7.859375 11.296875 11.296875 
C 11.296875 18.203125 26.90625 18.890625 30 19 
z
" id="CMSS17-97"/>
       <path d="M 14.90625 21.390625 
C 14.90625 30.84375 21.796875 37.171875 30.59375 37.375 
L 30.59375 44 
C 24.203125 43.890625 18.203125 40.6875 14.59375 35.46875 
L 14.59375 43.484375 
L 7.5 43.484375 
L 7.5 0 
L 14.90625 0 
z
" id="CMSS17-114"/>
       <path d="M 15.296875 66 
L 6.90625 66 
L 6.90625 57.59375 
L 15.296875 57.59375 
z
M 14.796875 43 
L 7.40625 43 
L 7.40625 0 
L 14.796875 0 
z
" id="CMSS17-105"/>
       <path d="M 44.203125 21.1875 
C 44.203125 33.984375 34.703125 44 23.5 44 
C 12 44 2.703125 33.6875 2.703125 21.1875 
C 2.703125 8.5 12.296875 -1 23.40625 -1 
C 34.796875 -1 44.203125 8.796875 44.203125 21.1875 
z
M 23.5 5.296875 
C 16.40625 5.296875 10.296875 11.09375 10.296875 21.984375 
C 10.296875 33.59375 17.40625 37.890625 23.40625 37.890625 
C 29.90625 37.890625 36.59375 33.1875 36.59375 21.984375 
C 36.59375 10.6875 30.09375 5.296875 23.5 5.296875 
z
" id="CMSS17-111"/>
      </defs>
      <use transform="scale(0.996264)" xlink:href="#CMSS17-83"/>
      <use transform="translate(52.048516 0)scale(0.996264)" xlink:href="#CMSS17-99"/>
      <use transform="translate(93.687338 0)scale(0.996264)" xlink:href="#CMSS17-101"/>
      <use transform="translate(135.32616 0)scale(0.996264)" xlink:href="#CMSS17-110"/>
      <use transform="translate(183.531103 0)scale(0.996264)" xlink:href="#CMSS17-97"/>
      <use transform="translate(225.85057 0)scale(0.996264)" xlink:href="#CMSS17-114"/>
      <use transform="translate(257.760343 0)scale(0.996264)" xlink:href="#CMSS17-105"/>
      <use transform="translate(279.941066 0)scale(0.996264)" xlink:href="#CMSS17-111"/>
     </g>
    </g>
   </g>
   <g id="matplotlib.axis_2">
    <g id="ytick_1">
     <g id="line2d_9">
      <defs>
       <path d="M 0 0 
L -3.5 0 
" id="mb730760241" style="stroke:#000000;stroke-width:0.8;"/>
      </defs>
      <g>
       <use style="stroke:#000000;stroke-width:0.8;" x="34.56" xlink:href="#mb730760241" y="141"/>
      </g>
     </g>
     <g id="text_10">
      <!-- $\mathdefault{−2}$ -->
      <g transform="translate(14.829921 144.459249)scale(0.1 -0.1)">
       <defs>
        <path d="M 65.90625 23 
C 67.59375 23 69.40625 23 69.40625 25 
C 69.40625 27 67.59375 27 65.90625 27 
L 11.796875 27 
C 10.09375 27 8.296875 27 8.296875 25 
C 8.296875 23 10.09375 23 11.796875 23 
z
" id="CMSY10-0"/>
        <path d="M 41.703125 15.46875 
L 39.90625 15.46875 
C 38.90625 8.390625 38.09375 7.1875 37.703125 6.59375 
C 37.203125 5.796875 30 5.796875 28.59375 5.796875 
L 9.40625 5.796875 
C 13 9.6875 20 16.765625 28.5 24.9375 
C 34.59375 30.71875 41.703125 37.5 41.703125 47.390625 
C 41.703125 59.1875 32.296875 66 21.796875 66 
C 10.796875 66 4.09375 56.296875 4.09375 47.296875 
C 4.09375 43.390625 7 42.890625 8.203125 42.890625 
C 9.203125 42.890625 12.203125 43.484375 12.203125 46.984375 
C 12.203125 50.09375 9.59375 51 8.203125 51 
C 7.59375 51 7 50.890625 6.59375 50.6875 
C 8.5 59.1875 14.296875 63.390625 20.40625 63.390625 
C 29.09375 63.390625 34.796875 56.5 34.796875 47.390625 
C 34.796875 38.703125 29.703125 31.21875 24 24.734375 
L 4.09375 2.296875 
L 4.09375 0 
L 39.296875 0 
z
" id="CMR17-50"/>
       </defs>
       <use transform="scale(0.996264)" xlink:href="#CMSY10-0"/>
       <use transform="translate(77.487468 0)scale(0.996264)" xlink:href="#CMR17-50"/>
      </g>
     </g>
    </g>
    <g id="ytick_2">
     <g id="line2d_10">
      <g>
       <use style="stroke:#000000;stroke-width:0.8;" x="34.56" xlink:href="#mb730760241" y="114.6"/>
      </g>
     </g>
     <g id="text_11">
      <!-- $\mathdefault{0}$ -->
      <g transform="translate(22.578665 118.059249)scale(0.1 -0.1)">
       <defs>
        <path d="M 42 31.84375 
C 42 37.96875 41.90625 48.421875 37.703125 56.453125 
C 34 63.484375 28.09375 66 22.90625 66 
C 18.09375 66 12 63.78125 8.203125 56.5625 
C 4.203125 49.015625 3.796875 39.671875 3.796875 31.84375 
C 3.796875 26.109375 3.90625 17.375 7 9.734375 
C 11.296875 -0.609375 19 -2 22.90625 -2 
C 27.5 -2 34.5 -0.109375 38.59375 9.4375 
C 41.59375 16.375 42 24.5 42 31.84375 
z
M 22.90625 -0.40625 
C 16.5 -0.40625 12.703125 5.125 11.296875 12.75 
C 10.203125 18.6875 10.203125 27.328125 10.203125 32.953125 
C 10.203125 40.6875 10.203125 47.109375 11.5 53.234375 
C 13.40625 61.78125 19 64.390625 22.90625 64.390625 
C 27 64.390625 32.296875 61.671875 34.203125 53.4375 
C 35.5 47.71875 35.59375 40.984375 35.59375 32.953125 
C 35.59375 26.421875 35.59375 18.375 34.40625 12.453125 
C 32.296875 1.5 26.40625 -0.40625 22.90625 -0.40625 
z
" id="CMR17-48"/>
       </defs>
       <use transform="scale(0.996264)" xlink:href="#CMR17-48"/>
      </g>
     </g>
    </g>
    <g id="ytick_3">
     <g id="line2d_11">
      <g>
       <use style="stroke:#000000;stroke-width:0.8;" x="34.56" xlink:href="#mb730760241" y="88.2"/>
      </g>
     </g>
     <g id="text_12">
      <!-- $\mathdefault{2}$ -->
      <g transform="translate(22.578665 91.659249)scale(0.1 -0.1)">
       <use transform="scale(0.996264)" xlink:href="#CMR17-50"/>
      </g>
     </g>
    </g>
    <g id="ytick_4">
     <g id="line2d_12">
      <g>
       <use style="stroke:#000000;stroke-width:0.8;" x="34.56" xlink:href="#mb730760241" y="61.8"/>
      </g>
     </g>
     <g id="text_13">
      <!-- $\mathdefault{4}$ -->
      <g transform="translate(22.578665 65.259249)scale(0.1 -0.1)">
       <defs>
        <path d="M 33.59375 64.796875 
C 33.59375 66.890625 33.5 67 31.703125 67 
L 2 19.59375 
L 2 17 
L 27.796875 17 
L 27.796875 7.1875 
C 27.796875 3.59375 27.59375 2.59375 20.59375 2.59375 
L 18.703125 2.59375 
L 18.703125 0 
C 21.90625 0.1875 27.296875 0.1875 30.703125 0.1875 
C 34.09375 0.1875 39.5 0.1875 42.703125 0 
L 42.703125 2.59375 
L 40.796875 2.59375 
C 33.796875 2.59375 33.59375 3.59375 33.59375 7.1875 
L 33.59375 17 
L 43.796875 17 
L 43.796875 19.59375 
L 33.59375 19.59375 
z
M 28.09375 58.171875 
L 28.09375 19.59375 
L 4 19.59375 
z
" id="CMR17-52"/>
       </defs>
       <use transform="scale(0.996264)" xlink:href="#CMR17-52"/>
      </g>
     </g>
    </g>
    <g id="ytick_5">
     <g id="line2d_13">
      <g>
       <use style="stroke:#000000;stroke-width:0.8;" x="34.56" xlink:href="#mb730760241" y="35.4"/>
      </g>
     </g>
     <g id="text_14">
      <!-- $\mathdefault{6}$ -->
      <g transform="translate(22.578665 38.859249)scale(0.1 -0.1)">
       <defs>
        <path d="M 10.59375 34.34375 
C 10.59375 58 21.796875 63.6875 28.296875 63.6875 
C 30.40625 63.6875 35.5 63.265625 37.5 59.09375 
C 35.90625 59.09375 32.90625 59.09375 32.90625 55.59375 
C 32.90625 52.890625 35.09375 52 36.5 52 
C 37.40625 52 40.09375 52.390625 40.09375 55.796875 
C 40.09375 62.296875 35.09375 66 28.203125 66 
C 16.296875 66 3.796875 53.296875 3.796875 31.421875 
C 3.796875 4.015625 15.09375 -2 23.09375 -2 
C 32.796875 -2 42 6.734375 42 20.234375 
C 42 32.828125 33.90625 42 23.703125 42 
C 17.59375 42 13.09375 37.96875 10.59375 30.921875 
z
M 23.09375 0.390625 
C 10.796875 0.390625 10.796875 18.9375 10.796875 22.65625 
C 10.796875 29.90625 14.203125 40.390625 23.5 40.390625 
C 25.203125 40.390625 30.09375 40.390625 33.40625 33.4375 
C 35.203125 29.515625 35.203125 25.375 35.203125 20.34375 
C 35.203125 14.90625 35.203125 10.875 33.09375 6.84375 
C 30.90625 2.703125 27.703125 0.390625 23.09375 0.390625 
z
" id="CMR17-54"/>
       </defs>
       <use transform="scale(0.996264)" xlink:href="#CMR17-54"/>
      </g>
     </g>
    </g>
    <g id="ytick_6">
     <g id="line2d_14">
      <g>
       <use style="stroke:#000000;stroke-width:0.8;" x="34.56" xlink:href="#mb730760241" y="9"/>
      </g>
     </g>
     <g id="text_15">
      <!-- $\mathdefault{8}$ -->
      <g transform="translate(22.578665 12.459249)scale(0.1 -0.1)">
       <defs>
        <path d="M 27.203125 35.765625 
C 33.5 38.96875 39.90625 43.796875 39.90625 51.53125 
C 39.90625 60.6875 31.09375 66 23 66 
C 13.90625 66 5.90625 59.375 5.90625 50.234375 
C 5.90625 47.71875 6.5 43.390625 10.40625 39.578125 
C 11.40625 38.578125 15.59375 35.5625 18.296875 33.65625 
C 13.796875 31.34375 3.296875 25.8125 3.296875 14.765625 
C 3.296875 4.40625 13.09375 -2 22.796875 -2 
C 33.5 -2 42.5 5.71875 42.5 15.96875 
C 42.5 25.109375 36.40625 29.328125 32.40625 32.046875 
z
M 14.09375 44.609375 
C 13.296875 45.109375 9.296875 48.21875 9.296875 52.9375 
C 9.296875 59.078125 15.59375 63.6875 22.796875 63.6875 
C 30.703125 63.6875 36.5 58.0625 36.5 51.53125 
C 36.5 42.1875 26.09375 36.859375 25.59375 36.859375 
C 25.5 36.859375 25.40625 36.859375 24.59375 37.46875 
z
M 32.5 24 
C 34 22.90625 38.796875 19.578125 38.796875 13.453125 
C 38.796875 6.015625 31.40625 0.390625 23 0.390625 
C 13.90625 0.390625 7 6.921875 7 14.859375 
C 7 22.796875 13.09375 29.4375 20 32.546875 
z
" id="CMR17-56"/>
       </defs>
       <use transform="scale(0.996264)" xlink:href="#CMR17-56"/>
      </g>
     </g>
    </g>
    <g id="text_16">
     <!-- Active Power [MW] -->
     <g transform="translate(16.339261 119.174568)rotate(-90)scale(0.1 -0.1)">
      <defs>
       <path d="M 35.5 69 
L 26.90625 69 
L 2.59375 0 
L 10.203125 0 
L 17.203125 20 
L 44 20 
L 51.09375 0 
L 59.796875 0 
z
M 42.09375 25.59375 
L 19.09375 25.59375 
C 23.90625 39.53125 29.90625 56.84375 30.59375 61.3125 
L 30.703125 61.3125 
C 31.40625 57.234375 33.40625 51.265625 35.09375 46.1875 
z
" id="CMSS17-65"/>
       <path d="M 16.703125 37.1875 
L 29.703125 37.1875 
L 29.703125 43 
L 16.703125 43 
L 16.703125 55 
L 9.59375 55 
L 9.59375 43 
L 1.703125 43 
L 1.703125 37.1875 
L 9.40625 37.1875 
L 9.40625 11.734375 
C 9.40625 6 10.703125 -1 17.296875 -1 
C 22.296875 -1 26.90625 0.390625 31.296875 2.6875 
L 29.703125 8.609375 
C 27.296875 6.5 24.40625 5.296875 21.296875 5.296875 
C 16.90625 5.296875 16.703125 10.921875 16.703125 13.4375 
z
" id="CMSS17-116"/>
       <path d="M 41.796875 43 
L 34 43 
L 27.296875 24.296875 
C 25.203125 18.1875 22.203125 9.796875 21.703125 5.5 
L 21.59375 5.5 
C 21.40625 7.296875 20.59375 9.890625 20.09375 11.6875 
C 19.5 13.890625 18.703125 16.5 18.09375 18.296875 
L 9.296875 43 
L 1.296875 43 
L 17.09375 0 
L 26 0 
z
" id="CMSS17-118"/>
       <path d="M 32.90625 29 
C 44.90625 29 54.703125 38.234375 54.703125 49.046875 
C 54.703125 59.65625 45.296875 69 32.296875 69 
L 8.90625 69 
L 8.90625 0 
L 17.296875 0 
L 17.296875 29 
z
M 30.09375 63.390625 
C 41.703125 63.390625 46.796875 56.21875 46.796875 49.046875 
C 46.796875 42.359375 42.09375 34.796875 30.09375 34.796875 
L 17.09375 34.796875 
L 17.09375 63.390625 
z
" id="CMSS17-80"/>
       <path d="M 62.703125 43 
L 55.09375 43 
L 49.796875 25 
C 48.703125 21.1875 45.59375 10.6875 45.203125 5.796875 
L 45.09375 5.796875 
C 44.90625 8.796875 43.203125 16 40.40625 25.5 
L 35.296875 43 
L 28.40625 43 
L 23.40625 25.890625 
C 20.90625 17.1875 19 9.796875 18.796875 5.796875 
L 18.703125 5.796875 
C 18.296875 11.6875 14.203125 25.5 13.59375 27.6875 
L 9.09375 43 
L 1.296875 43 
L 14.296875 0 
L 21.90625 0 
C 27.09375 17.1875 31.09375 30.5 31.40625 37.1875 
C 31.59375 33.890625 33.296875 26.796875 34.296875 23.296875 
L 40.90625 0 
L 49.703125 0 
z
" id="CMSS17-119"/>
       <path d="M 25.203125 -25 
L 25.203125 -18.90625 
L 16.59375 -18.90625 
L 16.59375 68.890625 
L 25.203125 68.890625 
L 25.203125 75 
L 9.296875 75 
L 9.296875 -25 
z
" id="CMSS17-91"/>
       <path d="M 49.90625 37.078125 
L 45.09375 23.0625 
C 44.296875 20.484375 41.59375 12.421875 41 9.25 
L 40.90625 9.25 
C 40.59375 11.234375 40 13.328125 38.40625 18.390625 
C 37.5 21.375 36.5 24.453125 35.5 27.234375 
L 20.703125 69 
L 9 69 
L 9 0 
L 16.796875 0 
L 16.796875 60.921875 
L 16.90625 60.921875 
C 16.90625 60.828125 17.796875 56.453125 23.90625 39.0625 
L 37.09375 1.59375 
L 44.5 1.59375 
L 56.40625 34.890625 
C 57.203125 37.171875 59.703125 44.421875 60.796875 47.90625 
C 61.796875 50.890625 64.296875 58.25 64.90625 61.125 
L 65 61.125 
L 65 0 
L 72.90625 0 
L 72.90625 69 
L 61.296875 69 
z
" id="CMSS17-77"/>
       <path d="M 87.203125 69 
L 79.59375 69 
L 71.203125 38.0625 
C 69.90625 33.09375 68.703125 28.125 67.5 23.15625 
C 65.703125 15.8125 64.40625 10.640625 64.203125 8.0625 
L 64.09375 8.0625 
C 63.90625 10.734375 62.59375 16.40625 61 22.765625 
C 59.796875 28.03125 58.5 33.296875 57.09375 38.46875 
L 48.796875 69 
L 40.40625 69 
L 32.5 40.0625 
L 28.5 24.25 
C 25.5 11.734375 25.40625 9.9375 25.203125 7.953125 
L 25.09375 7.953125 
C 25.09375 8.546875 24.703125 11.828125 21.90625 23.453125 
C 20.5 29.21875 19.09375 35.09375 17.59375 40.65625 
L 9.90625 69 
L 1.296875 69 
L 20.296875 0 
L 28.59375 0 
L 36.5 28.71875 
L 40.5 44.53125 
C 43.203125 55.65625 43.796875 58.4375 44 60.921875 
L 44.09375 60.921875 
C 44.09375 60.53125 45 54.265625 48.90625 39.75 
L 59.5 0 
L 68.203125 0 
z
" id="CMSS17-87"/>
       <path d="M 17.90625 75 
L 2 75 
L 2 68.890625 
L 10.59375 68.890625 
L 10.59375 -18.90625 
L 2 -18.90625 
L 2 -25 
L 17.90625 -25 
z
" id="CMSS17-93"/>
      </defs>
      <use transform="scale(0.996264)" xlink:href="#CMSS17-65"/>
      <use transform="translate(62.217855 0)scale(0.996264)" xlink:href="#CMSS17-99"/>
      <use transform="translate(103.856677 0)scale(0.996264)" xlink:href="#CMSS17-116"/>
      <use transform="translate(137.688244 0)scale(0.996264)" xlink:href="#CMSS17-105"/>
      <use transform="translate(159.868967 0)scale(0.996264)" xlink:href="#CMSS17-118"/>
      <use transform="translate(202.869108 0)scale(0.996264)" xlink:href="#CMSS17-101"/>
      <use transform="translate(275.737043 0)scale(0.996264)" xlink:href="#CMSS17-80"/>
      <use transform="translate(332.870176 0)scale(0.996264)" xlink:href="#CMSS17-111"/>
      <use transform="translate(377.111345 0)scale(0.996264)" xlink:href="#CMSS17-119"/>
      <use transform="translate(438.328436 0)scale(0.996264)" xlink:href="#CMSS17-101"/>
      <use transform="translate(479.967258 0)scale(0.996264)" xlink:href="#CMSS17-114"/>
      <use transform="translate(543.106144 0)scale(0.996264)" xlink:href="#CMSS17-91"/>
      <use transform="translate(570.291582 0)scale(0.996264)" xlink:href="#CMSS17-77"/>
      <use transform="translate(651.967612 0)scale(0.996264)" xlink:href="#CMSS17-87"/>
      <use transform="translate(740.209779 0)scale(0.996264)" xlink:href="#CMSS17-93"/>
     </g>
    </g>
   </g>
   <g id="line2d_15">
    <path clip-path="url(#pca56064a0a)" d="M 34.56 110.945795 
L 35.805 116.552012 
L 37.05 116.46704 
L 38.295 117.723292 
L 39.54 111.331944 
L 40.785 103.537467 
L 43.275 114.598688 
L 44.52 114.668333 
L 45.765 128.899149 
L 47.01 127.487395 
L 48.255 135.8996 
L 49.5 119.087279 
L 50.745 121.299947 
L 51.99 114.401124 
L 53.235 114.602935 
L 54.48 114.614963 
L 55.725 113.492038 
L 56.97 110.276453 
L 58.215 76.090155 
L 59.46 113.740392 
L 60.705 102.670103 
L 61.95 117.881696 
L 63.195 128.296741 
L 64.44 113.25185 
L 65.685 117.72605 
L 66.93 117.418744 
L 68.175 120.35557 
L 69.42 111.906925 
L 70.665 107.583492 
L 71.91 105.74795 
L 73.155 114.65634 
L 74.4 114.609638 
L 75.645 126.178275 
L 78.135 134.888695 
L 79.38 124.469952 
L 80.625 116.475409 
L 81.87 114.574024 
L 85.605 114.618533 
L 86.85 110.066038 
L 88.095 91.049445 
L 89.34 96.17823 
L 91.83 114.833327 
L 93.075 123.000204 
L 94.32 107.094885 
L 95.565 110.624636 
L 98.055 112.486269 
L 99.3 108.821045 
L 100.545 100.45294 
L 101.79 104.83861 
L 103.035 114.512699 
L 104.28 114.60672 
L 105.525 118.171573 
L 106.77 127.959957 
L 108.015 127.326805 
L 109.26 127.007118 
L 110.505 120.127262 
L 111.75 114.51327 
L 114.24 114.623735 
L 115.485 107.870306 
L 116.73 113.675428 
L 117.975 80.823664 
L 119.22 105.669074 
L 120.465 109.117128 
L 121.71 134.709331 
L 122.955 135.58669 
L 124.2 106.49137 
L 125.445 111.322354 
L 126.69 112.290665 
L 127.935 115.005501 
L 129.18 108.379137 
L 130.425 100.940306 
L 131.67 99.812436 
L 132.915 114.519449 
L 134.16 114.606059 
L 135.405 132.016791 
L 136.65 127.820104 
L 137.895 124.747831 
L 139.14 114.845935 
L 140.385 126.328662 
L 141.63 115.006042 
L 142.875 114.661694 
L 145.365 114.558567 
L 146.61 111.775907 
L 147.855 89.096778 
L 149.1 97.619613 
L 150.345 112.105676 
L 151.59 123.612327 
L 152.835 143.033871 
L 154.08 108.239062 
L 155.325 113.610286 
L 156.57 114.351866 
L 157.815 114.511924 
L 159.06 108.869497 
L 160.305 102.475916 
L 161.55 94.683339 
L 162.795 114.615279 
L 164.04 114.599578 
L 165.285 127.863983 
L 166.53 128.173872 
L 167.775 139.293994 
L 169.02 116.335623 
L 170.265 115.502944 
L 171.51 114.942137 
L 172.755 114.596931 
L 174 114.631165 
L 175.245 115.08516 
L 176.49 113.593678 
L 177.735 105.530242 
L 178.98 95.894573 
L 180.225 109.934118 
L 181.47 125.763802 
L 182.715 129.976124 
L 183.96 110.617508 
L 185.205 114.336412 
L 186.45 114.763318 
L 187.695 118.176131 
L 188.94 108.801603 
L 190.185 106.952615 
L 191.43 110.259213 
L 192.675 114.552957 
L 193.92 114.278734 
L 195.165 113.332388 
L 196.41 139.092896 
L 197.655 128.812312 
L 198.9 126.26471 
L 200.145 116.447197 
L 201.39 113.414778 
L 202.635 114.596931 
L 203.88 114.266233 
L 205.125 113.40903 
L 206.37 103.832917 
L 207.615 85.1342 
L 208.86 102.493867 
L 210.105 113.676379 
L 211.35 118.566338 
L 212.595 124.235142 
L 213.84 111.461964 
L 215.085 116.276418 
L 216.33 118.655209 
L 217.575 116.57964 
L 218.82 112.549605 
L 220.065 103.64535 
L 221.31 103.676999 
L 222.555 114.655306 
L 223.8 114.596242 
L 225.045 116.881214 
L 226.29 130.945525 
L 227.535 126.652597 
L 228.78 134.747644 
L 230.025 115.468087 
L 231.27 114.647946 
L 233.76 114.59458 
L 236.25 108.611487 
L 237.495 87.243186 
L 238.74 103.154761 
L 239.985 111.147722 
L 241.23 118.277269 
L 242.475 128.749692 
L 243.72 112.139655 
L 244.965 117.745949 
L 246.21 118.393708 
L 247.455 118.292489 
L 248.7 113.838822 
L 249.945 106.799761 
L 251.19 104.428618 
L 252.435 114.586279 
L 253.68 114.54882 
L 254.925 121.371192 
L 256.17 120.666266 
L 257.415 148.713862 
L 258.66 121.072539 
L 259.905 115.326681 
L 261.15 114.165796 
L 262.395 114.596931 
L 263.64 113.983486 
L 264.885 114.998761 
L 266.13 81.243692 
L 267.375 103.449561 
L 268.62 115.024677 
L 269.865 108.240107 
L 271.11 114.884001 
L 272.355 123.214642 
L 272.355 123.214642 
" style="fill:none;stroke:#1f77b4;stroke-linecap:square;stroke-width:0.6;"/>
   </g>
   <g id="line2d_16">
    <path clip-path="url(#pca56064a0a)" d="M 34.56 110.733065 
L 35.805 116.427187 
L 37.05 116.663173 
L 38.295 117.617917 
L 39.54 111.008116 
L 40.785 103.306411 
L 42.03 107.385519 
L 43.275 114.599981 
L 44.52 114.600019 
L 45.765 131.029632 
L 47.01 128.930498 
L 48.255 128.661437 
L 49.5 121.883432 
L 50.745 117.934825 
L 51.99 114.600101 
L 55.725 114.599829 
L 56.97 109.839854 
L 58.215 79.590071 
L 59.46 112.342633 
L 60.705 101.187765 
L 61.95 118.231153 
L 63.195 130.027379 
L 64.44 112.978777 
L 65.685 118.204539 
L 66.93 117.682213 
L 68.175 120.488971 
L 69.42 111.932396 
L 70.665 106.423589 
L 71.91 105.228181 
L 73.155 114.599947 
L 74.4 114.600021 
L 75.645 128.835091 
L 76.89 128.911723 
L 78.135 131.667903 
L 79.38 124.424667 
L 80.625 114.600408 
L 85.605 114.600098 
L 86.85 109.186357 
L 88.095 89.297835 
L 89.34 97.226554 
L 90.585 107.249336 
L 91.83 114.60514 
L 93.075 123.856227 
L 94.32 106.98327 
L 95.565 110.85095 
L 96.81 111.599866 
L 98.055 113.054998 
L 99.3 110.03332 
L 100.545 102.289589 
L 101.79 105.05725 
L 103.035 114.599999 
L 104.28 114.599985 
L 105.525 117.173483 
L 106.77 130.162535 
L 108.015 127.58231 
L 109.26 128.828377 
L 110.505 123.074764 
L 111.75 116.218455 
L 112.995 114.600032 
L 114.24 114.599995 
L 115.485 109.820104 
L 116.73 115.55645 
L 117.975 82.8859 
L 119.22 104.298785 
L 120.465 108.307764 
L 121.71 133.689313 
L 122.955 134.532512 
L 124.2 106.142222 
L 125.445 111.100544 
L 126.69 112.102519 
L 127.935 114.979518 
L 129.18 109.112001 
L 130.425 101.69903 
L 131.67 100.437719 
L 132.915 114.599998 
L 134.16 114.599998 
L 135.405 136.196245 
L 136.65 131.377039 
L 137.895 123.690713 
L 139.14 108.277235 
L 140.385 128.635196 
L 141.63 114.863555 
L 142.875 114.6 
L 146.61 114.524665 
L 147.855 83.82059 
L 150.345 110.90163 
L 151.59 124.77865 
L 152.835 147.74962 
L 154.08 108.095515 
L 155.325 113.66715 
L 156.57 114.364511 
L 157.815 114.804022 
L 159.06 108.381459 
L 160.305 102.774827 
L 161.55 95.300365 
L 162.795 114.599935 
L 164.04 114.6 
L 165.285 127.327526 
L 166.53 128.465179 
L 167.775 141.956328 
L 169.02 116.089933 
L 170.265 114.600852 
L 175.245 114.59965 
L 176.49 112.036606 
L 178.98 98.301576 
L 180.225 106.355913 
L 181.47 124.818723 
L 182.715 130.302282 
L 183.96 111.325574 
L 185.205 113.79889 
L 186.45 114.753972 
L 187.695 118.434236 
L 188.94 109.131779 
L 190.185 109.02087 
L 191.43 112.437801 
L 192.675 114.599991 
L 195.165 114.599977 
L 196.41 142.361369 
L 197.655 128.090551 
L 198.9 127.547049 
L 200.145 115.840918 
L 201.39 114.599999 
L 205.125 114.599906 
L 207.615 87.652795 
L 208.86 99.845278 
L 210.105 113.846467 
L 211.35 118.58805 
L 212.595 123.908815 
L 213.84 111.350059 
L 215.085 115.889018 
L 216.33 117.765777 
L 217.575 116.64978 
L 218.82 113.044006 
L 220.065 103.384594 
L 221.31 105.435479 
L 222.555 114.599981 
L 223.8 114.599994 
L 225.045 118.884809 
L 226.29 130.718895 
L 227.535 131.106308 
L 228.78 133.12962 
L 230.025 114.600292 
L 233.76 114.599991 
L 235.005 111.477851 
L 236.25 106.234923 
L 237.495 83.452541 
L 238.74 106.375668 
L 239.985 110.019179 
L 241.23 118.118663 
L 242.475 129.762543 
L 243.72 111.995467 
L 244.965 118.092268 
L 247.455 118.398755 
L 248.7 113.502125 
L 249.945 106.132673 
L 251.19 105.451061 
L 252.435 114.599984 
L 253.68 114.600016 
L 254.925 120.558248 
L 256.17 118.378393 
L 257.415 153.836927 
L 258.66 121.059405 
L 259.905 114.606918 
L 264.885 114.599989 
L 266.13 79.034219 
L 267.375 102.873209 
L 268.62 112.600557 
L 269.865 108.452223 
L 271.11 114.600654 
L 272.355 124.988891 
L 272.355 124.988891 
" style="fill:none;stroke:#ff7f0e;stroke-linecap:square;stroke-width:0.6;"/>
   </g>
   <g id="line2d_17">
    <path clip-path="url(#pca56064a0a)" d="M 34.56 147.6 
L 34.56 9 
" style="fill:none;stroke:#808080;stroke-linecap:square;stroke-width:0.3;"/>
   </g>
   <g id="line2d_18">
    <path clip-path="url(#pca56064a0a)" d="M 64.44 147.6 
L 64.44 9 
" style="fill:none;stroke:#808080;stroke-linecap:square;stroke-width:0.3;"/>
   </g>
   <g id="line2d_19">
    <path clip-path="url(#pca56064a0a)" d="M 94.32 147.6 
L 94.32 9 
" style="fill:none;stroke:#808080;stroke-linecap:square;stroke-width:0.3;"/>
   </g>
   <g id="line2d_20">
    <path clip-path="url(#pca56064a0a)" d="M 124.2 147.6 
L 124.2 9 
" style="fill:none;stroke:#808080;stroke-linecap:square;stroke-width:0.3;"/>
   </g>
   <g id="line2d_21">
    <path clip-path="url(#pca56064a0a)" d="M 154.08 147.6 
L 154.08 9 
" style="fill:none;stroke:#808080;stroke-linecap:square;stroke-width:0.3;"/>
   </g>
   <g id="line2d_22">
    <path clip-path="url(#pca56064a0a)" d="M 183.96 147.6 
L 183.96 9 
" style="fill:none;stroke:#808080;stroke-linecap:square;stroke-width:0.3;"/>
   </g>
   <g id="line2d_23">
    <path clip-path="url(#pca56064a0a)" d="M 213.84 147.6 
L 213.84 9 
" style="fill:none;stroke:#808080;stroke-linecap:square;stroke-width:0.3;"/>
   </g>
   <g id="line2d_24">
    <path clip-path="url(#pca56064a0a)" d="M 243.72 147.6 
L 243.72 9 
" style="fill:none;stroke:#808080;stroke-linecap:square;stroke-width:0.3;"/>
   </g>
   <g id="line2d_25">
    <path clip-path="url(#pca56064a0a)" d="M 273.6 147.6 
L 273.6 9 
" style="fill:none;stroke:#808080;stroke-linecap:square;stroke-width:0.3;"/>
   </g>
   <g id="patch_3">
    <path d="M 34.56 147.6 
L 34.56 9 
" style="fill:none;stroke:#000000;stroke-linecap:square;stroke-linejoin:miter;stroke-width:0.8;"/>
   </g>
   <g id="patch_4">
    <path d="M 273.6 147.6 
L 273.6 9 
" style="fill:none;stroke:#000000;stroke-linecap:square;stroke-linejoin:miter;stroke-width:0.8;"/>
   </g>
   <g id="patch_5">
    <path d="M 34.56 147.6 
L 273.6 147.6 
" style="fill:none;stroke:#000000;stroke-linecap:square;stroke-linejoin:miter;stroke-width:0.8;"/>
   </g>
   <g id="patch_6">
    <path d="M 34.56 9 
L 273.6 9 
" style="fill:none;stroke:#000000;stroke-linecap:square;stroke-linejoin:miter;stroke-width:0.8;"/>
   </g>
   <g id="patch_7">
    <path clip-path="url(#pca56064a0a)" d="M 94.32 141 
L 124.2 141 
L 124.2 75 
L 94.32 75 
z
" style="fill:none;opacity:0.5;stroke:#808080;stroke-linejoin:miter;"/>
   </g>
   <g id="patch_8">
    <path d="M 154.08 15.93 
Q 124.2 45.465 94.32 75 
" style="fill:none;opacity:0.5;stroke:#808080;stroke-linecap:round;"/>
   </g>
   <g id="patch_9">
    <path d="M 261.648 71.37 
Q 192.924 106.185 124.2 141 
" style="fill:none;opacity:0.5;stroke:#808080;stroke-linecap:round;"/>
   </g>
   <g id="axes_2">
    <g id="patch_10">
     <path d="M 154.08 71.37 
L 261.648 71.37 
L 261.648 15.93 
L 154.08 15.93 
z
" style="fill:#ffffff;"/>
    </g>
    <g id="matplotlib.axis_3"/>
    <g id="matplotlib.axis_4"/>
    <g id="line2d_26">
     <path clip-path="url(#p75e5ea653d)" d="M -1 52.507571 
L 1.692 49.026944 
L 6.174 49.196465 
L 10.656 49.206569 
L 15.138 48.263312 
L 19.62 45.562221 
L 24.102 16.84573 
L 28.584 48.471929 
L 33.066 39.172887 
L 37.548 51.950624 
L 42.03 60.699262 
L 46.512 48.061554 
L 50.994 51.819882 
L 55.476 51.561745 
L 59.958 54.028679 
L 64.44 46.931817 
L 68.922 43.300133 
L 73.404 41.758278 
L 77.886 49.241326 
L 82.368 49.202096 
L 86.85 58.919751 
L 91.332 62.740682 
L 95.814 66.236504 
L 100.296 57.48476 
L 104.778 50.769344 
L 109.26 49.17218 
L 122.706 49.209568 
L 127.188 45.385472 
L 131.67 29.411534 
L 136.152 33.719713 
L 140.634 41.78896 
L 145.116 49.389995 
L 149.598 56.250171 
L 154.08 42.889704 
L 158.562 45.854694 
L 167.526 47.418466 
L 172.008 44.339678 
L 176.49 37.31047 
L 180.972 40.994432 
L 185.454 49.120668 
L 189.936 49.199644 
L 194.418 52.194122 
L 198.9 60.416364 
L 203.382 59.884516 
L 207.864 59.615979 
L 212.346 53.8369 
L 216.828 49.121147 
L 225.792 49.213938 
L 230.274 43.541057 
L 234.756 48.41736 
L 239.238 20.821878 
L 243.72 41.692022 
L 248.202 44.588387 
L 252.684 66.085838 
L 257.166 66.822819 
L 261.648 42.382751 
L 266.13 46.440778 
L 270.612 47.254159 
L 275.094 49.534621 
L 279.576 43.968475 
L 284.058 37.719857 
L 288.54 36.772446 
L 289 38.04036 
L 289 38.04036 
" style="fill:none;stroke:#1f77b4;stroke-linecap:square;stroke-width:0.6;"/>
    </g>
    <g id="line2d_27">
     <path clip-path="url(#p75e5ea653d)" d="M -1 50.876536 
L 1.692 49.194085 
L 15.138 49.193856 
L 19.62 45.195477 
L 24.102 19.78566 
L 28.584 47.297811 
L 33.066 37.927722 
L 37.548 52.244169 
L 42.03 62.152998 
L 46.512 47.832172 
L 50.994 52.221813 
L 55.476 51.783059 
L 59.958 54.140735 
L 64.44 46.953213 
L 68.922 42.325815 
L 73.404 41.321672 
L 77.886 49.193956 
L 82.368 49.194017 
L 86.85 61.151476 
L 91.332 61.215847 
L 95.814 63.531039 
L 100.296 57.44672 
L 104.778 49.194343 
L 122.706 49.194083 
L 127.188 44.64654 
L 131.67 27.940182 
L 136.152 34.600305 
L 140.634 43.019442 
L 145.116 49.198317 
L 149.598 56.969231 
L 154.08 42.795946 
L 158.562 46.044798 
L 163.044 46.673887 
L 167.526 47.896198 
L 172.008 45.357988 
L 176.49 38.853255 
L 180.972 41.17809 
L 185.454 49.193999 
L 189.936 49.193988 
L 194.418 51.355726 
L 198.9 62.266529 
L 203.382 60.099141 
L 207.864 61.145837 
L 212.346 56.312802 
L 216.828 50.553502 
L 221.31 49.194027 
L 225.792 49.193996 
L 230.274 45.178887 
L 234.756 49.997418 
L 239.238 22.554156 
L 243.72 40.540979 
L 248.202 43.908521 
L 252.684 65.229023 
L 257.166 65.93731 
L 261.648 42.089467 
L 266.13 46.254457 
L 270.612 47.096116 
L 275.094 49.512795 
L 279.576 44.584081 
L 284.058 38.357185 
L 288.54 37.297684 
L 289 38.518636 
L 289 38.518636 
" style="fill:none;stroke:#ff7f0e;stroke-linecap:square;stroke-width:0.6;"/>
    </g>
    <g id="patch_11">
     <path d="M 154.08 71.37 
L 154.08 15.93 
" style="fill:none;stroke:#000000;stroke-linecap:square;stroke-linejoin:miter;stroke-width:0.8;"/>
    </g>
    <g id="patch_12">
     <path d="M 261.648 71.37 
L 261.648 15.93 
" style="fill:none;stroke:#000000;stroke-linecap:square;stroke-linejoin:miter;stroke-width:0.8;"/>
    </g>
    <g id="patch_13">
     <path d="M 154.08 71.37 
L 261.648 71.37 
" style="fill:none;stroke:#000000;stroke-linecap:square;stroke-linejoin:miter;stroke-width:0.8;"/>
    </g>
    <g id="patch_14">
     <path d="M 154.08 15.93 
L 261.648 15.93 
" style="fill:none;stroke:#000000;stroke-linecap:square;stroke-linejoin:miter;stroke-width:0.8;"/>
    </g>
   </g>
   <g id="legend_1">
    <g id="patch_15">
     <path d="M 38.725 39.999046 
L 102.926131 39.999046 
L 102.926131 13.165 
L 38.725 13.165 
z
" style="fill:#ffffff;opacity:0.8;stroke:#cccccc;stroke-linejoin:miter;"/>
    </g>
    <g id="line2d_28">
     <path d="M 42.057 19.910998 
L 58.717 19.910998 
" style="fill:none;stroke:#1f77b4;stroke-linecap:square;stroke-width:0.6;"/>
    </g>
    <g id="line2d_29"/>
    <g id="text_17">
     <!-- GB-Trees -->
     <g transform="translate(65.381 22.826498)scale(0.0833 -0.0833)">
      <defs>
       <path d="M 56.40625 29.1875 
L 36.5 29.1875 
L 36.5 23 
L 48.796875 23 
L 48.796875 7.390625 
C 44.90625 6.296875 40.90625 5.5 36.90625 5.5 
C 22.90625 5.5 14.59375 20.484375 14.59375 34.6875 
C 14.59375 48.796875 23.296875 63.59375 36.90625 63.59375 
C 44.59375 63.59375 48.90625 61.1875 54.203125 57.1875 
L 55.5 65.1875 
C 48.90625 68.59375 44.796875 70 37.296875 70 
C 17.90625 70 6.203125 52.390625 6.203125 34.390625 
C 6.203125 17.1875 18 -1 36.703125 -1 
C 43.703125 -1 50.203125 0.796875 56.40625 3.890625 
z
" id="CMSS17-71"/>
       <path d="M 8.90625 69 
L 8.90625 0 
L 33.796875 0 
C 47.40625 0 57.296875 8.984375 57.296875 18.75 
C 57.296875 26.3125 50.796875 33.984375 39.09375 36.1875 
C 52.09375 39.984375 54.703125 47.484375 54.703125 51.734375 
C 54.703125 60.625 44.90625 69 31.203125 69 
z
M 17 39 
L 17 63.390625 
L 28.5 63.390625 
C 38.796875 63.390625 46.90625 58.15625 46.90625 51.640625 
C 46.90625 45.703125 40.5 39 27.59375 39 
z
M 17 5.59375 
L 17 32.890625 
L 30.296875 32.890625 
C 41.09375 32.890625 49.40625 26.21875 49.40625 18.84375 
C 49.40625 12.0625 42.09375 5.59375 31 5.59375 
z
" id="CMSS17-66"/>
       <path d="M 26 19 
L 26 24.796875 
L 1 24.796875 
L 1 19 
z
" id="CMSS17-45"/>
       <path d="M 36.203125 62.296875 
L 44.5 62.296875 
C 45.703125 62.296875 46.90625 62.1875 48.09375 62.1875 
L 60.59375 62.1875 
L 60.59375 68.6875 
L 3.40625 68.6875 
L 3.40625 62.1875 
L 15.90625 62.1875 
C 17.09375 62.1875 18.296875 62.296875 19.5 62.296875 
L 27.796875 62.296875 
L 27.796875 0 
L 36.203125 0 
z
" id="CMSS17-84"/>
       <path d="M 32.203125 40.984375 
C 26.296875 43.796875 21.703125 44 18.703125 44 
C 11.59375 44 3.09375 41.484375 3.09375 31.390625 
C 3.09375 21.296875 14.09375 19.09375 17.09375 18.484375 
C 21.703125 17.59375 26.796875 16.59375 26.796875 11.59375 
C 26.796875 5.296875 19.59375 5.296875 18.296875 5.296875 
C 14.296875 5.296875 8.796875 6.390625 3.796875 9.984375 
L 2.59375 3.296875 
C 8.296875 0 13.796875 -1 18.40625 -1 
C 30.703125 -1 33.796875 6.5 33.796875 12.1875 
C 33.796875 17.09375 31 20.390625 29.09375 21.890625 
C 25.796875 24.484375 24.59375 24.796875 16.40625 26.484375 
C 15 26.6875 10.09375 27.796875 10.09375 32.296875 
C 10.09375 37.984375 16.40625 37.984375 17.796875 37.984375 
C 24.296875 37.984375 28.296875 35.984375 31 34.484375 
z
" id="CMSS17-115"/>
      </defs>
      <use transform="scale(0.996264)" xlink:href="#CMSS17-71"/>
      <use transform="translate(62.458226 0)scale(0.996264)" xlink:href="#CMSS17-66"/>
      <use transform="translate(124.796266 0)scale(0.996264)" xlink:href="#CMSS17-45"/>
      <use transform="translate(156.025378 0)scale(0.996264)" xlink:href="#CMSS17-84"/>
      <use transform="translate(212.037577 0)scale(0.996264)" xlink:href="#CMSS17-114"/>
      <use transform="translate(243.94735 0)scale(0.996264)" xlink:href="#CMSS17-101"/>
      <use transform="translate(285.586172 0)scale(0.996264)" xlink:href="#CMSS17-101"/>
      <use transform="translate(327.224994 0)scale(0.996264)" xlink:href="#CMSS17-115"/>
     </g>
    </g>
    <g id="line2d_30">
     <path d="M 42.057 32.137877 
L 58.717 32.137877 
" style="fill:none;stroke:#ff7f0e;stroke-linecap:square;stroke-width:0.6;"/>
    </g>
    <g id="line2d_31"/>
    <g id="text_18">
     <!-- Actual -->
     <g transform="translate(65.381 35.053377)scale(0.0833 -0.0833)">
      <defs>
       <path d="M 40.90625 43 
L 33.296875 43 
L 33.296875 15.25 
C 33.296875 7.8125 27.90625 4.796875 22.203125 4.796875 
C 15.59375 4.796875 15 7 15 11.125 
L 15 43 
L 7.40625 43 
L 7.40625 10.625 
C 7.40625 2.796875 10.09375 -1 17 -1 
C 20.40625 -1 28.09375 -0.203125 33.5 4.796875 
L 33.5 -0.203125 
L 40.90625 -0.203125 
z
" id="CMSS17-117"/>
       <path d="M 14.796875 69 
L 7.40625 69 
L 7.40625 0 
L 14.796875 0 
z
" id="CMSS17-108"/>
      </defs>
      <use transform="scale(0.996264)" xlink:href="#CMSS17-65"/>
      <use transform="translate(62.217855 0)scale(0.996264)" xlink:href="#CMSS17-99"/>
      <use transform="translate(103.856677 0)scale(0.996264)" xlink:href="#CMSS17-116"/>
      <use transform="translate(137.688244 0)scale(0.996264)" xlink:href="#CMSS17-117"/>
      <use transform="translate(185.893187 0)scale(0.996264)" xlink:href="#CMSS17-97"/>
      <use transform="translate(230.815107 0)scale(0.996264)" xlink:href="#CMSS17-108"/>
     </g>
    </g>
   </g>
  </g>
 </g>
 <defs>
  <clipPath id="pca56064a0a">
   <rect height="138.6" width="239.04" x="34.56" y="9"/>
  </clipPath>
  <clipPath id="p75e5ea653d">
   <rect height="55.44" width="107.568" x="154.08" y="15.93"/>
  </clipPath>
 </defs>
</svg>
