<?xml version="1.0" encoding="utf-8" standalone="no"?>
<!DOCTYPE svg PUBLIC "-//W3C//DTD SVG 1.1//EN"
  "http://www.w3.org/Graphics/SVG/1.1/DTD/svg11.dtd">
<!-- Created with matplotlib (https://matplotlib.org/) -->
<svg height="180pt" version="1.1" viewBox="0 0 288 180" width="288pt" xmlns="http://www.w3.org/2000/svg" xmlns:xlink="http://www.w3.org/1999/xlink">
 <metadata>
  <rdf:RDF xmlns:cc="http://creativecommons.org/ns#" xmlns:dc="http://purl.org/dc/elements/1.1/" xmlns:rdf="http://www.w3.org/1999/02/22-rdf-syntax-ns#">
   <cc:Work>
    <dc:type rdf:resource="http://purl.org/dc/dcmitype/StillImage"/>
    <dc:date>2020-10-07T21:51:31.214448</dc:date>
    <dc:format>image/svg+xml</dc:format>
    <dc:creator>
     <cc:Agent>
      <dc:title>Matplotlib v3.3.2, https://matplotlib.org/</dc:title>
     </cc:Agent>
    </dc:creator>
   </cc:Work>
  </rdf:RDF>
 </metadata>
 <defs>
  <style type="text/css">*{stroke-linecap:butt;stroke-linejoin:round;}</style>
 </defs>
 <g id="figure_1">
  <g id="patch_1">
   <path d="M 0 180 
L 288 180 
L 288 0 
L 0 0 
z
" style="fill:#ffffff;"/>
  </g>
  <g id="axes_1">
   <g id="patch_2">
    <path d="M 34.56 147.6 
L 273.6 147.6 
L 273.6 9 
L 34.56 9 
z
" style="fill:#ffffff;"/>
   </g>
   <g id="matplotlib.axis_1">
    <g id="xtick_1">
     <g id="line2d_1">
      <defs>
       <path d="M 0 0 
L 0 3.5 
" id="m80e295fca6" style="stroke:#000000;stroke-width:0.8;"/>
      </defs>
      <g>
       <use style="stroke:#000000;stroke-width:0.8;" x="49.5" xlink:href="#m80e295fca6" y="147.6"/>
      </g>
     </g>
     <g id="text_1">
      <!-- 1 -->
      <g transform="translate(46.31875 162.198438)scale(0.1 -0.1)">
       <defs>
        <path d="M 12.40625 8.296875 
L 28.515625 8.296875 
L 28.515625 63.921875 
L 10.984375 60.40625 
L 10.984375 69.390625 
L 28.421875 72.90625 
L 38.28125 72.90625 
L 38.28125 8.296875 
L 54.390625 8.296875 
L 54.390625 0 
L 12.40625 0 
z
" id="DejaVuSans-49"/>
       </defs>
       <use xlink:href="#DejaVuSans-49"/>
      </g>
     </g>
    </g>
    <g id="xtick_2">
     <g id="line2d_2">
      <g>
       <use style="stroke:#000000;stroke-width:0.8;" x="79.38" xlink:href="#m80e295fca6" y="147.6"/>
      </g>
     </g>
     <g id="text_2">
      <!-- 2 -->
      <g transform="translate(76.19875 162.198438)scale(0.1 -0.1)">
       <defs>
        <path d="M 19.1875 8.296875 
L 53.609375 8.296875 
L 53.609375 0 
L 7.328125 0 
L 7.328125 8.296875 
Q 12.9375 14.109375 22.625 23.890625 
Q 32.328125 33.6875 34.8125 36.53125 
Q 39.546875 41.84375 41.421875 45.53125 
Q 43.3125 49.21875 43.3125 52.78125 
Q 43.3125 58.59375 39.234375 62.25 
Q 35.15625 65.921875 28.609375 65.921875 
Q 23.96875 65.921875 18.8125 64.3125 
Q 13.671875 62.703125 7.8125 59.421875 
L 7.8125 69.390625 
Q 13.765625 71.78125 18.9375 73 
Q 24.125 74.21875 28.421875 74.21875 
Q 39.75 74.21875 46.484375 68.546875 
Q 53.21875 62.890625 53.21875 53.421875 
Q 53.21875 48.921875 51.53125 44.890625 
Q 49.859375 40.875 45.40625 35.40625 
Q 44.1875 33.984375 37.640625 27.21875 
Q 31.109375 20.453125 19.1875 8.296875 
z
" id="DejaVuSans-50"/>
       </defs>
       <use xlink:href="#DejaVuSans-50"/>
      </g>
     </g>
    </g>
    <g id="xtick_3">
     <g id="line2d_3">
      <g>
       <use style="stroke:#000000;stroke-width:0.8;" x="109.26" xlink:href="#m80e295fca6" y="147.6"/>
      </g>
     </g>
     <g id="text_3">
      <!-- 3 -->
      <g transform="translate(106.07875 162.198438)scale(0.1 -0.1)">
       <defs>
        <path d="M 40.578125 39.3125 
Q 47.65625 37.796875 51.625 33 
Q 55.609375 28.21875 55.609375 21.1875 
Q 55.609375 10.40625 48.1875 4.484375 
Q 40.765625 -1.421875 27.09375 -1.421875 
Q 22.515625 -1.421875 17.65625 -0.515625 
Q 12.796875 0.390625 7.625 2.203125 
L 7.625 11.71875 
Q 11.71875 9.328125 16.59375 8.109375 
Q 21.484375 6.890625 26.8125 6.890625 
Q 36.078125 6.890625 40.9375 10.546875 
Q 45.796875 14.203125 45.796875 21.1875 
Q 45.796875 27.640625 41.28125 31.265625 
Q 36.765625 34.90625 28.71875 34.90625 
L 20.21875 34.90625 
L 20.21875 43.015625 
L 29.109375 43.015625 
Q 36.375 43.015625 40.234375 45.921875 
Q 44.09375 48.828125 44.09375 54.296875 
Q 44.09375 59.90625 40.109375 62.90625 
Q 36.140625 65.921875 28.71875 65.921875 
Q 24.65625 65.921875 20.015625 65.03125 
Q 15.375 64.15625 9.8125 62.3125 
L 9.8125 71.09375 
Q 15.4375 72.65625 20.34375 73.4375 
Q 25.25 74.21875 29.59375 74.21875 
Q 40.828125 74.21875 47.359375 69.109375 
Q 53.90625 64.015625 53.90625 55.328125 
Q 53.90625 49.265625 50.4375 45.09375 
Q 46.96875 40.921875 40.578125 39.3125 
z
" id="DejaVuSans-51"/>
       </defs>
       <use xlink:href="#DejaVuSans-51"/>
      </g>
     </g>
    </g>
    <g id="xtick_4">
     <g id="line2d_4">
      <g>
       <use style="stroke:#000000;stroke-width:0.8;" x="139.14" xlink:href="#m80e295fca6" y="147.6"/>
      </g>
     </g>
     <g id="text_4">
      <!-- 4 -->
      <g transform="translate(135.95875 162.198438)scale(0.1 -0.1)">
       <defs>
        <path d="M 37.796875 64.3125 
L 12.890625 25.390625 
L 37.796875 25.390625 
z
M 35.203125 72.90625 
L 47.609375 72.90625 
L 47.609375 25.390625 
L 58.015625 25.390625 
L 58.015625 17.1875 
L 47.609375 17.1875 
L 47.609375 0 
L 37.796875 0 
L 37.796875 17.1875 
L 4.890625 17.1875 
L 4.890625 26.703125 
z
" id="DejaVuSans-52"/>
       </defs>
       <use xlink:href="#DejaVuSans-52"/>
      </g>
     </g>
    </g>
    <g id="xtick_5">
     <g id="line2d_5">
      <g>
       <use style="stroke:#000000;stroke-width:0.8;" x="169.02" xlink:href="#m80e295fca6" y="147.6"/>
      </g>
     </g>
     <g id="text_5">
      <!-- 5 -->
      <g transform="translate(165.83875 162.198438)scale(0.1 -0.1)">
       <defs>
        <path d="M 10.796875 72.90625 
L 49.515625 72.90625 
L 49.515625 64.59375 
L 19.828125 64.59375 
L 19.828125 46.734375 
Q 21.96875 47.46875 24.109375 47.828125 
Q 26.265625 48.1875 28.421875 48.1875 
Q 40.625 48.1875 47.75 41.5 
Q 54.890625 34.8125 54.890625 23.390625 
Q 54.890625 11.625 47.5625 5.09375 
Q 40.234375 -1.421875 26.90625 -1.421875 
Q 22.3125 -1.421875 17.546875 -0.640625 
Q 12.796875 0.140625 7.71875 1.703125 
L 7.71875 11.625 
Q 12.109375 9.234375 16.796875 8.0625 
Q 21.484375 6.890625 26.703125 6.890625 
Q 35.15625 6.890625 40.078125 11.328125 
Q 45.015625 15.765625 45.015625 23.390625 
Q 45.015625 31 40.078125 35.4375 
Q 35.15625 39.890625 26.703125 39.890625 
Q 22.75 39.890625 18.8125 39.015625 
Q 14.890625 38.140625 10.796875 36.28125 
z
" id="DejaVuSans-53"/>
       </defs>
       <use xlink:href="#DejaVuSans-53"/>
      </g>
     </g>
    </g>
    <g id="xtick_6">
     <g id="line2d_6">
      <g>
       <use style="stroke:#000000;stroke-width:0.8;" x="198.9" xlink:href="#m80e295fca6" y="147.6"/>
      </g>
     </g>
     <g id="text_6">
      <!-- 6 -->
      <g transform="translate(195.71875 162.198438)scale(0.1 -0.1)">
       <defs>
        <path d="M 33.015625 40.375 
Q 26.375 40.375 22.484375 35.828125 
Q 18.609375 31.296875 18.609375 23.390625 
Q 18.609375 15.53125 22.484375 10.953125 
Q 26.375 6.390625 33.015625 6.390625 
Q 39.65625 6.390625 43.53125 10.953125 
Q 47.40625 15.53125 47.40625 23.390625 
Q 47.40625 31.296875 43.53125 35.828125 
Q 39.65625 40.375 33.015625 40.375 
z
M 52.59375 71.296875 
L 52.59375 62.3125 
Q 48.875 64.0625 45.09375 64.984375 
Q 41.3125 65.921875 37.59375 65.921875 
Q 27.828125 65.921875 22.671875 59.328125 
Q 17.53125 52.734375 16.796875 39.40625 
Q 19.671875 43.65625 24.015625 45.921875 
Q 28.375 48.1875 33.59375 48.1875 
Q 44.578125 48.1875 50.953125 41.515625 
Q 57.328125 34.859375 57.328125 23.390625 
Q 57.328125 12.15625 50.6875 5.359375 
Q 44.046875 -1.421875 33.015625 -1.421875 
Q 20.359375 -1.421875 13.671875 8.265625 
Q 6.984375 17.96875 6.984375 36.375 
Q 6.984375 53.65625 15.1875 63.9375 
Q 23.390625 74.21875 37.203125 74.21875 
Q 40.921875 74.21875 44.703125 73.484375 
Q 48.484375 72.75 52.59375 71.296875 
z
" id="DejaVuSans-54"/>
       </defs>
       <use xlink:href="#DejaVuSans-54"/>
      </g>
     </g>
    </g>
    <g id="xtick_7">
     <g id="line2d_7">
      <g>
       <use style="stroke:#000000;stroke-width:0.8;" x="228.78" xlink:href="#m80e295fca6" y="147.6"/>
      </g>
     </g>
     <g id="text_7">
      <!-- 7 -->
      <g transform="translate(225.59875 162.198438)scale(0.1 -0.1)">
       <defs>
        <path d="M 8.203125 72.90625 
L 55.078125 72.90625 
L 55.078125 68.703125 
L 28.609375 0 
L 18.3125 0 
L 43.21875 64.59375 
L 8.203125 64.59375 
z
" id="DejaVuSans-55"/>
       </defs>
       <use xlink:href="#DejaVuSans-55"/>
      </g>
     </g>
    </g>
    <g id="xtick_8">
     <g id="line2d_8">
      <g>
       <use style="stroke:#000000;stroke-width:0.8;" x="258.66" xlink:href="#m80e295fca6" y="147.6"/>
      </g>
     </g>
     <g id="text_8">
      <!-- 8 -->
      <g transform="translate(255.47875 162.198438)scale(0.1 -0.1)">
       <defs>
        <path d="M 31.78125 34.625 
Q 24.75 34.625 20.71875 30.859375 
Q 16.703125 27.09375 16.703125 20.515625 
Q 16.703125 13.921875 20.71875 10.15625 
Q 24.75 6.390625 31.78125 6.390625 
Q 38.8125 6.390625 42.859375 10.171875 
Q 46.921875 13.96875 46.921875 20.515625 
Q 46.921875 27.09375 42.890625 30.859375 
Q 38.875 34.625 31.78125 34.625 
z
M 21.921875 38.8125 
Q 15.578125 40.375 12.03125 44.71875 
Q 8.5 49.078125 8.5 55.328125 
Q 8.5 64.0625 14.71875 69.140625 
Q 20.953125 74.21875 31.78125 74.21875 
Q 42.671875 74.21875 48.875 69.140625 
Q 55.078125 64.0625 55.078125 55.328125 
Q 55.078125 49.078125 51.53125 44.71875 
Q 48 40.375 41.703125 38.8125 
Q 48.828125 37.15625 52.796875 32.3125 
Q 56.78125 27.484375 56.78125 20.515625 
Q 56.78125 9.90625 50.3125 4.234375 
Q 43.84375 -1.421875 31.78125 -1.421875 
Q 19.734375 -1.421875 13.25 4.234375 
Q 6.78125 9.90625 6.78125 20.515625 
Q 6.78125 27.484375 10.78125 32.3125 
Q 14.796875 37.15625 21.921875 38.8125 
z
M 18.3125 54.390625 
Q 18.3125 48.734375 21.84375 45.5625 
Q 25.390625 42.390625 31.78125 42.390625 
Q 38.140625 42.390625 41.71875 45.5625 
Q 45.3125 48.734375 45.3125 54.390625 
Q 45.3125 60.0625 41.71875 63.234375 
Q 38.140625 66.40625 31.78125 66.40625 
Q 25.390625 66.40625 21.84375 63.234375 
Q 18.3125 60.0625 18.3125 54.390625 
z
" id="DejaVuSans-56"/>
       </defs>
       <use xlink:href="#DejaVuSans-56"/>
      </g>
     </g>
    </g>
    <g id="text_9">
     <!-- Scenario -->
     <g transform="translate(132.343281 175.876563)scale(0.1 -0.1)">
      <defs>
       <path d="M 53.515625 70.515625 
L 53.515625 60.890625 
Q 47.90625 63.578125 42.921875 64.890625 
Q 37.9375 66.21875 33.296875 66.21875 
Q 25.25 66.21875 20.875 63.09375 
Q 16.5 59.96875 16.5 54.203125 
Q 16.5 49.359375 19.40625 46.890625 
Q 22.3125 44.4375 30.421875 42.921875 
L 36.375 41.703125 
Q 47.40625 39.59375 52.65625 34.296875 
Q 57.90625 29 57.90625 20.125 
Q 57.90625 9.515625 50.796875 4.046875 
Q 43.703125 -1.421875 29.984375 -1.421875 
Q 24.8125 -1.421875 18.96875 -0.25 
Q 13.140625 0.921875 6.890625 3.21875 
L 6.890625 13.375 
Q 12.890625 10.015625 18.65625 8.296875 
Q 24.421875 6.59375 29.984375 6.59375 
Q 38.421875 6.59375 43.015625 9.90625 
Q 47.609375 13.234375 47.609375 19.390625 
Q 47.609375 24.75 44.3125 27.78125 
Q 41.015625 30.8125 33.5 32.328125 
L 27.484375 33.5 
Q 16.453125 35.6875 11.515625 40.375 
Q 6.59375 45.0625 6.59375 53.421875 
Q 6.59375 63.09375 13.40625 68.65625 
Q 20.21875 74.21875 32.171875 74.21875 
Q 37.3125 74.21875 42.625 73.28125 
Q 47.953125 72.359375 53.515625 70.515625 
z
" id="DejaVuSans-83"/>
       <path d="M 48.78125 52.59375 
L 48.78125 44.1875 
Q 44.96875 46.296875 41.140625 47.34375 
Q 37.3125 48.390625 33.40625 48.390625 
Q 24.65625 48.390625 19.8125 42.84375 
Q 14.984375 37.3125 14.984375 27.296875 
Q 14.984375 17.28125 19.8125 11.734375 
Q 24.65625 6.203125 33.40625 6.203125 
Q 37.3125 6.203125 41.140625 7.25 
Q 44.96875 8.296875 48.78125 10.40625 
L 48.78125 2.09375 
Q 45.015625 0.34375 40.984375 -0.53125 
Q 36.96875 -1.421875 32.421875 -1.421875 
Q 20.0625 -1.421875 12.78125 6.34375 
Q 5.515625 14.109375 5.515625 27.296875 
Q 5.515625 40.671875 12.859375 48.328125 
Q 20.21875 56 33.015625 56 
Q 37.15625 56 41.109375 55.140625 
Q 45.0625 54.296875 48.78125 52.59375 
z
" id="DejaVuSans-99"/>
       <path d="M 56.203125 29.59375 
L 56.203125 25.203125 
L 14.890625 25.203125 
Q 15.484375 15.921875 20.484375 11.0625 
Q 25.484375 6.203125 34.421875 6.203125 
Q 39.59375 6.203125 44.453125 7.46875 
Q 49.3125 8.734375 54.109375 11.28125 
L 54.109375 2.78125 
Q 49.265625 0.734375 44.1875 -0.34375 
Q 39.109375 -1.421875 33.890625 -1.421875 
Q 20.796875 -1.421875 13.15625 6.1875 
Q 5.515625 13.8125 5.515625 26.8125 
Q 5.515625 40.234375 12.765625 48.109375 
Q 20.015625 56 32.328125 56 
Q 43.359375 56 49.78125 48.890625 
Q 56.203125 41.796875 56.203125 29.59375 
z
M 47.21875 32.234375 
Q 47.125 39.59375 43.09375 43.984375 
Q 39.0625 48.390625 32.421875 48.390625 
Q 24.90625 48.390625 20.390625 44.140625 
Q 15.875 39.890625 15.1875 32.171875 
z
" id="DejaVuSans-101"/>
       <path d="M 54.890625 33.015625 
L 54.890625 0 
L 45.90625 0 
L 45.90625 32.71875 
Q 45.90625 40.484375 42.875 44.328125 
Q 39.84375 48.1875 33.796875 48.1875 
Q 26.515625 48.1875 22.3125 43.546875 
Q 18.109375 38.921875 18.109375 30.90625 
L 18.109375 0 
L 9.078125 0 
L 9.078125 54.6875 
L 18.109375 54.6875 
L 18.109375 46.1875 
Q 21.34375 51.125 25.703125 53.5625 
Q 30.078125 56 35.796875 56 
Q 45.21875 56 50.046875 50.171875 
Q 54.890625 44.34375 54.890625 33.015625 
z
" id="DejaVuSans-110"/>
       <path d="M 34.28125 27.484375 
Q 23.390625 27.484375 19.1875 25 
Q 14.984375 22.515625 14.984375 16.5 
Q 14.984375 11.71875 18.140625 8.90625 
Q 21.296875 6.109375 26.703125 6.109375 
Q 34.1875 6.109375 38.703125 11.40625 
Q 43.21875 16.703125 43.21875 25.484375 
L 43.21875 27.484375 
z
M 52.203125 31.203125 
L 52.203125 0 
L 43.21875 0 
L 43.21875 8.296875 
Q 40.140625 3.328125 35.546875 0.953125 
Q 30.953125 -1.421875 24.3125 -1.421875 
Q 15.921875 -1.421875 10.953125 3.296875 
Q 6 8.015625 6 15.921875 
Q 6 25.140625 12.171875 29.828125 
Q 18.359375 34.515625 30.609375 34.515625 
L 43.21875 34.515625 
L 43.21875 35.40625 
Q 43.21875 41.609375 39.140625 45 
Q 35.0625 48.390625 27.6875 48.390625 
Q 23 48.390625 18.546875 47.265625 
Q 14.109375 46.140625 10.015625 43.890625 
L 10.015625 52.203125 
Q 14.9375 54.109375 19.578125 55.046875 
Q 24.21875 56 28.609375 56 
Q 40.484375 56 46.34375 49.84375 
Q 52.203125 43.703125 52.203125 31.203125 
z
" id="DejaVuSans-97"/>
       <path d="M 41.109375 46.296875 
Q 39.59375 47.171875 37.8125 47.578125 
Q 36.03125 48 33.890625 48 
Q 26.265625 48 22.1875 43.046875 
Q 18.109375 38.09375 18.109375 28.8125 
L 18.109375 0 
L 9.078125 0 
L 9.078125 54.6875 
L 18.109375 54.6875 
L 18.109375 46.1875 
Q 20.953125 51.171875 25.484375 53.578125 
Q 30.03125 56 36.53125 56 
Q 37.453125 56 38.578125 55.875 
Q 39.703125 55.765625 41.0625 55.515625 
z
" id="DejaVuSans-114"/>
       <path d="M 9.421875 54.6875 
L 18.40625 54.6875 
L 18.40625 0 
L 9.421875 0 
z
M 9.421875 75.984375 
L 18.40625 75.984375 
L 18.40625 64.59375 
L 9.421875 64.59375 
z
" id="DejaVuSans-105"/>
       <path d="M 30.609375 48.390625 
Q 23.390625 48.390625 19.1875 42.75 
Q 14.984375 37.109375 14.984375 27.296875 
Q 14.984375 17.484375 19.15625 11.84375 
Q 23.34375 6.203125 30.609375 6.203125 
Q 37.796875 6.203125 41.984375 11.859375 
Q 46.1875 17.53125 46.1875 27.296875 
Q 46.1875 37.015625 41.984375 42.703125 
Q 37.796875 48.390625 30.609375 48.390625 
z
M 30.609375 56 
Q 42.328125 56 49.015625 48.375 
Q 55.71875 40.765625 55.71875 27.296875 
Q 55.71875 13.875 49.015625 6.21875 
Q 42.328125 -1.421875 30.609375 -1.421875 
Q 18.84375 -1.421875 12.171875 6.21875 
Q 5.515625 13.875 5.515625 27.296875 
Q 5.515625 40.765625 12.171875 48.375 
Q 18.84375 56 30.609375 56 
z
" id="DejaVuSans-111"/>
      </defs>
      <use xlink:href="#DejaVuSans-83"/>
      <use x="63.476562" xlink:href="#DejaVuSans-99"/>
      <use x="118.457031" xlink:href="#DejaVuSans-101"/>
      <use x="179.980469" xlink:href="#DejaVuSans-110"/>
      <use x="243.359375" xlink:href="#DejaVuSans-97"/>
      <use x="304.638672" xlink:href="#DejaVuSans-114"/>
      <use x="345.751953" xlink:href="#DejaVuSans-105"/>
      <use x="373.535156" xlink:href="#DejaVuSans-111"/>
     </g>
    </g>
   </g>
   <g id="matplotlib.axis_2">
    <g id="ytick_1">
     <g id="line2d_9">
      <defs>
       <path d="M 0 0 
L -3.5 0 
" id="m4729c46509" style="stroke:#000000;stroke-width:0.8;"/>
      </defs>
      <g>
       <use style="stroke:#000000;stroke-width:0.8;" x="34.56" xlink:href="#m4729c46509" y="141"/>
      </g>
     </g>
     <g id="text_10">
      <!-- −2 -->
      <g transform="translate(12.817813 144.799219)scale(0.1 -0.1)">
       <defs>
        <path d="M 10.59375 35.5 
L 73.1875 35.5 
L 73.1875 27.203125 
L 10.59375 27.203125 
z
" id="DejaVuSans-8722"/>
       </defs>
       <use xlink:href="#DejaVuSans-8722"/>
       <use x="83.789062" xlink:href="#DejaVuSans-50"/>
      </g>
     </g>
    </g>
    <g id="ytick_2">
     <g id="line2d_10">
      <g>
       <use style="stroke:#000000;stroke-width:0.8;" x="34.56" xlink:href="#m4729c46509" y="114.6"/>
      </g>
     </g>
     <g id="text_11">
      <!-- 0 -->
      <g transform="translate(21.1975 118.399219)scale(0.1 -0.1)">
       <defs>
        <path d="M 31.78125 66.40625 
Q 24.171875 66.40625 20.328125 58.90625 
Q 16.5 51.421875 16.5 36.375 
Q 16.5 21.390625 20.328125 13.890625 
Q 24.171875 6.390625 31.78125 6.390625 
Q 39.453125 6.390625 43.28125 13.890625 
Q 47.125 21.390625 47.125 36.375 
Q 47.125 51.421875 43.28125 58.90625 
Q 39.453125 66.40625 31.78125 66.40625 
z
M 31.78125 74.21875 
Q 44.046875 74.21875 50.515625 64.515625 
Q 56.984375 54.828125 56.984375 36.375 
Q 56.984375 17.96875 50.515625 8.265625 
Q 44.046875 -1.421875 31.78125 -1.421875 
Q 19.53125 -1.421875 13.0625 8.265625 
Q 6.59375 17.96875 6.59375 36.375 
Q 6.59375 54.828125 13.0625 64.515625 
Q 19.53125 74.21875 31.78125 74.21875 
z
" id="DejaVuSans-48"/>
       </defs>
       <use xlink:href="#DejaVuSans-48"/>
      </g>
     </g>
    </g>
    <g id="ytick_3">
     <g id="line2d_11">
      <g>
       <use style="stroke:#000000;stroke-width:0.8;" x="34.56" xlink:href="#m4729c46509" y="88.2"/>
      </g>
     </g>
     <g id="text_12">
      <!-- 2 -->
      <g transform="translate(21.1975 91.999219)scale(0.1 -0.1)">
       <use xlink:href="#DejaVuSans-50"/>
      </g>
     </g>
    </g>
    <g id="ytick_4">
     <g id="line2d_12">
      <g>
       <use style="stroke:#000000;stroke-width:0.8;" x="34.56" xlink:href="#m4729c46509" y="61.8"/>
      </g>
     </g>
     <g id="text_13">
      <!-- 4 -->
      <g transform="translate(21.1975 65.599219)scale(0.1 -0.1)">
       <use xlink:href="#DejaVuSans-52"/>
      </g>
     </g>
    </g>
    <g id="ytick_5">
     <g id="line2d_13">
      <g>
       <use style="stroke:#000000;stroke-width:0.8;" x="34.56" xlink:href="#m4729c46509" y="35.4"/>
      </g>
     </g>
     <g id="text_14">
      <!-- 6 -->
      <g transform="translate(21.1975 39.199219)scale(0.1 -0.1)">
       <use xlink:href="#DejaVuSans-54"/>
      </g>
     </g>
    </g>
    <g id="ytick_6">
     <g id="line2d_14">
      <g>
       <use style="stroke:#000000;stroke-width:0.8;" x="34.56" xlink:href="#m4729c46509" y="9"/>
      </g>
     </g>
     <g id="text_15">
      <!-- 8 -->
      <g transform="translate(21.1975 12.799219)scale(0.1 -0.1)">
       <use xlink:href="#DejaVuSans-56"/>
      </g>
     </g>
    </g>
    <g id="text_16">
     <!-- Active Power [MW] -->
     <g transform="translate(14.738125 125.21875)rotate(-90)scale(0.1 -0.1)">
      <defs>
       <path d="M 34.1875 63.1875 
L 20.796875 26.90625 
L 47.609375 26.90625 
z
M 28.609375 72.90625 
L 39.796875 72.90625 
L 67.578125 0 
L 57.328125 0 
L 50.6875 18.703125 
L 17.828125 18.703125 
L 11.1875 0 
L 0.78125 0 
z
" id="DejaVuSans-65"/>
       <path d="M 18.3125 70.21875 
L 18.3125 54.6875 
L 36.8125 54.6875 
L 36.8125 47.703125 
L 18.3125 47.703125 
L 18.3125 18.015625 
Q 18.3125 11.328125 20.140625 9.421875 
Q 21.96875 7.515625 27.59375 7.515625 
L 36.8125 7.515625 
L 36.8125 0 
L 27.59375 0 
Q 17.1875 0 13.234375 3.875 
Q 9.28125 7.765625 9.28125 18.015625 
L 9.28125 47.703125 
L 2.6875 47.703125 
L 2.6875 54.6875 
L 9.28125 54.6875 
L 9.28125 70.21875 
z
" id="DejaVuSans-116"/>
       <path d="M 2.984375 54.6875 
L 12.5 54.6875 
L 29.59375 8.796875 
L 46.6875 54.6875 
L 56.203125 54.6875 
L 35.6875 0 
L 23.484375 0 
z
" id="DejaVuSans-118"/>
       <path id="DejaVuSans-32"/>
       <path d="M 19.671875 64.796875 
L 19.671875 37.40625 
L 32.078125 37.40625 
Q 38.96875 37.40625 42.71875 40.96875 
Q 46.484375 44.53125 46.484375 51.125 
Q 46.484375 57.671875 42.71875 61.234375 
Q 38.96875 64.796875 32.078125 64.796875 
z
M 9.8125 72.90625 
L 32.078125 72.90625 
Q 44.34375 72.90625 50.609375 67.359375 
Q 56.890625 61.8125 56.890625 51.125 
Q 56.890625 40.328125 50.609375 34.8125 
Q 44.34375 29.296875 32.078125 29.296875 
L 19.671875 29.296875 
L 19.671875 0 
L 9.8125 0 
z
" id="DejaVuSans-80"/>
       <path d="M 4.203125 54.6875 
L 13.1875 54.6875 
L 24.421875 12.015625 
L 35.59375 54.6875 
L 46.1875 54.6875 
L 57.421875 12.015625 
L 68.609375 54.6875 
L 77.59375 54.6875 
L 63.28125 0 
L 52.6875 0 
L 40.921875 44.828125 
L 29.109375 0 
L 18.5 0 
z
" id="DejaVuSans-119"/>
       <path d="M 8.59375 75.984375 
L 29.296875 75.984375 
L 29.296875 69 
L 17.578125 69 
L 17.578125 -6.203125 
L 29.296875 -6.203125 
L 29.296875 -13.1875 
L 8.59375 -13.1875 
z
" id="DejaVuSans-91"/>
       <path d="M 9.8125 72.90625 
L 24.515625 72.90625 
L 43.109375 23.296875 
L 61.8125 72.90625 
L 76.515625 72.90625 
L 76.515625 0 
L 66.890625 0 
L 66.890625 64.015625 
L 48.09375 14.015625 
L 38.1875 14.015625 
L 19.390625 64.015625 
L 19.390625 0 
L 9.8125 0 
z
" id="DejaVuSans-77"/>
       <path d="M 3.328125 72.90625 
L 13.28125 72.90625 
L 28.609375 11.28125 
L 43.890625 72.90625 
L 54.984375 72.90625 
L 70.3125 11.28125 
L 85.59375 72.90625 
L 95.609375 72.90625 
L 77.296875 0 
L 64.890625 0 
L 49.515625 63.28125 
L 33.984375 0 
L 21.578125 0 
z
" id="DejaVuSans-87"/>
       <path d="M 30.421875 75.984375 
L 30.421875 -13.1875 
L 9.71875 -13.1875 
L 9.71875 -6.203125 
L 21.390625 -6.203125 
L 21.390625 69 
L 9.71875 69 
L 9.71875 75.984375 
z
" id="DejaVuSans-93"/>
      </defs>
      <use xlink:href="#DejaVuSans-65"/>
      <use x="66.658203" xlink:href="#DejaVuSans-99"/>
      <use x="121.638672" xlink:href="#DejaVuSans-116"/>
      <use x="160.847656" xlink:href="#DejaVuSans-105"/>
      <use x="188.630859" xlink:href="#DejaVuSans-118"/>
      <use x="247.810547" xlink:href="#DejaVuSans-101"/>
      <use x="309.333984" xlink:href="#DejaVuSans-32"/>
      <use x="341.121094" xlink:href="#DejaVuSans-80"/>
      <use x="397.798828" xlink:href="#DejaVuSans-111"/>
      <use x="458.980469" xlink:href="#DejaVuSans-119"/>
      <use x="540.767578" xlink:href="#DejaVuSans-101"/>
      <use x="602.291016" xlink:href="#DejaVuSans-114"/>
      <use x="643.404297" xlink:href="#DejaVuSans-32"/>
      <use x="675.191406" xlink:href="#DejaVuSans-91"/>
      <use x="714.205078" xlink:href="#DejaVuSans-77"/>
      <use x="800.484375" xlink:href="#DejaVuSans-87"/>
      <use x="899.361328" xlink:href="#DejaVuSans-93"/>
     </g>
    </g>
   </g>
   <g id="line2d_15">
    <path clip-path="url(#pe4342b0545)" d="M 34.56 110.945795 
L 35.805 116.552012 
L 37.05 116.46704 
L 38.295 117.723292 
L 39.54 111.331944 
L 40.785 103.537467 
L 43.275 114.598688 
L 44.52 114.668333 
L 45.765 128.899149 
L 47.01 127.487395 
L 48.255 135.8996 
L 49.5 119.087279 
L 50.745 121.299947 
L 51.99 114.401124 
L 53.235 114.602935 
L 54.48 114.614963 
L 55.725 113.492038 
L 56.97 110.276453 
L 58.215 76.090155 
L 59.46 113.740392 
L 60.705 102.670103 
L 61.95 117.881696 
L 63.195 128.296741 
L 64.44 113.25185 
L 65.685 117.72605 
L 66.93 117.418744 
L 68.175 120.35557 
L 69.42 111.906925 
L 70.665 107.583492 
L 71.91 105.74795 
L 73.155 114.65634 
L 74.4 114.609638 
L 75.645 126.178275 
L 78.135 134.888695 
L 79.38 124.469952 
L 80.625 116.475409 
L 81.87 114.574024 
L 85.605 114.618533 
L 86.85 110.066038 
L 88.095 91.049445 
L 89.34 96.17823 
L 91.83 114.833327 
L 93.075 123.000204 
L 94.32 107.094885 
L 95.565 110.624636 
L 98.055 112.486269 
L 99.3 108.821045 
L 100.545 100.45294 
L 101.79 104.83861 
L 103.035 114.512699 
L 104.28 114.60672 
L 105.525 118.171573 
L 106.77 127.959957 
L 108.015 127.326805 
L 109.26 127.007118 
L 110.505 120.127262 
L 111.75 114.51327 
L 114.24 114.623735 
L 115.485 107.870306 
L 116.73 113.675428 
L 117.975 80.823664 
L 119.22 105.669074 
L 120.465 109.117128 
L 121.71 134.709331 
L 122.955 135.58669 
L 124.2 106.49137 
L 125.445 111.322354 
L 126.69 112.290665 
L 127.935 115.005501 
L 129.18 108.379137 
L 130.425 100.940306 
L 131.67 99.812436 
L 132.915 114.519449 
L 134.16 114.606059 
L 135.405 132.016791 
L 136.65 127.820104 
L 137.895 124.747831 
L 139.14 114.845935 
L 140.385 126.328662 
L 141.63 115.006042 
L 142.875 114.661694 
L 145.365 114.558567 
L 146.61 111.775907 
L 147.855 89.096778 
L 149.1 97.619613 
L 150.345 112.105676 
L 151.59 123.612327 
L 152.835 143.033871 
L 154.08 108.239062 
L 155.325 113.610286 
L 156.57 114.351866 
L 157.815 114.511924 
L 159.06 108.869497 
L 160.305 102.475916 
L 161.55 94.683339 
L 162.795 114.615279 
L 164.04 114.599578 
L 165.285 127.863983 
L 166.53 128.173872 
L 167.775 139.293994 
L 169.02 116.335623 
L 170.265 115.502944 
L 171.51 114.942137 
L 172.755 114.596931 
L 174 114.631165 
L 175.245 115.08516 
L 176.49 113.593678 
L 177.735 105.530242 
L 178.98 95.894573 
L 180.225 109.934118 
L 181.47 125.763802 
L 182.715 129.976124 
L 183.96 110.617508 
L 185.205 114.336412 
L 186.45 114.763318 
L 187.695 118.176131 
L 188.94 108.801603 
L 190.185 106.952615 
L 191.43 110.259213 
L 192.675 114.552957 
L 193.92 114.278734 
L 195.165 113.332388 
L 196.41 139.092896 
L 197.655 128.812312 
L 198.9 126.26471 
L 200.145 116.447197 
L 201.39 113.414778 
L 202.635 114.596931 
L 203.88 114.266233 
L 205.125 113.40903 
L 206.37 103.832917 
L 207.615 85.1342 
L 208.86 102.493867 
L 210.105 113.676379 
L 211.35 118.566338 
L 212.595 124.235142 
L 213.84 111.461964 
L 215.085 116.276418 
L 216.33 118.655209 
L 217.575 116.57964 
L 218.82 112.549605 
L 220.065 103.64535 
L 221.31 103.676999 
L 222.555 114.655306 
L 223.8 114.596242 
L 225.045 116.881214 
L 226.29 130.945525 
L 227.535 126.652597 
L 228.78 134.747644 
L 230.025 115.468087 
L 231.27 114.647946 
L 233.76 114.59458 
L 236.25 108.611487 
L 237.495 87.243186 
L 238.74 103.154761 
L 239.985 111.147722 
L 241.23 118.277269 
L 242.475 128.749692 
L 243.72 112.139655 
L 244.965 117.745949 
L 246.21 118.393708 
L 247.455 118.292489 
L 248.7 113.838822 
L 249.945 106.799761 
L 251.19 104.428618 
L 252.435 114.586279 
L 253.68 114.54882 
L 254.925 121.371192 
L 256.17 120.666266 
L 257.415 148.713862 
L 258.66 121.072539 
L 259.905 115.326681 
L 261.15 114.165796 
L 262.395 114.596931 
L 263.64 113.983486 
L 264.885 114.998761 
L 266.13 81.243692 
L 267.375 103.449561 
L 268.62 115.024677 
L 269.865 108.240107 
L 271.11 114.884001 
L 272.355 123.214642 
L 272.355 123.214642 
" style="fill:none;stroke:#1f77b4;stroke-linecap:square;stroke-width:0.6;"/>
   </g>
   <g id="line2d_16">
    <path clip-path="url(#pe4342b0545)" d="M 34.56 110.733065 
L 35.805 116.427187 
L 37.05 116.663173 
L 38.295 117.617917 
L 39.54 111.008116 
L 40.785 103.306411 
L 42.03 107.385519 
L 43.275 114.599981 
L 44.52 114.600019 
L 45.765 131.029632 
L 47.01 128.930498 
L 48.255 128.661437 
L 49.5 121.883432 
L 50.745 117.934825 
L 51.99 114.600101 
L 55.725 114.599829 
L 56.97 109.839854 
L 58.215 79.590071 
L 59.46 112.342633 
L 60.705 101.187765 
L 61.95 118.231153 
L 63.195 130.027379 
L 64.44 112.978777 
L 65.685 118.204539 
L 66.93 117.682213 
L 68.175 120.488971 
L 69.42 111.932396 
L 70.665 106.423589 
L 71.91 105.228181 
L 73.155 114.599947 
L 74.4 114.600021 
L 75.645 128.835091 
L 76.89 128.911723 
L 78.135 131.667903 
L 79.38 124.424667 
L 80.625 114.600408 
L 85.605 114.600098 
L 86.85 109.186357 
L 88.095 89.297835 
L 89.34 97.226554 
L 90.585 107.249336 
L 91.83 114.60514 
L 93.075 123.856227 
L 94.32 106.98327 
L 95.565 110.85095 
L 96.81 111.599866 
L 98.055 113.054998 
L 99.3 110.03332 
L 100.545 102.289589 
L 101.79 105.05725 
L 103.035 114.599999 
L 104.28 114.599985 
L 105.525 117.173483 
L 106.77 130.162535 
L 108.015 127.58231 
L 109.26 128.828377 
L 110.505 123.074764 
L 111.75 116.218455 
L 112.995 114.600032 
L 114.24 114.599995 
L 115.485 109.820104 
L 116.73 115.55645 
L 117.975 82.8859 
L 119.22 104.298785 
L 120.465 108.307764 
L 121.71 133.689313 
L 122.955 134.532512 
L 124.2 106.142222 
L 125.445 111.100544 
L 126.69 112.102519 
L 127.935 114.979518 
L 129.18 109.112001 
L 130.425 101.69903 
L 131.67 100.437719 
L 132.915 114.599998 
L 134.16 114.599998 
L 135.405 136.196245 
L 136.65 131.377039 
L 137.895 123.690713 
L 139.14 108.277235 
L 140.385 128.635196 
L 141.63 114.863555 
L 142.875 114.6 
L 146.61 114.524665 
L 147.855 83.82059 
L 150.345 110.90163 
L 151.59 124.77865 
L 152.835 147.74962 
L 154.08 108.095515 
L 155.325 113.66715 
L 156.57 114.364511 
L 157.815 114.804022 
L 159.06 108.381459 
L 160.305 102.774827 
L 161.55 95.300365 
L 162.795 114.599935 
L 164.04 114.6 
L 165.285 127.327526 
L 166.53 128.465179 
L 167.775 141.956328 
L 169.02 116.089933 
L 170.265 114.600852 
L 175.245 114.59965 
L 176.49 112.036606 
L 178.98 98.301576 
L 180.225 106.355913 
L 181.47 124.818723 
L 182.715 130.302282 
L 183.96 111.325574 
L 185.205 113.79889 
L 186.45 114.753972 
L 187.695 118.434236 
L 188.94 109.131779 
L 190.185 109.02087 
L 191.43 112.437801 
L 192.675 114.599991 
L 195.165 114.599977 
L 196.41 142.361369 
L 197.655 128.090551 
L 198.9 127.547049 
L 200.145 115.840918 
L 201.39 114.599999 
L 205.125 114.599906 
L 207.615 87.652795 
L 208.86 99.845278 
L 210.105 113.846467 
L 211.35 118.58805 
L 212.595 123.908815 
L 213.84 111.350059 
L 215.085 115.889018 
L 216.33 117.765777 
L 217.575 116.64978 
L 218.82 113.044006 
L 220.065 103.384594 
L 221.31 105.435479 
L 222.555 114.599981 
L 223.8 114.599994 
L 225.045 118.884809 
L 226.29 130.718895 
L 227.535 131.106308 
L 228.78 133.12962 
L 230.025 114.600292 
L 233.76 114.599991 
L 235.005 111.477851 
L 236.25 106.234923 
L 237.495 83.452541 
L 238.74 106.375668 
L 239.985 110.019179 
L 241.23 118.118663 
L 242.475 129.762543 
L 243.72 111.995467 
L 244.965 118.092268 
L 247.455 118.398755 
L 248.7 113.502125 
L 249.945 106.132673 
L 251.19 105.451061 
L 252.435 114.599984 
L 253.68 114.600016 
L 254.925 120.558248 
L 256.17 118.378393 
L 257.415 153.836927 
L 258.66 121.059405 
L 259.905 114.606918 
L 264.885 114.599989 
L 266.13 79.034219 
L 267.375 102.873209 
L 268.62 112.600557 
L 269.865 108.452223 
L 271.11 114.600654 
L 272.355 124.988891 
L 272.355 124.988891 
" style="fill:none;stroke:#ff7f0e;stroke-linecap:square;stroke-width:0.6;"/>
   </g>
   <g id="line2d_17">
    <path clip-path="url(#pe4342b0545)" d="M 34.56 147.6 
L 34.56 9 
" style="fill:none;stroke:#808080;stroke-linecap:square;stroke-width:0.3;"/>
   </g>
   <g id="line2d_18">
    <path clip-path="url(#pe4342b0545)" d="M 64.44 147.6 
L 64.44 9 
" style="fill:none;stroke:#808080;stroke-linecap:square;stroke-width:0.3;"/>
   </g>
   <g id="line2d_19">
    <path clip-path="url(#pe4342b0545)" d="M 94.32 147.6 
L 94.32 9 
" style="fill:none;stroke:#808080;stroke-linecap:square;stroke-width:0.3;"/>
   </g>
   <g id="line2d_20">
    <path clip-path="url(#pe4342b0545)" d="M 124.2 147.6 
L 124.2 9 
" style="fill:none;stroke:#808080;stroke-linecap:square;stroke-width:0.3;"/>
   </g>
   <g id="line2d_21">
    <path clip-path="url(#pe4342b0545)" d="M 154.08 147.6 
L 154.08 9 
" style="fill:none;stroke:#808080;stroke-linecap:square;stroke-width:0.3;"/>
   </g>
   <g id="line2d_22">
    <path clip-path="url(#pe4342b0545)" d="M 183.96 147.6 
L 183.96 9 
" style="fill:none;stroke:#808080;stroke-linecap:square;stroke-width:0.3;"/>
   </g>
   <g id="line2d_23">
    <path clip-path="url(#pe4342b0545)" d="M 213.84 147.6 
L 213.84 9 
" style="fill:none;stroke:#808080;stroke-linecap:square;stroke-width:0.3;"/>
   </g>
   <g id="line2d_24">
    <path clip-path="url(#pe4342b0545)" d="M 243.72 147.6 
L 243.72 9 
" style="fill:none;stroke:#808080;stroke-linecap:square;stroke-width:0.3;"/>
   </g>
   <g id="line2d_25">
    <path clip-path="url(#pe4342b0545)" d="M 273.6 147.6 
L 273.6 9 
" style="fill:none;stroke:#808080;stroke-linecap:square;stroke-width:0.3;"/>
   </g>
   <g id="patch_3">
    <path d="M 34.56 147.6 
L 34.56 9 
" style="fill:none;stroke:#000000;stroke-linecap:square;stroke-linejoin:miter;stroke-width:0.8;"/>
   </g>
   <g id="patch_4">
    <path d="M 273.6 147.6 
L 273.6 9 
" style="fill:none;stroke:#000000;stroke-linecap:square;stroke-linejoin:miter;stroke-width:0.8;"/>
   </g>
   <g id="patch_5">
    <path d="M 34.56 147.6 
L 273.6 147.6 
" style="fill:none;stroke:#000000;stroke-linecap:square;stroke-linejoin:miter;stroke-width:0.8;"/>
   </g>
   <g id="patch_6">
    <path d="M 34.56 9 
L 273.6 9 
" style="fill:none;stroke:#000000;stroke-linecap:square;stroke-linejoin:miter;stroke-width:0.8;"/>
   </g>
   <g id="patch_7">
    <path clip-path="url(#pe4342b0545)" d="M 94.32 141 
L 124.2 141 
L 124.2 75 
L 94.32 75 
z
" style="fill:none;opacity:0.5;stroke:#808080;stroke-linejoin:miter;"/>
   </g>
   <g id="patch_8">
    <path d="M 154.08 15.93 
Q 124.2 45.465 94.32 75 
" style="fill:none;opacity:0.5;stroke:#808080;stroke-linecap:round;"/>
   </g>
   <g id="patch_9">
    <path d="M 261.648 71.37 
Q 192.924 106.185 124.2 141 
" style="fill:none;opacity:0.5;stroke:#808080;stroke-linecap:round;"/>
   </g>
   <g id="axes_2">
    <g id="patch_10">
     <path d="M 154.08 71.37 
L 261.648 71.37 
L 261.648 15.93 
L 154.08 15.93 
z
" style="fill:#ffffff;"/>
    </g>
    <g id="matplotlib.axis_3"/>
    <g id="matplotlib.axis_4"/>
    <g id="line2d_26">
     <path clip-path="url(#pe522068f19)" d="M -1 52.507571 
L 1.692 49.026944 
L 6.174 49.196465 
L 10.656 49.206569 
L 15.138 48.263312 
L 19.62 45.562221 
L 24.102 16.84573 
L 28.584 48.471929 
L 33.066 39.172887 
L 37.548 51.950624 
L 42.03 60.699262 
L 46.512 48.061554 
L 50.994 51.819882 
L 55.476 51.561745 
L 59.958 54.028679 
L 64.44 46.931817 
L 68.922 43.300133 
L 73.404 41.758278 
L 77.886 49.241326 
L 82.368 49.202096 
L 86.85 58.919751 
L 91.332 62.740682 
L 95.814 66.236504 
L 100.296 57.48476 
L 104.778 50.769344 
L 109.26 49.17218 
L 122.706 49.209568 
L 127.188 45.385472 
L 131.67 29.411534 
L 136.152 33.719713 
L 140.634 41.78896 
L 145.116 49.389995 
L 149.598 56.250171 
L 154.08 42.889704 
L 158.562 45.854694 
L 167.526 47.418466 
L 172.008 44.339678 
L 176.49 37.31047 
L 180.972 40.994432 
L 185.454 49.120668 
L 189.936 49.199644 
L 194.418 52.194122 
L 198.9 60.416364 
L 203.382 59.884516 
L 207.864 59.615979 
L 212.346 53.8369 
L 216.828 49.121147 
L 225.792 49.213938 
L 230.274 43.541057 
L 234.756 48.41736 
L 239.238 20.821878 
L 243.72 41.692022 
L 248.202 44.588387 
L 252.684 66.085838 
L 257.166 66.822819 
L 261.648 42.382751 
L 266.13 46.440778 
L 270.612 47.254159 
L 275.094 49.534621 
L 279.576 43.968475 
L 284.058 37.719857 
L 288.54 36.772446 
L 289 38.04036 
L 289 38.04036 
" style="fill:none;stroke:#1f77b4;stroke-linecap:square;stroke-width:0.6;"/>
    </g>
    <g id="line2d_27">
     <path clip-path="url(#pe522068f19)" d="M -1 50.876536 
L 1.692 49.194085 
L 15.138 49.193856 
L 19.62 45.195477 
L 24.102 19.78566 
L 28.584 47.297811 
L 33.066 37.927722 
L 37.548 52.244169 
L 42.03 62.152998 
L 46.512 47.832172 
L 50.994 52.221813 
L 55.476 51.783059 
L 59.958 54.140735 
L 64.44 46.953213 
L 68.922 42.325815 
L 73.404 41.321672 
L 77.886 49.193956 
L 82.368 49.194017 
L 86.85 61.151476 
L 91.332 61.215847 
L 95.814 63.531039 
L 100.296 57.44672 
L 104.778 49.194343 
L 122.706 49.194083 
L 127.188 44.64654 
L 131.67 27.940182 
L 136.152 34.600305 
L 140.634 43.019442 
L 145.116 49.198317 
L 149.598 56.969231 
L 154.08 42.795946 
L 158.562 46.044798 
L 163.044 46.673887 
L 167.526 47.896198 
L 172.008 45.357988 
L 176.49 38.853255 
L 180.972 41.17809 
L 185.454 49.193999 
L 189.936 49.193988 
L 194.418 51.355726 
L 198.9 62.266529 
L 203.382 60.099141 
L 207.864 61.145837 
L 212.346 56.312802 
L 216.828 50.553502 
L 221.31 49.194027 
L 225.792 49.193996 
L 230.274 45.178887 
L 234.756 49.997418 
L 239.238 22.554156 
L 243.72 40.540979 
L 248.202 43.908521 
L 252.684 65.229023 
L 257.166 65.93731 
L 261.648 42.089467 
L 266.13 46.254457 
L 270.612 47.096116 
L 275.094 49.512795 
L 279.576 44.584081 
L 284.058 38.357185 
L 288.54 37.297684 
L 289 38.518636 
L 289 38.518636 
" style="fill:none;stroke:#ff7f0e;stroke-linecap:square;stroke-width:0.6;"/>
    </g>
    <g id="patch_11">
     <path d="M 154.08 71.37 
L 154.08 15.93 
" style="fill:none;stroke:#000000;stroke-linecap:square;stroke-linejoin:miter;stroke-width:0.8;"/>
    </g>
    <g id="patch_12">
     <path d="M 261.648 71.37 
L 261.648 15.93 
" style="fill:none;stroke:#000000;stroke-linecap:square;stroke-linejoin:miter;stroke-width:0.8;"/>
    </g>
    <g id="patch_13">
     <path d="M 154.08 71.37 
L 261.648 71.37 
" style="fill:none;stroke:#000000;stroke-linecap:square;stroke-linejoin:miter;stroke-width:0.8;"/>
    </g>
    <g id="patch_14">
     <path d="M 154.08 15.93 
L 261.648 15.93 
" style="fill:none;stroke:#000000;stroke-linecap:square;stroke-linejoin:miter;stroke-width:0.8;"/>
    </g>
   </g>
   <g id="legend_1">
    <g id="patch_15">
     <path d="M 38.725 40.117756 
L 104.814439 40.117756 
L 104.814439 13.165 
L 38.725 13.165 
z
" style="fill:#ffffff;opacity:0.8;stroke:#cccccc;stroke-linejoin:miter;"/>
    </g>
    <g id="line2d_28">
     <path d="M 42.057 19.910998 
L 58.717 19.910998 
" style="fill:none;stroke:#1f77b4;stroke-linecap:square;stroke-width:0.6;"/>
    </g>
    <g id="line2d_29"/>
    <g id="text_17">
     <!-- GB-Trees -->
     <g transform="translate(65.381 22.826498)scale(0.0833 -0.0833)">
      <defs>
       <path d="M 59.515625 10.40625 
L 59.515625 29.984375 
L 43.40625 29.984375 
L 43.40625 38.09375 
L 69.28125 38.09375 
L 69.28125 6.78125 
Q 63.578125 2.734375 56.6875 0.65625 
Q 49.8125 -1.421875 42 -1.421875 
Q 24.90625 -1.421875 15.25 8.5625 
Q 5.609375 18.5625 5.609375 36.375 
Q 5.609375 54.25 15.25 64.234375 
Q 24.90625 74.21875 42 74.21875 
Q 49.125 74.21875 55.546875 72.453125 
Q 61.96875 70.703125 67.390625 67.28125 
L 67.390625 56.78125 
Q 61.921875 61.421875 55.765625 63.765625 
Q 49.609375 66.109375 42.828125 66.109375 
Q 29.4375 66.109375 22.71875 58.640625 
Q 16.015625 51.171875 16.015625 36.375 
Q 16.015625 21.625 22.71875 14.15625 
Q 29.4375 6.6875 42.828125 6.6875 
Q 48.046875 6.6875 52.140625 7.59375 
Q 56.25 8.5 59.515625 10.40625 
z
" id="DejaVuSans-71"/>
       <path d="M 19.671875 34.8125 
L 19.671875 8.109375 
L 35.5 8.109375 
Q 43.453125 8.109375 47.28125 11.40625 
Q 51.125 14.703125 51.125 21.484375 
Q 51.125 28.328125 47.28125 31.5625 
Q 43.453125 34.8125 35.5 34.8125 
z
M 19.671875 64.796875 
L 19.671875 42.828125 
L 34.28125 42.828125 
Q 41.5 42.828125 45.03125 45.53125 
Q 48.578125 48.25 48.578125 53.8125 
Q 48.578125 59.328125 45.03125 62.0625 
Q 41.5 64.796875 34.28125 64.796875 
z
M 9.8125 72.90625 
L 35.015625 72.90625 
Q 46.296875 72.90625 52.390625 68.21875 
Q 58.5 63.53125 58.5 54.890625 
Q 58.5 48.1875 55.375 44.234375 
Q 52.25 40.28125 46.1875 39.3125 
Q 53.46875 37.75 57.5 32.78125 
Q 61.53125 27.828125 61.53125 20.40625 
Q 61.53125 10.640625 54.890625 5.3125 
Q 48.25 0 35.984375 0 
L 9.8125 0 
z
" id="DejaVuSans-66"/>
       <path d="M 4.890625 31.390625 
L 31.203125 31.390625 
L 31.203125 23.390625 
L 4.890625 23.390625 
z
" id="DejaVuSans-45"/>
       <path d="M -0.296875 72.90625 
L 61.375 72.90625 
L 61.375 64.59375 
L 35.5 64.59375 
L 35.5 0 
L 25.59375 0 
L 25.59375 64.59375 
L -0.296875 64.59375 
z
" id="DejaVuSans-84"/>
       <path d="M 44.28125 53.078125 
L 44.28125 44.578125 
Q 40.484375 46.53125 36.375 47.5 
Q 32.28125 48.484375 27.875 48.484375 
Q 21.1875 48.484375 17.84375 46.4375 
Q 14.5 44.390625 14.5 40.28125 
Q 14.5 37.15625 16.890625 35.375 
Q 19.28125 33.59375 26.515625 31.984375 
L 29.59375 31.296875 
Q 39.15625 29.25 43.1875 25.515625 
Q 47.21875 21.78125 47.21875 15.09375 
Q 47.21875 7.46875 41.1875 3.015625 
Q 35.15625 -1.421875 24.609375 -1.421875 
Q 20.21875 -1.421875 15.453125 -0.5625 
Q 10.6875 0.296875 5.421875 2 
L 5.421875 11.28125 
Q 10.40625 8.6875 15.234375 7.390625 
Q 20.0625 6.109375 24.8125 6.109375 
Q 31.15625 6.109375 34.5625 8.28125 
Q 37.984375 10.453125 37.984375 14.40625 
Q 37.984375 18.0625 35.515625 20.015625 
Q 33.0625 21.96875 24.703125 23.78125 
L 21.578125 24.515625 
Q 13.234375 26.265625 9.515625 29.90625 
Q 5.8125 33.546875 5.8125 39.890625 
Q 5.8125 47.609375 11.28125 51.796875 
Q 16.75 56 26.8125 56 
Q 31.78125 56 36.171875 55.265625 
Q 40.578125 54.546875 44.28125 53.078125 
z
" id="DejaVuSans-115"/>
      </defs>
      <use xlink:href="#DejaVuSans-71"/>
      <use x="77.490234" xlink:href="#DejaVuSans-66"/>
      <use x="146.09375" xlink:href="#DejaVuSans-45"/>
      <use x="173.052734" xlink:href="#DejaVuSans-84"/>
      <use x="219.386719" xlink:href="#DejaVuSans-114"/>
      <use x="258.25" xlink:href="#DejaVuSans-101"/>
      <use x="319.773438" xlink:href="#DejaVuSans-101"/>
      <use x="381.296875" xlink:href="#DejaVuSans-115"/>
     </g>
    </g>
    <g id="line2d_30">
     <path d="M 42.057 32.137877 
L 58.717 32.137877 
" style="fill:none;stroke:#ff7f0e;stroke-linecap:square;stroke-width:0.6;"/>
    </g>
    <g id="line2d_31"/>
    <g id="text_18">
     <!-- Actual -->
     <g transform="translate(65.381 35.053377)scale(0.0833 -0.0833)">
      <defs>
       <path d="M 8.5 21.578125 
L 8.5 54.6875 
L 17.484375 54.6875 
L 17.484375 21.921875 
Q 17.484375 14.15625 20.5 10.265625 
Q 23.53125 6.390625 29.59375 6.390625 
Q 36.859375 6.390625 41.078125 11.03125 
Q 45.3125 15.671875 45.3125 23.6875 
L 45.3125 54.6875 
L 54.296875 54.6875 
L 54.296875 0 
L 45.3125 0 
L 45.3125 8.40625 
Q 42.046875 3.421875 37.71875 1 
Q 33.40625 -1.421875 27.6875 -1.421875 
Q 18.265625 -1.421875 13.375 4.4375 
Q 8.5 10.296875 8.5 21.578125 
z
M 31.109375 56 
z
" id="DejaVuSans-117"/>
       <path d="M 9.421875 75.984375 
L 18.40625 75.984375 
L 18.40625 0 
L 9.421875 0 
z
" id="DejaVuSans-108"/>
      </defs>
      <use xlink:href="#DejaVuSans-65"/>
      <use x="66.658203" xlink:href="#DejaVuSans-99"/>
      <use x="121.638672" xlink:href="#DejaVuSans-116"/>
      <use x="160.847656" xlink:href="#DejaVuSans-117"/>
      <use x="224.226562" xlink:href="#DejaVuSans-97"/>
      <use x="285.505859" xlink:href="#DejaVuSans-108"/>
     </g>
    </g>
   </g>
  </g>
 </g>
 <defs>
  <clipPath id="pe4342b0545">
   <rect height="138.6" width="239.04" x="34.56" y="9"/>
  </clipPath>
  <clipPath id="pe522068f19">
   <rect height="55.44" width="107.568" x="154.08" y="15.93"/>
  </clipPath>
 </defs>
</svg>
