<?xml version="1.0" encoding="utf-8" standalone="no"?>
<!DOCTYPE svg PUBLIC "-//W3C//DTD SVG 1.1//EN"
  "http://www.w3.org/Graphics/SVG/1.1/DTD/svg11.dtd">
<!-- Created with matplotlib (https://matplotlib.org/) -->
<svg height="288pt" version="1.1" viewBox="0 0 396 288" width="396pt" xmlns="http://www.w3.org/2000/svg" xmlns:xlink="http://www.w3.org/1999/xlink">
 <metadata>
  <rdf:RDF xmlns:cc="http://creativecommons.org/ns#" xmlns:dc="http://purl.org/dc/elements/1.1/" xmlns:rdf="http://www.w3.org/1999/02/22-rdf-syntax-ns#">
   <cc:Work>
    <dc:type rdf:resource="http://purl.org/dc/dcmitype/StillImage"/>
    <dc:date>2020-09-30T11:58:23.581243</dc:date>
    <dc:format>image/svg+xml</dc:format>
    <dc:creator>
     <cc:Agent>
      <dc:title>Matplotlib v3.3.2, https://matplotlib.org/</dc:title>
     </cc:Agent>
    </dc:creator>
   </cc:Work>
  </rdf:RDF>
 </metadata>
 <defs>
  <style type="text/css">*{stroke-linecap:butt;stroke-linejoin:round;}</style>
 </defs>
 <g id="figure_1">
  <g id="patch_1">
   <path d="M 0 288 
L 396 288 
L 396 0 
L 0 0 
z
" style="fill:#ffffff;"/>
  </g>
  <g id="axes_1">
   <g id="patch_2">
    <path d="M 49.5 244.8 
L 356.4 244.8 
L 356.4 34.56 
L 49.5 34.56 
z
" style="fill:#ffffff;"/>
   </g>
   <g id="patch_3">
    <path clip-path="url(#p9d348eaf1a)" d="M 63.45 244.8 
L 69.684637 244.8 
L 69.684637 46.101816 
L 63.45 46.101816 
z
" style="fill:#1f77b4;"/>
   </g>
   <g id="patch_4">
    <path clip-path="url(#p9d348eaf1a)" d="M 71.243296 244.8 
L 77.477933 244.8 
L 77.477933 216.048181 
L 71.243296 216.048181 
z
" style="fill:#1f77b4;"/>
   </g>
   <g id="patch_5">
    <path clip-path="url(#p9d348eaf1a)" d="M 79.036592 244.8 
L 85.271229 244.8 
L 85.271229 218.600683 
L 79.036592 218.600683 
z
" style="fill:#1f77b4;"/>
   </g>
   <g id="patch_6">
    <path clip-path="url(#p9d348eaf1a)" d="M 86.829888 244.8 
L 93.064525 244.8 
L 93.064525 227.337621 
L 86.829888 227.337621 
z
" style="fill:#1f77b4;"/>
   </g>
   <g id="patch_7">
    <path clip-path="url(#p9d348eaf1a)" d="M 94.623184 244.8 
L 100.857821 244.8 
L 100.857821 228.033415 
L 94.623184 228.033415 
z
" style="fill:#1f77b4;"/>
   </g>
   <g id="patch_8">
    <path clip-path="url(#p9d348eaf1a)" d="M 102.41648 244.8 
L 108.651117 244.8 
L 108.651117 229.637314 
L 102.41648 229.637314 
z
" style="fill:#1f77b4;"/>
   </g>
   <g id="patch_9">
    <path clip-path="url(#p9d348eaf1a)" d="M 110.209777 244.8 
L 116.444413 244.8 
L 116.444413 233.946596 
L 110.209777 233.946596 
z
" style="fill:#1f77b4;"/>
   </g>
   <g id="patch_10">
    <path clip-path="url(#p9d348eaf1a)" d="M 118.003073 244.8 
L 124.237709 244.8 
L 124.237709 235.536568 
L 118.003073 235.536568 
z
" style="fill:#1f77b4;"/>
   </g>
   <g id="patch_11">
    <path clip-path="url(#p9d348eaf1a)" d="M 125.796369 244.8 
L 132.031006 244.8 
L 132.031006 237.569368 
L 125.796369 237.569368 
z
" style="fill:#1f77b4;"/>
   </g>
   <g id="patch_12">
    <path clip-path="url(#p9d348eaf1a)" d="M 133.589665 244.8 
L 139.824302 244.8 
L 139.824302 240.117328 
L 133.589665 240.117328 
z
" style="fill:#1f77b4;"/>
   </g>
   <g id="patch_13">
    <path clip-path="url(#p9d348eaf1a)" d="M 141.382961 244.8 
L 147.617598 244.8 
L 147.617598 240.142013 
L 141.382961 240.142013 
z
" style="fill:#1f77b4;"/>
   </g>
   <g id="patch_14">
    <path clip-path="url(#p9d348eaf1a)" d="M 149.176257 244.8 
L 155.410894 244.8 
L 155.410894 240.324007 
L 149.176257 240.324007 
z
" style="fill:#1f77b4;"/>
   </g>
   <g id="patch_15">
    <path clip-path="url(#p9d348eaf1a)" d="M 156.969553 244.8 
L 163.20419 244.8 
L 163.20419 240.347494 
L 156.969553 240.347494 
z
" style="fill:#1f77b4;"/>
   </g>
   <g id="patch_16">
    <path clip-path="url(#p9d348eaf1a)" d="M 164.762849 244.8 
L 170.997486 244.8 
L 170.997486 241.665599 
L 164.762849 241.665599 
z
" style="fill:#1f77b4;"/>
   </g>
   <g id="patch_17">
    <path clip-path="url(#p9d348eaf1a)" d="M 172.556145 244.8 
L 178.790782 244.8 
L 178.790782 242.377983 
L 172.556145 242.377983 
z
" style="fill:#1f77b4;"/>
   </g>
   <g id="patch_18">
    <path clip-path="url(#p9d348eaf1a)" d="M 180.349441 244.8 
L 186.584078 244.8 
L 186.584078 242.553218 
L 180.349441 242.553218 
z
" style="fill:#1f77b4;"/>
   </g>
   <g id="patch_19">
    <path clip-path="url(#p9d348eaf1a)" d="M 188.142737 244.8 
L 194.377374 244.8 
L 194.377374 243.040436 
L 188.142737 243.040436 
z
" style="fill:#1f77b4;"/>
   </g>
   <g id="patch_20">
    <path clip-path="url(#p9d348eaf1a)" d="M 195.936034 244.8 
L 202.17067 244.8 
L 202.17067 243.395598 
L 195.936034 243.395598 
z
" style="fill:#1f77b4;"/>
   </g>
   <g id="patch_21">
    <path clip-path="url(#p9d348eaf1a)" d="M 203.72933 244.8 
L 209.963966 244.8 
L 209.963966 243.711622 
L 203.72933 243.711622 
z
" style="fill:#1f77b4;"/>
   </g>
   <g id="patch_22">
    <path clip-path="url(#p9d348eaf1a)" d="M 211.522626 244.8 
L 217.757263 244.8 
L 217.757263 243.931978 
L 211.522626 243.931978 
z
" style="fill:#1f77b4;"/>
   </g>
   <g id="patch_23">
    <path clip-path="url(#p9d348eaf1a)" d="M 219.315922 244.8 
L 225.550559 244.8 
L 225.550559 244.04513 
L 219.315922 244.04513 
z
" style="fill:#1f77b4;"/>
   </g>
   <g id="patch_24">
    <path clip-path="url(#p9d348eaf1a)" d="M 227.109218 244.8 
L 233.343855 244.8 
L 233.343855 244.163457 
L 227.109218 244.163457 
z
" style="fill:#1f77b4;"/>
   </g>
   <g id="patch_25">
    <path clip-path="url(#p9d348eaf1a)" d="M 234.902514 244.8 
L 241.137151 244.8 
L 241.137151 244.16928 
L 234.902514 244.16928 
z
" style="fill:#1f77b4;"/>
   </g>
   <g id="patch_26">
    <path clip-path="url(#p9d348eaf1a)" d="M 242.69581 244.8 
L 248.930447 244.8 
L 248.930447 244.183478 
L 242.69581 244.183478 
z
" style="fill:#1f77b4;"/>
   </g>
   <g id="patch_27">
    <path clip-path="url(#p9d348eaf1a)" d="M 250.489106 244.8 
L 256.723743 244.8 
L 256.723743 244.371688 
L 250.489106 244.371688 
z
" style="fill:#1f77b4;"/>
   </g>
   <g id="patch_28">
    <path clip-path="url(#p9d348eaf1a)" d="M 258.282402 244.8 
L 264.517039 244.8 
L 264.517039 244.475525 
L 258.282402 244.475525 
z
" style="fill:#1f77b4;"/>
   </g>
   <g id="patch_29">
    <path clip-path="url(#p9d348eaf1a)" d="M 266.075698 244.8 
L 272.310335 244.8 
L 272.310335 244.506231 
L 266.075698 244.506231 
z
" style="fill:#1f77b4;"/>
   </g>
   <g id="patch_30">
    <path clip-path="url(#p9d348eaf1a)" d="M 273.868994 244.8 
L 280.103631 244.8 
L 280.103631 244.535819 
L 273.868994 244.535819 
z
" style="fill:#1f77b4;"/>
   </g>
   <g id="patch_31">
    <path clip-path="url(#p9d348eaf1a)" d="M 281.662291 244.8 
L 287.896927 244.8 
L 287.896927 244.581894 
L 281.662291 244.581894 
z
" style="fill:#1f77b4;"/>
   </g>
   <g id="patch_32">
    <path clip-path="url(#p9d348eaf1a)" d="M 289.455587 244.8 
L 295.690223 244.8 
L 295.690223 244.611534 
L 289.455587 244.611534 
z
" style="fill:#1f77b4;"/>
   </g>
   <g id="patch_33">
    <path clip-path="url(#p9d348eaf1a)" d="M 297.248883 244.8 
L 303.48352 244.8 
L 303.48352 244.623863 
L 297.248883 244.623863 
z
" style="fill:#1f77b4;"/>
   </g>
   <g id="patch_34">
    <path clip-path="url(#p9d348eaf1a)" d="M 305.042179 244.8 
L 311.276816 244.8 
L 311.276816 244.633176 
L 305.042179 244.633176 
z
" style="fill:#1f77b4;"/>
   </g>
   <g id="patch_35">
    <path clip-path="url(#p9d348eaf1a)" d="M 312.835475 244.8 
L 319.070112 244.8 
L 319.070112 244.646959 
L 312.835475 244.646959 
z
" style="fill:#1f77b4;"/>
   </g>
   <g id="patch_36">
    <path clip-path="url(#p9d348eaf1a)" d="M 320.628771 244.8 
L 326.863408 244.8 
L 326.863408 244.647303 
L 320.628771 244.647303 
z
" style="fill:#1f77b4;"/>
   </g>
   <g id="patch_37">
    <path clip-path="url(#p9d348eaf1a)" d="M 328.422067 244.8 
L 334.656704 244.8 
L 334.656704 244.653865 
L 328.422067 244.653865 
z
" style="fill:#1f77b4;"/>
   </g>
   <g id="patch_38">
    <path clip-path="url(#p9d348eaf1a)" d="M 336.215363 244.8 
L 342.45 244.8 
L 342.45 244.69833 
L 336.215363 244.69833 
z
" style="fill:#1f77b4;"/>
   </g>
   <g id="matplotlib.axis_1">
    <g id="xtick_1">
     <g id="line2d_1">
      <defs>
       <path d="M 0 0 
L 0 3.5 
" id="m35d3f8607c" style="stroke:#000000;stroke-width:0.8;"/>
      </defs>
      <g>
       <use style="stroke:#000000;stroke-width:0.8;" x="66.567318" xlink:href="#m35d3f8607c" y="244.8"/>
      </g>
     </g>
     <g id="text_1">
      <!-- v\_6 -->
      <g transform="translate(68.642035 263.446237)rotate(-90)scale(0.0833 -0.0833)">
       <defs>
        <path d="M 41.796875 43 
L 34 43 
L 27.296875 24.296875 
C 25.203125 18.1875 22.203125 9.796875 21.703125 5.5 
L 21.59375 5.5 
C 21.40625 7.296875 20.59375 9.890625 20.09375 11.6875 
C 19.5 13.890625 18.703125 16.5 18.09375 18.296875 
L 9.296875 43 
L 1.296875 43 
L 17.09375 0 
L 26 0 
z
" id="CMSS17-118"/>
        <path d="M 39 64.984375 
C 34.796875 66.6875 31.796875 67 29 67 
C 16 67 3.90625 53.25 3.90625 31.609375 
C 3.90625 4.1875 15.40625 -2 23.59375 -2 
C 28.09375 -2 32.59375 -0.609375 36.90625 4.390625 
C 41.296875 9.671875 43 14.0625 43 21.75 
C 43 34.109375 36.90625 45.09375 27.796875 45.09375 
C 21.203125 45.09375 15.5 41.59375 12 37.203125 
C 13 51.40625 19.59375 60.890625 29.09375 60.890625 
C 31.703125 60.890625 35.09375 60.484375 39 58.75 
z
M 12.09375 21.4375 
C 12.09375 22.234375 12.09375 22.734375 12.203125 24.234375 
C 12.203125 32.015625 16.703125 39 24 39 
C 28.703125 39 31.09375 36.5 32.90625 33.40625 
C 35 29.515625 35.09375 25.828125 35.09375 21.75 
C 35.09375 17.859375 35.09375 13.96875 32.796875 9.96875 
C 30.90625 6.890625 28.40625 4.1875 23.59375 4.1875 
C 14.09375 4.1875 12.5 17.453125 12.09375 21.4375 
z
" id="CMSS17-54"/>
       </defs>
       <use transform="scale(0.996264)" xlink:href="#CMSS17-118"/>
       <use transform="translate(76.727637 0)scale(0.996264)" xlink:href="#CMSS17-54"/>
       <path d="M 48.621153 0 
L 76.727637 0 
L 76.727637 0.3985 
L 48.621153 0.3985 
L 48.621153 0 
z
"/>
      </g>
     </g>
    </g>
    <g id="xtick_2">
     <g id="line2d_2">
      <g>
       <use style="stroke:#000000;stroke-width:0.8;" x="74.360615" xlink:href="#m35d3f8607c" y="244.8"/>
      </g>
     </g>
     <g id="text_2">
      <!-- v\_5 -->
      <g transform="translate(76.435331 263.446237)rotate(-90)scale(0.0833 -0.0833)">
       <defs>
        <path d="M 14.59375 59.59375 
L 39.09375 59.59375 
L 39.09375 66 
L 7.296875 66 
L 7.296875 28.59375 
L 14 28.59375 
C 15.796875 32.859375 19.5 36 24.296875 36 
C 28.796875 36 33.796875 31.9375 33.796875 20.296875 
C 33.796875 7.84375 26.703125 4.1875 21.5 4.1875 
C 15.09375 4.1875 9.203125 8.140625 6.59375 13.609375 
L 3.40625 7.9375 
C 8 0.796875 15.5 -2 21.5 -2 
C 33.09375 -2 42.203125 7.9375 42.203125 20.09375 
C 42.203125 32.546875 34.09375 42.09375 24.40625 42.09375 
C 20.90625 42.09375 17.5 40.890625 14.59375 38.5 
z
" id="CMSS17-53"/>
       </defs>
       <use transform="scale(0.996264)" xlink:href="#CMSS17-118"/>
       <use transform="translate(76.727637 0)scale(0.996264)" xlink:href="#CMSS17-53"/>
       <path d="M 48.621153 0 
L 76.727637 0 
L 76.727637 0.3985 
L 48.621153 0.3985 
L 48.621153 0 
z
"/>
      </g>
     </g>
    </g>
    <g id="xtick_3">
     <g id="line2d_3">
      <g>
       <use style="stroke:#000000;stroke-width:0.8;" x="82.153911" xlink:href="#m35d3f8607c" y="244.8"/>
      </g>
     </g>
     <g id="text_3">
      <!-- v\_19 -->
      <g transform="translate(84.228627 267.855074)rotate(-90)scale(0.0833 -0.0833)">
       <defs>
        <path d="M 28.40625 67 
L 26.5 67 
C 21.09375 61.703125 14.796875 60.96875 8.40625 60.796875 
L 8.40625 55 
C 11.296875 55.09375 16 55.296875 20.703125 57.390625 
L 20.703125 5.796875 
L 8.90625 5.796875 
L 8.90625 0 
L 40.203125 0 
L 40.203125 5.796875 
L 28.40625 5.796875 
z
" id="CMSS17-49"/>
        <path d="M 6.796875 2.6875 
C 9.59375 0.296875 13.203125 -2 19.296875 -2 
C 31.40625 -2 43 11.53125 43 33.375 
C 43 62.296875 30.5 67 23.796875 67 
C 17.09375 67 12.796875 63.984375 9.09375 59.203125 
C 4.703125 53.71875 3.90625 48.828125 3.90625 43.140625 
C 3.90625 36.359375 5.09375 32.171875 7.90625 27.390625 
C 11.703125 21.1875 15.203125 19.890625 19.09375 19.890625 
C 25 19.890625 30.90625 22.796875 34.90625 27.78125 
C 34.203125 14.1875 28.09375 4.1875 19.296875 4.1875 
C 15.703125 4.1875 12.796875 5.3125 9.90625 8.0625 
z
M 34.59375 43.34375 
C 34.703125 42.640625 34.703125 41.34375 34.703125 40.953125 
C 34.703125 32.578125 29.90625 26 22.90625 26 
C 18.296875 26 15.90625 28.390625 14.09375 31.484375 
C 11.90625 35.359375 11.796875 39.15625 11.796875 43.140625 
C 11.796875 47.03125 11.796875 51.3125 14.59375 55.609375 
C 16.703125 58.703125 19.296875 60.890625 23.796875 60.890625 
C 33 60.890625 34.5 47.4375 34.59375 43.34375 
z
" id="CMSS17-57"/>
       </defs>
       <use transform="scale(0.996264)" xlink:href="#CMSS17-118"/>
       <use transform="translate(76.727637 0)scale(0.996264)" xlink:href="#CMSS17-49"/>
       <use transform="translate(123.57126 0)scale(0.996264)" xlink:href="#CMSS17-57"/>
       <path d="M 48.621153 0 
L 76.727637 0 
L 76.727637 0.3985 
L 48.621153 0.3985 
L 48.621153 0 
z
"/>
      </g>
     </g>
    </g>
    <g id="xtick_4">
     <g id="line2d_4">
      <g>
       <use style="stroke:#000000;stroke-width:0.8;" x="89.947207" xlink:href="#m35d3f8607c" y="244.8"/>
      </g>
     </g>
     <g id="text_4">
      <!-- time -->
      <g transform="translate(92.021923 268.008931)rotate(-90)scale(0.0833 -0.0833)">
       <defs>
        <path d="M 16.703125 37.1875 
L 29.703125 37.1875 
L 29.703125 43 
L 16.703125 43 
L 16.703125 55 
L 9.59375 55 
L 9.59375 43 
L 1.703125 43 
L 1.703125 37.1875 
L 9.40625 37.1875 
L 9.40625 11.734375 
C 9.40625 6 10.703125 -1 17.296875 -1 
C 22.296875 -1 26.90625 0.390625 31.296875 2.6875 
L 29.703125 8.609375 
C 27.296875 6.5 24.40625 5.296875 21.296875 5.296875 
C 16.90625 5.296875 16.703125 10.921875 16.703125 13.4375 
z
" id="CMSS17-116"/>
        <path d="M 15.296875 66 
L 6.90625 66 
L 6.90625 57.59375 
L 15.296875 57.59375 
z
M 14.796875 43 
L 7.40625 43 
L 7.40625 0 
L 14.796875 0 
z
" id="CMSS17-105"/>
        <path d="M 67 29.34375 
C 67 36.078125 65.296875 44 54.09375 44 
C 46.59375 44 42.09375 39.296875 40.09375 36.375 
C 38.296875 41.6875 34.09375 44 28.09375 44 
C 21.296875 44 17 40.09375 14.703125 37.28125 
L 14.703125 43.484375 
L 7.40625 43.484375 
L 7.40625 0 
L 15 0 
L 15 24.3125 
C 15 30.25 17.203125 37.890625 24.296875 37.890625 
C 33.40625 37.890625 33.40625 31.453125 33.40625 28.53125 
L 33.40625 0 
L 41 0 
L 41 24.3125 
C 41 30.25 43.203125 37.890625 50.296875 37.890625 
C 59.40625 37.890625 59.40625 31.453125 59.40625 28.53125 
L 59.40625 0 
L 67 0 
z
" id="CMSS17-109"/>
        <path d="M 39.09375 21.484375 
C 39.09375 24.796875 38.90625 31.265625 35.703125 36.671875 
C 32.203125 42.390625 26.5 44 22.203125 44 
C 11.796875 44 3 34.125 3 21.296875 
C 3 9.046875 12.09375 -1 23.59375 -1 
C 28.09375 -1 33.59375 0.296875 38.59375 3.890625 
C 38.59375 4.296875 38.40625 6.46875 38.296875 6.578125 
C 38.296875 6.765625 38 9.828125 38 10.234375 
C 33.203125 6.375 27.703125 5.09375 23.703125 5.09375 
C 17.296875 5.09375 10.40625 10.421875 10.09375 21.484375 
z
M 10.90625 27 
C 12.203125 32.59375 16.59375 37.890625 22.203125 37.890625 
C 23.703125 37.890625 30.703125 37.6875 32.5 27 
z
" id="CMSS17-101"/>
       </defs>
       <use transform="scale(0.996264)" xlink:href="#CMSS17-116"/>
       <use transform="translate(33.831567 0)scale(0.996264)" xlink:href="#CMSS17-105"/>
       <use transform="translate(56.01229 0)scale(0.996264)" xlink:href="#CMSS17-109"/>
       <use transform="translate(130.241544 0)scale(0.996264)" xlink:href="#CMSS17-101"/>
      </g>
     </g>
    </g>
    <g id="xtick_5">
     <g id="line2d_5">
      <g>
       <use style="stroke:#000000;stroke-width:0.8;" x="97.740503" xlink:href="#m35d3f8607c" y="244.8"/>
      </g>
     </g>
     <g id="text_5">
      <!-- v\_29 -->
      <g transform="translate(99.815219 267.855074)rotate(-90)scale(0.0833 -0.0833)">
       <defs>
        <path d="M 25.796875 21.140625 
C 28.59375 24.03125 32.796875 27.515625 35.703125 31 
C 38.5 34.390625 42.203125 39.171875 42.203125 46.140625 
C 42.203125 57.109375 34.796875 67 22.203125 67 
C 12.296875 67 6.59375 60.796875 3.90625 51.125 
L 7.796875 45.75 
C 10 54.8125 13.09375 60.59375 20.90625 60.59375 
C 29.5 60.59375 34.296875 53.609375 34.296875 45.9375 
C 34.296875 36.78125 27.296875 29.703125 22 24.421875 
C 16.09375 18.546875 10.296875 12.578125 4.703125 6.390625 
L 4.703125 0 
L 42.203125 0 
L 42.203125 6.796875 
L 25.203125 6.796875 
C 24 6.796875 22.796875 6.6875 21.59375 6.6875 
L 11.59375 6.6875 
L 11.59375 6.796875 
z
" id="CMSS17-50"/>
       </defs>
       <use transform="scale(0.996264)" xlink:href="#CMSS17-118"/>
       <use transform="translate(76.727637 0)scale(0.996264)" xlink:href="#CMSS17-50"/>
       <use transform="translate(123.57126 0)scale(0.996264)" xlink:href="#CMSS17-57"/>
       <path d="M 48.621153 0 
L 76.727637 0 
L 76.727637 0.3985 
L 48.621153 0.3985 
L 48.621153 0 
z
"/>
      </g>
     </g>
    </g>
    <g id="xtick_6">
     <g id="line2d_6">
      <g>
       <use style="stroke:#000000;stroke-width:0.8;" x="105.533799" xlink:href="#m35d3f8607c" y="244.8"/>
      </g>
     </g>
     <g id="text_6">
      <!-- v\_28 -->
      <g transform="translate(107.608515 267.855074)rotate(-90)scale(0.0833 -0.0833)">
       <defs>
        <path d="M 30.203125 35.09375 
C 37.796875 37.59375 41.703125 43.640625 41.703125 49.59375 
C 41.703125 58.96875 33.703125 67 23.5 67 
C 12.90625 67 5.203125 58.671875 5.203125 49.59375 
C 5.203125 43.734375 9 37.6875 16.703125 35.09375 
C 6.90625 31.296875 3.90625 23.6875 3.90625 18 
C 3.90625 7 12.796875 -2 23.40625 -2 
C 34.40625 -2 43 7.1875 43 18 
C 43 24.59375 39.09375 31.59375 30.203125 35.09375 
z
M 23.5 38.09375 
C 16.796875 38.09375 12.296875 42.625 12.296875 49.484375 
C 12.296875 56.453125 16.796875 60.890625 23.5 60.890625 
C 29.703125 60.890625 34.59375 56.859375 34.59375 49.484375 
C 34.59375 42.234375 29.796875 38.09375 23.5 38.09375 
z
M 23.5 4.1875 
C 17.796875 4.1875 11.703125 8.09375 11.703125 18.09375 
C 11.703125 28.390625 18.5 32 23.40625 32 
C 28.796875 32 35.203125 28.1875 35.203125 18.09375 
C 35.203125 7.6875 28.59375 4.1875 23.5 4.1875 
z
" id="CMSS17-56"/>
       </defs>
       <use transform="scale(0.996264)" xlink:href="#CMSS17-118"/>
       <use transform="translate(76.727637 0)scale(0.996264)" xlink:href="#CMSS17-50"/>
       <use transform="translate(123.57126 0)scale(0.996264)" xlink:href="#CMSS17-56"/>
       <path d="M 48.621153 0 
L 76.727637 0 
L 76.727637 0.3985 
L 48.621153 0.3985 
L 48.621153 0 
z
"/>
      </g>
     </g>
    </g>
    <g id="xtick_7">
     <g id="line2d_7">
      <g>
       <use style="stroke:#000000;stroke-width:0.8;" x="113.327095" xlink:href="#m35d3f8607c" y="244.8"/>
      </g>
     </g>
     <g id="text_7">
      <!-- v\_17 -->
      <g transform="translate(115.401811 267.855074)rotate(-90)scale(0.0833 -0.0833)">
       <defs>
        <path d="M 21.703125 59.1875 
C 22.90625 59.1875 24.09375 59.296875 25.296875 59.296875 
L 36.796875 59.296875 
C 22.5 42.421875 14.296875 21.09375 14.296875 -1 
L 22.296875 -1 
C 22.296875 20.390625 29.296875 42.109375 43 59.484375 
L 43 66 
L 3.90625 66 
L 3.90625 59.1875 
z
" id="CMSS17-55"/>
       </defs>
       <use transform="scale(0.996264)" xlink:href="#CMSS17-118"/>
       <use transform="translate(76.727637 0)scale(0.996264)" xlink:href="#CMSS17-49"/>
       <use transform="translate(123.57126 0)scale(0.996264)" xlink:href="#CMSS17-55"/>
       <path d="M 48.621153 0 
L 76.727637 0 
L 76.727637 0.3985 
L 48.621153 0.3985 
L 48.621153 0 
z
"/>
      </g>
     </g>
    </g>
    <g id="xtick_8">
     <g id="line2d_8">
      <g>
       <use style="stroke:#000000;stroke-width:0.8;" x="121.120391" xlink:href="#m35d3f8607c" y="244.8"/>
      </g>
     </g>
     <g id="text_8">
      <!-- v\_25 -->
      <g transform="translate(123.195108 267.855074)rotate(-90)scale(0.0833 -0.0833)">
       <use transform="scale(0.996264)" xlink:href="#CMSS17-118"/>
       <use transform="translate(76.727637 0)scale(0.996264)" xlink:href="#CMSS17-50"/>
       <use transform="translate(123.57126 0)scale(0.996264)" xlink:href="#CMSS17-53"/>
       <path d="M 48.621153 0 
L 76.727637 0 
L 76.727637 0.3985 
L 48.621153 0.3985 
L 48.621153 0 
z
"/>
      </g>
     </g>
    </g>
    <g id="xtick_9">
     <g id="line2d_9">
      <g>
       <use style="stroke:#000000;stroke-width:0.8;" x="128.913687" xlink:href="#m35d3f8607c" y="244.8"/>
      </g>
     </g>
     <g id="text_9">
      <!-- v\_21 -->
      <g transform="translate(130.988404 267.855074)rotate(-90)scale(0.0833 -0.0833)">
       <use transform="scale(0.996264)" xlink:href="#CMSS17-118"/>
       <use transform="translate(76.727637 0)scale(0.996264)" xlink:href="#CMSS17-50"/>
       <use transform="translate(123.57126 0)scale(0.996264)" xlink:href="#CMSS17-49"/>
       <path d="M 48.621153 0 
L 76.727637 0 
L 76.727637 0.3985 
L 48.621153 0.3985 
L 48.621153 0 
z
"/>
      </g>
     </g>
    </g>
    <g id="xtick_10">
     <g id="line2d_10">
      <g>
       <use style="stroke:#000000;stroke-width:0.8;" x="136.706983" xlink:href="#m35d3f8607c" y="244.8"/>
      </g>
     </g>
     <g id="text_10">
      <!--  SOC -->
      <g transform="translate(138.7817 268.844649)rotate(-90)scale(0.0833 -0.0833)">
       <defs>
        <path d="M 43.703125 66.09375 
C 39.296875 68.6875 34.5 71 26.40625 71 
C 13.5 71 5.203125 61.46875 5.203125 51.703125 
C 5.203125 47.875 6.296875 43.546875 10.203125 39.125 
C 14.09375 34.6875 18.5 33.484375 24.09375 32.078125 
C 26.40625 31.46875 30.296875 30.359375 31 30.0625 
C 36.59375 27.84375 39.296875 22.71875 39.296875 17.875 
C 39.296875 11.53125 34.40625 4.796875 25.703125 4.796875 
C 22.703125 4.796875 13.90625 5.296875 5.59375 12.953125 
L 4.203125 5 
C 12.40625 -1 21.296875 -2 25.796875 -2 
C 38.09375 -2 46.90625 7.71875 46.90625 18.78125 
C 46.90625 22.8125 45.703125 27.953125 41.5 32.6875 
C 37.40625 37.203125 33.796875 38.21875 25.59375 40.4375 
C 20.90625 41.640625 17.90625 42.453125 15.40625 45.5625 
C 13.703125 47.78125 12.796875 49.890625 12.796875 52.609375 
C 12.796875 58.25 17.59375 64.390625 26.40625 64.390625 
C 30.796875 64.390625 36.5 63.484375 42.296875 58.046875 
z
" id="CMSS17-83"/>
        <path d="M 64 34.390625 
C 64 55.328125 50.296875 71 34.59375 71 
C 18.90625 71 5.203125 55.234375 5.203125 34.390625 
C 5.203125 13.359375 19.09375 -2 34.59375 -2 
C 50.09375 -2 64 13.359375 64 34.390625 
z
M 34.59375 4.296875 
C 23.59375 4.296875 13.59375 16.671875 13.59375 35.703125 
C 13.59375 54.21875 24.203125 64.6875 34.59375 64.6875 
C 45 64.6875 55.59375 54.21875 55.59375 35.703125 
C 55.59375 16.578125 45.5 4.296875 34.59375 4.296875 
z
" id="CMSS17-79"/>
        <path d="M 54.703125 11.015625 
C 48 6.5 44.90625 5.1875 36.796875 5.1875 
C 22.796875 5.1875 14.59375 20.375 14.59375 34.234375 
C 14.59375 49.015625 23 63.59375 37.203125 63.59375 
C 43.59375 63.59375 47.796875 61.78125 52.90625 58.5625 
L 54.296875 66.484375 
C 49.5 68.890625 43.40625 70 37.296875 70 
C 18.09375 70 6.203125 52.234375 6.203125 34.234375 
C 6.203125 14.4375 20.296875 -1.203125 36.296875 -1.203125 
C 44.90625 -1.203125 47.90625 -0.5 55.296875 4.1875 
z
" id="CMSS17-67"/>
       </defs>
       <use transform="scale(0.996264)" xlink:href="#CMSS17-83"/>
       <use transform="translate(52.048516 0)scale(0.996264)" xlink:href="#CMSS17-79"/>
       <use transform="translate(121.072772 0)scale(0.996264)" xlink:href="#CMSS17-67"/>
      </g>
     </g>
    </g>
    <g id="xtick_11">
     <g id="line2d_11">
      <g>
       <use style="stroke:#000000;stroke-width:0.8;" x="144.500279" xlink:href="#m35d3f8607c" y="244.8"/>
      </g>
     </g>
     <g id="text_11">
      <!-- v\_23 -->
      <g transform="translate(146.574996 267.855074)rotate(-90)scale(0.0833 -0.0833)">
       <defs>
        <path d="M 15.703125 32.1875 
L 22.5 32.1875 
C 31.90625 32.1875 34.59375 23.9375 34.59375 18.1875 
C 34.59375 10.34375 30.203125 4.1875 23 4.1875 
C 17.40625 4.1875 9.5 7.015625 5 14.46875 
C 4.296875 10.9375 4.296875 10.734375 3.90625 8.328125 
C 8.59375 1.390625 16.203125 -2 23.203125 -2 
C 34.59375 -2 43 7.515625 43 18.09375 
C 43 26.046875 37.5 32.6875 30 35.1875 
C 36 38.484375 40.40625 44.6875 40.40625 51.890625 
C 40.40625 60.296875 32.703125 67 23.296875 67 
C 14.703125 67 8 61.6875 5.203125 55.984375 
C 5.90625 54.984375 7.703125 52.09375 8.59375 50.59375 
C 10.796875 56.484375 16.5 60.890625 23.203125 60.890625 
C 28.796875 60.890625 32.5 57.1875 32.5 51.890625 
C 32.5 46.390625 29 40.390625 23.09375 39 
C 22.703125 39 16.5 38.390625 15.703125 38.296875 
z
" id="CMSS17-51"/>
       </defs>
       <use transform="scale(0.996264)" xlink:href="#CMSS17-118"/>
       <use transform="translate(76.727637 0)scale(0.996264)" xlink:href="#CMSS17-50"/>
       <use transform="translate(123.57126 0)scale(0.996264)" xlink:href="#CMSS17-51"/>
       <path d="M 48.621153 0 
L 76.727637 0 
L 76.727637 0.3985 
L 48.621153 0.3985 
L 48.621153 0 
z
"/>
      </g>
     </g>
    </g>
    <g id="xtick_12">
     <g id="line2d_12">
      <g>
       <use style="stroke:#000000;stroke-width:0.8;" x="152.293575" xlink:href="#m35d3f8607c" y="244.8"/>
      </g>
     </g>
     <g id="text_12">
      <!-- Loading -->
      <g transform="translate(154.368292 280.860822)rotate(-90)scale(0.0833 -0.0833)">
       <defs>
        <path d="M 26.09375 6.5 
C 24.90625 6.5 23.703125 6.390625 22.5 6.390625 
L 17.203125 6.390625 
L 17.203125 69 
L 8.796875 69 
L 8.796875 0 
L 46.90625 0 
L 46.90625 6.5 
z
" id="CMSS17-76"/>
        <path d="M 44.203125 21.1875 
C 44.203125 33.984375 34.703125 44 23.5 44 
C 12 44 2.703125 33.6875 2.703125 21.1875 
C 2.703125 8.5 12.296875 -1 23.40625 -1 
C 34.796875 -1 44.203125 8.796875 44.203125 21.1875 
z
M 23.5 5.296875 
C 16.40625 5.296875 10.296875 11.09375 10.296875 21.984375 
C 10.296875 33.59375 17.40625 37.890625 23.40625 37.890625 
C 29.90625 37.890625 36.59375 33.1875 36.59375 21.984375 
C 36.59375 10.6875 30.09375 5.296875 23.5 5.296875 
z
" id="CMSS17-111"/>
        <path d="M 37.59375 27.953125 
C 37.59375 37.484375 30.90625 44 21.90625 44 
C 17.5 44 12.703125 43.1875 7.203125 39.984375 
L 7.796875 33.328125 
C 10.296875 35.15625 14.59375 38.09375 21.796875 38.09375 
C 26.90625 38.09375 30 34.140625 30 27.84375 
L 30 24 
C 14 23.5 4 18.890625 4 11.109375 
C 4 7.0625 6.5 -1 14.796875 -1 
C 16.296875 -1 24.40625 -0.8125 30.203125 3.5 
L 30.203125 -0.203125 
L 37.59375 -0.203125 
z
M 30 12.875 
C 30 11.109375 30 8.734375 27 6.96875 
C 24.40625 5.296875 21.09375 5.09375 19.703125 5.09375 
C 14.703125 5.09375 11.296875 7.859375 11.296875 11.296875 
C 11.296875 18.203125 26.90625 18.890625 30 19 
z
" id="CMSS17-97"/>
        <path d="M 40.796875 69 
L 33.40625 69 
L 33.40625 38.984375 
C 30.296875 41.59375 25.203125 44 19.59375 44 
C 10.5 44 3.296875 34.046875 3.296875 21.484375 
C 3.296875 8.9375 10.40625 -1 19.296875 -1 
C 26.203125 -1 30.796875 2.6875 33.203125 4.796875 
L 33.203125 -0.203125 
L 40.796875 -0.203125 
z
M 33.203125 13.296875 
C 33.203125 11.875 33.203125 10.359375 30.09375 7.625 
C 28.09375 5.90625 25.703125 5.09375 23.40625 5.09375 
C 18 5.09375 10.90625 9.140625 10.90625 21.390625 
C 10.90625 34.140625 18.90625 37.890625 24.40625 37.890625 
C 28.09375 37.890625 31.09375 36.0625 33.203125 33.03125 
z
" id="CMSS17-100"/>
        <path d="M 40.90625 29.34375 
C 40.90625 35.671875 39.40625 44 28.09375 44 
C 21.703125 44 17.5 40.6875 14.703125 37.28125 
L 14.703125 43.484375 
L 7.40625 43.484375 
L 7.40625 0 
L 15 0 
L 15 24.3125 
C 15 30.65625 17.40625 37.890625 24.203125 37.890625 
C 33 37.890625 33.296875 31.953125 33.296875 28.53125 
L 33.296875 0 
L 40.90625 0 
z
" id="CMSS17-110"/>
        <path d="M 44.5 44 
C 38.796875 43.890625 33.90625 42.796875 29.90625 40.890625 
C 26.59375 43.484375 23.203125 44 20.90625 44 
C 12.203125 44 5.59375 36.8125 5.59375 28.5 
C 5.59375 23.140625 8.59375 19.09375 8.796875 18.890625 
C 7 16.390625 6 13.6875 6 10.6875 
C 6 7.1875 7.40625 4.6875 8.5 3.296875 
C 3.296875 0.09375 2.59375 -4.8125 2.59375 -6.703125 
C 2.59375 -14 11.703125 -20 23.40625 -20 
C 35.203125 -20 44.296875 -14 44.296875 -6.609375 
C 44.296875 7.1875 29 7.296875 24.796875 7.296875 
L 16.703125 7.296875 
C 15.203125 7.296875 11.203125 7.296875 11.203125 12.390625 
C 11.203125 14.390625 12.09375 15.6875 12.203125 15.796875 
C 13.703125 14.6875 16.796875 13 20.90625 13 
C 29.203125 13 36.09375 19.984375 36.09375 28.5 
C 36.09375 33.25 33.90625 36.703125 33 37.890625 
L 33.296875 37.890625 
C 33.59375 37.890625 37.796875 38.1875 39.296875 38.1875 
C 42.5 38.1875 42.796875 38.09375 45.59375 37.796875 
z
M 20.90625 18.5 
C 17.5 18.5 12.703125 20.578125 12.703125 28.5 
C 12.703125 37.109375 18.203125 38.484375 20.796875 38.484375 
C 24.203125 38.484375 29 36.40625 29 28.5 
C 29 19.875 23.5 18.5 20.90625 18.5 
z
M 24.703125 0 
C 27.09375 0 37.203125 0 37.203125 -6.8125 
C 37.203125 -11.109375 31 -14.5 23.5 -14.5 
C 15.90625 -14.5 9.703125 -11.203125 9.703125 -6.703125 
C 9.703125 -6.203125 9.703125 0 16.59375 0 
z
" id="CMSS17-103"/>
       </defs>
       <use transform="scale(0.996264)" xlink:href="#CMSS17-76"/>
       <use transform="translate(50.687105 0)scale(0.996264)" xlink:href="#CMSS17-111"/>
       <use transform="translate(97.530729 0)scale(0.996264)" xlink:href="#CMSS17-97"/>
       <use transform="translate(142.452649 0)scale(0.996264)" xlink:href="#CMSS17-100"/>
       <use transform="translate(190.657593 0)scale(0.996264)" xlink:href="#CMSS17-105"/>
       <use transform="translate(212.838316 0)scale(0.996264)" xlink:href="#CMSS17-110"/>
       <use transform="translate(261.043259 0)scale(0.996264)" xlink:href="#CMSS17-103"/>
      </g>
     </g>
    </g>
    <g id="xtick_13">
     <g id="line2d_13">
      <g>
       <use style="stroke:#000000;stroke-width:0.8;" x="160.086872" xlink:href="#m35d3f8607c" y="244.8"/>
      </g>
     </g>
     <g id="text_13">
      <!-- v\_30 -->
      <g transform="translate(162.161588 267.855074)rotate(-90)scale(0.0833 -0.0833)">
       <defs>
        <path d="M 43.09375 32.390625 
C 43.09375 38.109375 43 48.75 38.90625 56.984375 
C 34.796875 64.890625 28.203125 67 23.5 67 
C 16.703125 67 10.90625 62.984375 7.90625 56.578125 
C 4.703125 49.859375 3.796875 42.9375 3.796875 32.390625 
C 3.796875 25.171875 4.09375 16.34375 7.703125 8.609375 
C 11.796875 0.09375 18.703125 -2 23.40625 -2 
C 29.59375 -2 35.59375 1.296875 39 8.203125 
C 42.5 15.4375 43.09375 23.359375 43.09375 32.390625 
z
M 23.40625 4.09375 
C 15.796875 4.09375 13.5 12.828125 12.796875 15.734375 
C 11.59375 20.75 11.40625 25.5625 11.40625 33.5 
C 11.40625 39.71875 11.40625 46.75 13.296875 52.265625 
C 15.59375 58.6875 19.59375 60.890625 23.40625 60.890625 
C 30.796875 60.890625 33.203125 53.46875 34 50.859375 
C 35.5 45.546875 35.5 39.3125 35.5 33.5 
C 35.5 24.15625 35.5 4.09375 23.40625 4.09375 
z
" id="CMSS17-48"/>
       </defs>
       <use transform="scale(0.996264)" xlink:href="#CMSS17-118"/>
       <use transform="translate(76.727637 0)scale(0.996264)" xlink:href="#CMSS17-51"/>
       <use transform="translate(123.57126 0)scale(0.996264)" xlink:href="#CMSS17-48"/>
       <path d="M 48.621153 0 
L 76.727637 0 
L 76.727637 0.3985 
L 48.621153 0.3985 
L 48.621153 0 
z
"/>
      </g>
     </g>
    </g>
    <g id="xtick_14">
     <g id="line2d_14">
      <g>
       <use style="stroke:#000000;stroke-width:0.8;" x="167.880168" xlink:href="#m35d3f8607c" y="244.8"/>
      </g>
     </g>
     <g id="text_14">
      <!-- v\_12 -->
      <g transform="translate(169.954884 267.855074)rotate(-90)scale(0.0833 -0.0833)">
       <use transform="scale(0.996264)" xlink:href="#CMSS17-118"/>
       <use transform="translate(76.727637 0)scale(0.996264)" xlink:href="#CMSS17-49"/>
       <use transform="translate(123.57126 0)scale(0.996264)" xlink:href="#CMSS17-50"/>
       <path d="M 48.621153 0 
L 76.727637 0 
L 76.727637 0.3985 
L 48.621153 0.3985 
L 48.621153 0 
z
"/>
      </g>
     </g>
    </g>
    <g id="xtick_15">
     <g id="line2d_15">
      <g>
       <use style="stroke:#000000;stroke-width:0.8;" x="175.673464" xlink:href="#m35d3f8607c" y="244.8"/>
      </g>
     </g>
     <g id="text_15">
      <!-- v\_8 -->
      <g transform="translate(177.74818 263.446237)rotate(-90)scale(0.0833 -0.0833)">
       <use transform="scale(0.996264)" xlink:href="#CMSS17-118"/>
       <use transform="translate(76.727637 0)scale(0.996264)" xlink:href="#CMSS17-56"/>
       <path d="M 48.621153 0 
L 76.727637 0 
L 76.727637 0.3985 
L 48.621153 0.3985 
L 48.621153 0 
z
"/>
      </g>
     </g>
    </g>
    <g id="xtick_16">
     <g id="line2d_16">
      <g>
       <use style="stroke:#000000;stroke-width:0.8;" x="183.46676" xlink:href="#m35d3f8607c" y="244.8"/>
      </g>
     </g>
     <g id="text_16">
      <!-- v\_7 -->
      <g transform="translate(185.541476 263.446237)rotate(-90)scale(0.0833 -0.0833)">
       <use transform="scale(0.996264)" xlink:href="#CMSS17-118"/>
       <use transform="translate(76.727637 0)scale(0.996264)" xlink:href="#CMSS17-55"/>
       <path d="M 48.621153 0 
L 76.727637 0 
L 76.727637 0.3985 
L 48.621153 0.3985 
L 48.621153 0 
z
"/>
      </g>
     </g>
    </g>
    <g id="xtick_17">
     <g id="line2d_17">
      <g>
       <use style="stroke:#000000;stroke-width:0.8;" x="191.260056" xlink:href="#m35d3f8607c" y="244.8"/>
      </g>
     </g>
     <g id="text_17">
      <!-- v\_4 -->
      <g transform="translate(193.334772 263.446237)rotate(-90)scale(0.0833 -0.0833)">
       <defs>
        <path d="M 35.203125 17 
L 44.296875 17 
L 44.296875 23.09375 
L 35.203125 23.09375 
L 35.203125 66 
L 26.40625 66 
L 2.59375 23.09375 
L 2.59375 17 
L 27.296875 17 
L 27.296875 0 
L 35.203125 0 
z
M 10.296875 23.09375 
C 16.09375 33.421875 27.59375 54.28125 27.59375 61.359375 
L 27.59375 23.09375 
z
" id="CMSS17-52"/>
       </defs>
       <use transform="scale(0.996264)" xlink:href="#CMSS17-118"/>
       <use transform="translate(76.727637 0)scale(0.996264)" xlink:href="#CMSS17-52"/>
       <path d="M 48.621153 0 
L 76.727637 0 
L 76.727637 0.3985 
L 48.621153 0.3985 
L 48.621153 0 
z
"/>
      </g>
     </g>
    </g>
    <g id="xtick_18">
     <g id="line2d_18">
      <g>
       <use style="stroke:#000000;stroke-width:0.8;" x="199.053352" xlink:href="#m35d3f8607c" y="244.8"/>
      </g>
     </g>
     <g id="text_18">
      <!-- v\_16 -->
      <g transform="translate(201.128068 267.855074)rotate(-90)scale(0.0833 -0.0833)">
       <use transform="scale(0.996264)" xlink:href="#CMSS17-118"/>
       <use transform="translate(76.727637 0)scale(0.996264)" xlink:href="#CMSS17-49"/>
       <use transform="translate(123.57126 0)scale(0.996264)" xlink:href="#CMSS17-54"/>
       <path d="M 48.621153 0 
L 76.727637 0 
L 76.727637 0.3985 
L 48.621153 0.3985 
L 48.621153 0 
z
"/>
      </g>
     </g>
    </g>
    <g id="xtick_19">
     <g id="line2d_19">
      <g>
       <use style="stroke:#000000;stroke-width:0.8;" x="206.846648" xlink:href="#m35d3f8607c" y="244.8"/>
      </g>
     </g>
     <g id="text_19">
      <!-- v\_18 -->
      <g transform="translate(208.921365 267.855074)rotate(-90)scale(0.0833 -0.0833)">
       <use transform="scale(0.996264)" xlink:href="#CMSS17-118"/>
       <use transform="translate(76.727637 0)scale(0.996264)" xlink:href="#CMSS17-49"/>
       <use transform="translate(123.57126 0)scale(0.996264)" xlink:href="#CMSS17-56"/>
       <path d="M 48.621153 0 
L 76.727637 0 
L 76.727637 0.3985 
L 48.621153 0.3985 
L 48.621153 0 
z
"/>
      </g>
     </g>
    </g>
    <g id="xtick_20">
     <g id="line2d_20">
      <g>
       <use style="stroke:#000000;stroke-width:0.8;" x="214.639944" xlink:href="#m35d3f8607c" y="244.8"/>
      </g>
     </g>
     <g id="text_20">
      <!-- v\_15 -->
      <g transform="translate(216.714661 267.855074)rotate(-90)scale(0.0833 -0.0833)">
       <use transform="scale(0.996264)" xlink:href="#CMSS17-118"/>
       <use transform="translate(76.727637 0)scale(0.996264)" xlink:href="#CMSS17-49"/>
       <use transform="translate(123.57126 0)scale(0.996264)" xlink:href="#CMSS17-53"/>
       <path d="M 48.621153 0 
L 76.727637 0 
L 76.727637 0.3985 
L 48.621153 0.3985 
L 48.621153 0 
z
"/>
      </g>
     </g>
    </g>
    <g id="xtick_21">
     <g id="line2d_21">
      <g>
       <use style="stroke:#000000;stroke-width:0.8;" x="222.43324" xlink:href="#m35d3f8607c" y="244.8"/>
      </g>
     </g>
     <g id="text_21">
      <!-- v\_20 -->
      <g transform="translate(224.507957 267.855074)rotate(-90)scale(0.0833 -0.0833)">
       <use transform="scale(0.996264)" xlink:href="#CMSS17-118"/>
       <use transform="translate(76.727637 0)scale(0.996264)" xlink:href="#CMSS17-50"/>
       <use transform="translate(123.57126 0)scale(0.996264)" xlink:href="#CMSS17-48"/>
       <path d="M 48.621153 0 
L 76.727637 0 
L 76.727637 0.3985 
L 48.621153 0.3985 
L 48.621153 0 
z
"/>
      </g>
     </g>
    </g>
    <g id="xtick_22">
     <g id="line2d_22">
      <g>
       <use style="stroke:#000000;stroke-width:0.8;" x="230.226536" xlink:href="#m35d3f8607c" y="244.8"/>
      </g>
     </g>
     <g id="text_22">
      <!-- v\_2 -->
      <g transform="translate(232.301253 263.446237)rotate(-90)scale(0.0833 -0.0833)">
       <use transform="scale(0.996264)" xlink:href="#CMSS17-118"/>
       <use transform="translate(76.727637 0)scale(0.996264)" xlink:href="#CMSS17-50"/>
       <path d="M 48.621153 0 
L 76.727637 0 
L 76.727637 0.3985 
L 48.621153 0.3985 
L 48.621153 0 
z
"/>
      </g>
     </g>
    </g>
    <g id="xtick_23">
     <g id="line2d_23">
      <g>
       <use style="stroke:#000000;stroke-width:0.8;" x="238.019832" xlink:href="#m35d3f8607c" y="244.8"/>
      </g>
     </g>
     <g id="text_23">
      <!-- v\_13 -->
      <g transform="translate(240.094549 267.855074)rotate(-90)scale(0.0833 -0.0833)">
       <use transform="scale(0.996264)" xlink:href="#CMSS17-118"/>
       <use transform="translate(76.727637 0)scale(0.996264)" xlink:href="#CMSS17-49"/>
       <use transform="translate(123.57126 0)scale(0.996264)" xlink:href="#CMSS17-51"/>
       <path d="M 48.621153 0 
L 76.727637 0 
L 76.727637 0.3985 
L 48.621153 0.3985 
L 48.621153 0 
z
"/>
      </g>
     </g>
    </g>
    <g id="xtick_24">
     <g id="line2d_24">
      <g>
       <use style="stroke:#000000;stroke-width:0.8;" x="245.813128" xlink:href="#m35d3f8607c" y="244.8"/>
      </g>
     </g>
     <g id="text_24">
      <!-- v\_14 -->
      <g transform="translate(247.887845 267.855074)rotate(-90)scale(0.0833 -0.0833)">
       <use transform="scale(0.996264)" xlink:href="#CMSS17-118"/>
       <use transform="translate(76.727637 0)scale(0.996264)" xlink:href="#CMSS17-49"/>
       <use transform="translate(123.57126 0)scale(0.996264)" xlink:href="#CMSS17-52"/>
       <path d="M 48.621153 0 
L 76.727637 0 
L 76.727637 0.3985 
L 48.621153 0.3985 
L 48.621153 0 
z
"/>
      </g>
     </g>
    </g>
    <g id="xtick_25">
     <g id="line2d_25">
      <g>
       <use style="stroke:#000000;stroke-width:0.8;" x="253.606425" xlink:href="#m35d3f8607c" y="244.8"/>
      </g>
     </g>
     <g id="text_25">
      <!-- v\_33 -->
      <g transform="translate(255.681141 267.855074)rotate(-90)scale(0.0833 -0.0833)">
       <use transform="scale(0.996264)" xlink:href="#CMSS17-118"/>
       <use transform="translate(76.727637 0)scale(0.996264)" xlink:href="#CMSS17-51"/>
       <use transform="translate(123.57126 0)scale(0.996264)" xlink:href="#CMSS17-51"/>
       <path d="M 48.621153 0 
L 76.727637 0 
L 76.727637 0.3985 
L 48.621153 0.3985 
L 48.621153 0 
z
"/>
      </g>
     </g>
    </g>
    <g id="xtick_26">
     <g id="line2d_26">
      <g>
       <use style="stroke:#000000;stroke-width:0.8;" x="261.399721" xlink:href="#m35d3f8607c" y="244.8"/>
      </g>
     </g>
     <g id="text_26">
      <!-- v\_22 -->
      <g transform="translate(263.474437 267.855074)rotate(-90)scale(0.0833 -0.0833)">
       <use transform="scale(0.996264)" xlink:href="#CMSS17-118"/>
       <use transform="translate(76.727637 0)scale(0.996264)" xlink:href="#CMSS17-50"/>
       <use transform="translate(123.57126 0)scale(0.996264)" xlink:href="#CMSS17-50"/>
       <path d="M 48.621153 0 
L 76.727637 0 
L 76.727637 0.3985 
L 48.621153 0.3985 
L 48.621153 0 
z
"/>
      </g>
     </g>
    </g>
    <g id="xtick_27">
     <g id="line2d_27">
      <g>
       <use style="stroke:#000000;stroke-width:0.8;" x="269.193017" xlink:href="#m35d3f8607c" y="244.8"/>
      </g>
     </g>
     <g id="text_27">
      <!-- v\_31 -->
      <g transform="translate(271.267733 267.855074)rotate(-90)scale(0.0833 -0.0833)">
       <use transform="scale(0.996264)" xlink:href="#CMSS17-118"/>
       <use transform="translate(76.727637 0)scale(0.996264)" xlink:href="#CMSS17-51"/>
       <use transform="translate(123.57126 0)scale(0.996264)" xlink:href="#CMSS17-49"/>
       <path d="M 48.621153 0 
L 76.727637 0 
L 76.727637 0.3985 
L 48.621153 0.3985 
L 48.621153 0 
z
"/>
      </g>
     </g>
    </g>
    <g id="xtick_28">
     <g id="line2d_28">
      <g>
       <use style="stroke:#000000;stroke-width:0.8;" x="276.986313" xlink:href="#m35d3f8607c" y="244.8"/>
      </g>
     </g>
     <g id="text_28">
      <!-- v\_34 -->
      <g transform="translate(279.061029 267.855074)rotate(-90)scale(0.0833 -0.0833)">
       <use transform="scale(0.996264)" xlink:href="#CMSS17-118"/>
       <use transform="translate(76.727637 0)scale(0.996264)" xlink:href="#CMSS17-51"/>
       <use transform="translate(123.57126 0)scale(0.996264)" xlink:href="#CMSS17-52"/>
       <path d="M 48.621153 0 
L 76.727637 0 
L 76.727637 0.3985 
L 48.621153 0.3985 
L 48.621153 0 
z
"/>
      </g>
     </g>
    </g>
    <g id="xtick_29">
     <g id="line2d_29">
      <g>
       <use style="stroke:#000000;stroke-width:0.8;" x="284.779609" xlink:href="#m35d3f8607c" y="244.8"/>
      </g>
     </g>
     <g id="text_29">
      <!-- v\_3 -->
      <g transform="translate(286.854325 263.446237)rotate(-90)scale(0.0833 -0.0833)">
       <use transform="scale(0.996264)" xlink:href="#CMSS17-118"/>
       <use transform="translate(76.727637 0)scale(0.996264)" xlink:href="#CMSS17-51"/>
       <path d="M 48.621153 0 
L 76.727637 0 
L 76.727637 0.3985 
L 48.621153 0.3985 
L 48.621153 0 
z
"/>
      </g>
     </g>
    </g>
    <g id="xtick_30">
     <g id="line2d_30">
      <g>
       <use style="stroke:#000000;stroke-width:0.8;" x="292.572905" xlink:href="#m35d3f8607c" y="244.8"/>
      </g>
     </g>
     <g id="text_30">
      <!-- v\_9 -->
      <g transform="translate(294.647621 263.446237)rotate(-90)scale(0.0833 -0.0833)">
       <use transform="scale(0.996264)" xlink:href="#CMSS17-118"/>
       <use transform="translate(76.727637 0)scale(0.996264)" xlink:href="#CMSS17-57"/>
       <path d="M 48.621153 0 
L 76.727637 0 
L 76.727637 0.3985 
L 48.621153 0.3985 
L 48.621153 0 
z
"/>
      </g>
     </g>
    </g>
    <g id="xtick_31">
     <g id="line2d_31">
      <g>
       <use style="stroke:#000000;stroke-width:0.8;" x="300.366201" xlink:href="#m35d3f8607c" y="244.8"/>
      </g>
     </g>
     <g id="text_31">
      <!-- v\_10 -->
      <g transform="translate(302.440918 267.855074)rotate(-90)scale(0.0833 -0.0833)">
       <use transform="scale(0.996264)" xlink:href="#CMSS17-118"/>
       <use transform="translate(76.727637 0)scale(0.996264)" xlink:href="#CMSS17-49"/>
       <use transform="translate(123.57126 0)scale(0.996264)" xlink:href="#CMSS17-48"/>
       <path d="M 48.621153 0 
L 76.727637 0 
L 76.727637 0.3985 
L 48.621153 0.3985 
L 48.621153 0 
z
"/>
      </g>
     </g>
    </g>
    <g id="xtick_32">
     <g id="line2d_32">
      <g>
       <use style="stroke:#000000;stroke-width:0.8;" x="308.159497" xlink:href="#m35d3f8607c" y="244.8"/>
      </g>
     </g>
     <g id="text_32">
      <!-- v\_32 -->
      <g transform="translate(310.234214 267.855074)rotate(-90)scale(0.0833 -0.0833)">
       <use transform="scale(0.996264)" xlink:href="#CMSS17-118"/>
       <use transform="translate(76.727637 0)scale(0.996264)" xlink:href="#CMSS17-51"/>
       <use transform="translate(123.57126 0)scale(0.996264)" xlink:href="#CMSS17-50"/>
       <path d="M 48.621153 0 
L 76.727637 0 
L 76.727637 0.3985 
L 48.621153 0.3985 
L 48.621153 0 
z
"/>
      </g>
     </g>
    </g>
    <g id="xtick_33">
     <g id="line2d_33">
      <g>
       <use style="stroke:#000000;stroke-width:0.8;" x="315.952793" xlink:href="#m35d3f8607c" y="244.8"/>
      </g>
     </g>
     <g id="text_33">
      <!-- v\_27 -->
      <g transform="translate(318.02751 267.855074)rotate(-90)scale(0.0833 -0.0833)">
       <use transform="scale(0.996264)" xlink:href="#CMSS17-118"/>
       <use transform="translate(76.727637 0)scale(0.996264)" xlink:href="#CMSS17-50"/>
       <use transform="translate(123.57126 0)scale(0.996264)" xlink:href="#CMSS17-55"/>
       <path d="M 48.621153 0 
L 76.727637 0 
L 76.727637 0.3985 
L 48.621153 0.3985 
L 48.621153 0 
z
"/>
      </g>
     </g>
    </g>
    <g id="xtick_34">
     <g id="line2d_34">
      <g>
       <use style="stroke:#000000;stroke-width:0.8;" x="323.746089" xlink:href="#m35d3f8607c" y="244.8"/>
      </g>
     </g>
     <g id="text_34">
      <!-- v\_26 -->
      <g transform="translate(325.820806 267.855074)rotate(-90)scale(0.0833 -0.0833)">
       <use transform="scale(0.996264)" xlink:href="#CMSS17-118"/>
       <use transform="translate(76.727637 0)scale(0.996264)" xlink:href="#CMSS17-50"/>
       <use transform="translate(123.57126 0)scale(0.996264)" xlink:href="#CMSS17-54"/>
       <path d="M 48.621153 0 
L 76.727637 0 
L 76.727637 0.3985 
L 48.621153 0.3985 
L 48.621153 0 
z
"/>
      </g>
     </g>
    </g>
    <g id="xtick_35">
     <g id="line2d_35">
      <g>
       <use style="stroke:#000000;stroke-width:0.8;" x="331.539385" xlink:href="#m35d3f8607c" y="244.8"/>
      </g>
     </g>
     <g id="text_35">
      <!-- v\_24 -->
      <g transform="translate(333.614102 267.855074)rotate(-90)scale(0.0833 -0.0833)">
       <use transform="scale(0.996264)" xlink:href="#CMSS17-118"/>
       <use transform="translate(76.727637 0)scale(0.996264)" xlink:href="#CMSS17-50"/>
       <use transform="translate(123.57126 0)scale(0.996264)" xlink:href="#CMSS17-52"/>
       <path d="M 48.621153 0 
L 76.727637 0 
L 76.727637 0.3985 
L 48.621153 0.3985 
L 48.621153 0 
z
"/>
      </g>
     </g>
    </g>
    <g id="xtick_36">
     <g id="line2d_36">
      <g>
       <use style="stroke:#000000;stroke-width:0.8;" x="339.332682" xlink:href="#m35d3f8607c" y="244.8"/>
      </g>
     </g>
     <g id="text_36">
      <!-- v\_11 -->
      <g transform="translate(341.407398 267.855074)rotate(-90)scale(0.0833 -0.0833)">
       <use transform="scale(0.996264)" xlink:href="#CMSS17-118"/>
       <use transform="translate(76.727637 0)scale(0.996264)" xlink:href="#CMSS17-49"/>
       <use transform="translate(123.57126 0)scale(0.996264)" xlink:href="#CMSS17-49"/>
       <path d="M 48.621153 0 
L 76.727637 0 
L 76.727637 0.3985 
L 48.621153 0.3985 
L 48.621153 0 
z
"/>
      </g>
     </g>
    </g>
   </g>
   <g id="matplotlib.axis_2">
    <g id="ytick_1">
     <g id="line2d_37">
      <defs>
       <path d="M 0 0 
L -3.5 0 
" id="mcc9a0484a6" style="stroke:#000000;stroke-width:0.8;"/>
      </defs>
      <g>
       <use style="stroke:#000000;stroke-width:0.8;" x="49.5" xlink:href="#mcc9a0484a6" y="244.8"/>
      </g>
     </g>
     <g id="text_37">
      <!-- $\mathdefault{0.0}$ -->
      <g transform="translate(29.769921 248.259249)scale(0.1 -0.1)">
       <defs>
        <path d="M 42 31.84375 
C 42 37.96875 41.90625 48.421875 37.703125 56.453125 
C 34 63.484375 28.09375 66 22.90625 66 
C 18.09375 66 12 63.78125 8.203125 56.5625 
C 4.203125 49.015625 3.796875 39.671875 3.796875 31.84375 
C 3.796875 26.109375 3.90625 17.375 7 9.734375 
C 11.296875 -0.609375 19 -2 22.90625 -2 
C 27.5 -2 34.5 -0.109375 38.59375 9.4375 
C 41.59375 16.375 42 24.5 42 31.84375 
z
M 22.90625 -0.40625 
C 16.5 -0.40625 12.703125 5.125 11.296875 12.75 
C 10.203125 18.6875 10.203125 27.328125 10.203125 32.953125 
C 10.203125 40.6875 10.203125 47.109375 11.5 53.234375 
C 13.40625 61.78125 19 64.390625 22.90625 64.390625 
C 27 64.390625 32.296875 61.671875 34.203125 53.4375 
C 35.5 47.71875 35.59375 40.984375 35.59375 32.953125 
C 35.59375 26.421875 35.59375 18.375 34.40625 12.453125 
C 32.296875 1.5 26.40625 -0.40625 22.90625 -0.40625 
z
" id="CMR17-48"/>
        <path d="M 18.40625 4.796875 
C 18.40625 7.6875 16 9.6875 13.59375 9.6875 
C 10.703125 9.6875 8.703125 7.296875 8.703125 4.890625 
C 8.703125 2 11.09375 0 13.5 0 
C 16.40625 0 18.40625 2.390625 18.40625 4.796875 
z
" id="CMMI12-58"/>
       </defs>
       <use transform="scale(0.996264)" xlink:href="#CMR17-48"/>
       <use transform="translate(45.690477 0)scale(0.996264)" xlink:href="#CMMI12-58"/>
       <use transform="translate(72.787654 0)scale(0.996264)" xlink:href="#CMR17-48"/>
      </g>
     </g>
    </g>
    <g id="ytick_2">
     <g id="line2d_38">
      <g>
       <use style="stroke:#000000;stroke-width:0.8;" x="49.5" xlink:href="#mcc9a0484a6" y="208.116638"/>
      </g>
     </g>
     <g id="text_38">
      <!-- $\mathdefault{0.1}$ -->
      <g transform="translate(29.769921 211.575887)scale(0.1 -0.1)">
       <defs>
        <path d="M 26.59375 63.796875 
C 26.59375 65.890625 26.5 66 25.09375 66 
C 21.203125 61.359375 15.296875 59.890625 9.703125 59.6875 
C 9.40625 59.6875 8.90625 59.6875 8.796875 59.5 
C 8.703125 59.296875 8.703125 59.09375 8.703125 57 
C 11.796875 57 17 57.59375 21 59.984375 
L 21 7.296875 
C 21 3.796875 20.796875 2.59375 12.203125 2.59375 
L 9.203125 2.59375 
L 9.203125 0 
C 14 0.09375 19 0.1875 23.796875 0.1875 
C 28.59375 0.1875 33.59375 0.09375 38.40625 0 
L 38.40625 2.59375 
L 35.40625 2.59375 
C 26.796875 2.59375 26.59375 3.6875 26.59375 7.296875 
z
" id="CMR17-49"/>
       </defs>
       <use transform="scale(0.996264)" xlink:href="#CMR17-48"/>
       <use transform="translate(45.690477 0)scale(0.996264)" xlink:href="#CMMI12-58"/>
       <use transform="translate(72.787654 0)scale(0.996264)" xlink:href="#CMR17-49"/>
      </g>
     </g>
    </g>
    <g id="ytick_3">
     <g id="line2d_39">
      <g>
       <use style="stroke:#000000;stroke-width:0.8;" x="49.5" xlink:href="#mcc9a0484a6" y="171.433276"/>
      </g>
     </g>
     <g id="text_39">
      <!-- $\mathdefault{0.2}$ -->
      <g transform="translate(29.769921 174.892525)scale(0.1 -0.1)">
       <defs>
        <path d="M 41.703125 15.46875 
L 39.90625 15.46875 
C 38.90625 8.390625 38.09375 7.1875 37.703125 6.59375 
C 37.203125 5.796875 30 5.796875 28.59375 5.796875 
L 9.40625 5.796875 
C 13 9.6875 20 16.765625 28.5 24.9375 
C 34.59375 30.71875 41.703125 37.5 41.703125 47.390625 
C 41.703125 59.1875 32.296875 66 21.796875 66 
C 10.796875 66 4.09375 56.296875 4.09375 47.296875 
C 4.09375 43.390625 7 42.890625 8.203125 42.890625 
C 9.203125 42.890625 12.203125 43.484375 12.203125 46.984375 
C 12.203125 50.09375 9.59375 51 8.203125 51 
C 7.59375 51 7 50.890625 6.59375 50.6875 
C 8.5 59.1875 14.296875 63.390625 20.40625 63.390625 
C 29.09375 63.390625 34.796875 56.5 34.796875 47.390625 
C 34.796875 38.703125 29.703125 31.21875 24 24.734375 
L 4.09375 2.296875 
L 4.09375 0 
L 39.296875 0 
z
" id="CMR17-50"/>
       </defs>
       <use transform="scale(0.996264)" xlink:href="#CMR17-48"/>
       <use transform="translate(45.690477 0)scale(0.996264)" xlink:href="#CMMI12-58"/>
       <use transform="translate(72.787654 0)scale(0.996264)" xlink:href="#CMR17-50"/>
      </g>
     </g>
    </g>
    <g id="ytick_4">
     <g id="line2d_40">
      <g>
       <use style="stroke:#000000;stroke-width:0.8;" x="49.5" xlink:href="#mcc9a0484a6" y="134.749914"/>
      </g>
     </g>
     <g id="text_40">
      <!-- $\mathdefault{0.3}$ -->
      <g transform="translate(29.769921 138.209164)scale(0.1 -0.1)">
       <defs>
        <path d="M 22.09375 34 
C 31 34 34.90625 26.140625 34.90625 17.09375 
C 34.90625 5.03125 28.5 0.390625 22.703125 0.390625 
C 17.40625 0.390625 8.796875 3.015625 6.09375 10.796875 
C 6.59375 10.59375 7.09375 10.59375 7.59375 10.59375 
C 10 10.59375 11.796875 12.1875 11.796875 14.796875 
C 11.796875 17.6875 9.59375 19 7.59375 19 
C 5.90625 19 3.296875 18.1875 3.296875 14.484375 
C 3.296875 5.234375 12.296875 -2 22.90625 -2 
C 34 -2 42.5 6.75 42.5 16.984375 
C 42.5 26.84375 34.5 34 25 35.09375 
C 32.59375 36.671875 39.90625 43.375 39.90625 52.390625 
C 39.90625 60.25 32 66 23 66 
C 13.90625 66 5.90625 60.34375 5.90625 52.296875 
C 5.90625 48.796875 8.5 48.1875 9.796875 48.1875 
C 11.90625 48.1875 13.703125 49.484375 13.703125 52.09375 
C 13.703125 54.6875 11.90625 56 9.796875 56 
C 9.40625 56 8.90625 56 8.5 55.796875 
C 11.40625 62.484375 19.296875 63.6875 22.796875 63.6875 
C 26.296875 63.6875 32.90625 61.96875 32.90625 52.296875 
C 32.90625 49.484375 32.5 44.546875 29.09375 40.21875 
C 26.09375 36.390625 22.703125 36.1875 19.40625 35.890625 
C 18.90625 35.890625 16.59375 35.6875 16.203125 35.6875 
C 15.5 35.59375 15.09375 35.5 15.09375 34.796875 
C 15.09375 34.09375 15.203125 34 17.203125 34 
z
" id="CMR17-51"/>
       </defs>
       <use transform="scale(0.996264)" xlink:href="#CMR17-48"/>
       <use transform="translate(45.690477 0)scale(0.996264)" xlink:href="#CMMI12-58"/>
       <use transform="translate(72.787654 0)scale(0.996264)" xlink:href="#CMR17-51"/>
      </g>
     </g>
    </g>
    <g id="ytick_5">
     <g id="line2d_41">
      <g>
       <use style="stroke:#000000;stroke-width:0.8;" x="49.5" xlink:href="#mcc9a0484a6" y="98.066553"/>
      </g>
     </g>
     <g id="text_41">
      <!-- $\mathdefault{0.4}$ -->
      <g transform="translate(29.769921 101.525802)scale(0.1 -0.1)">
       <defs>
        <path d="M 33.59375 64.796875 
C 33.59375 66.890625 33.5 67 31.703125 67 
L 2 19.59375 
L 2 17 
L 27.796875 17 
L 27.796875 7.1875 
C 27.796875 3.59375 27.59375 2.59375 20.59375 2.59375 
L 18.703125 2.59375 
L 18.703125 0 
C 21.90625 0.1875 27.296875 0.1875 30.703125 0.1875 
C 34.09375 0.1875 39.5 0.1875 42.703125 0 
L 42.703125 2.59375 
L 40.796875 2.59375 
C 33.796875 2.59375 33.59375 3.59375 33.59375 7.1875 
L 33.59375 17 
L 43.796875 17 
L 43.796875 19.59375 
L 33.59375 19.59375 
z
M 28.09375 58.171875 
L 28.09375 19.59375 
L 4 19.59375 
z
" id="CMR17-52"/>
       </defs>
       <use transform="scale(0.996264)" xlink:href="#CMR17-48"/>
       <use transform="translate(45.690477 0)scale(0.996264)" xlink:href="#CMMI12-58"/>
       <use transform="translate(72.787654 0)scale(0.996264)" xlink:href="#CMR17-52"/>
      </g>
     </g>
    </g>
    <g id="ytick_6">
     <g id="line2d_42">
      <g>
       <use style="stroke:#000000;stroke-width:0.8;" x="49.5" xlink:href="#mcc9a0484a6" y="61.383191"/>
      </g>
     </g>
     <g id="text_42">
      <!-- $\mathdefault{0.5}$ -->
      <g transform="translate(29.769921 64.84244)scale(0.1 -0.1)">
       <defs>
        <path d="M 11.40625 58.59375 
C 12.40625 58.1875 16.5 56.890625 20.703125 56.890625 
C 30 56.890625 35.09375 61.890625 38 64.6875 
C 38 65.484375 38 66 37.40625 66 
C 37.296875 66 37.09375 66 36.296875 65.59375 
C 32.796875 64.09375 28.703125 63 23.703125 63 
C 20.703125 63 16.203125 63.359375 11.296875 65.484375 
C 10.203125 66 10 66 9.90625 66 
C 9.40625 66 9.296875 65.890625 9.296875 63.90625 
L 9.296875 34.859375 
C 9.296875 33.015625 9.296875 32.5 10.296875 32.5 
C 10.796875 32.5 11 32.703125 11.5 33.421875 
C 14.703125 38.046875 19.09375 40 24.09375 40 
C 27.59375 40 35.09375 37.734375 35.09375 20.203125 
C 35.09375 16.984375 35.09375 11.1875 32.09375 6.59375 
C 29.59375 2.484375 25.703125 0.390625 21.40625 0.390625 
C 14.796875 0.390625 8.09375 4.984375 6.296875 12.6875 
C 6.703125 12.59375 7.5 12.390625 7.90625 12.390625 
C 9.203125 12.390625 11.703125 13.09375 11.703125 16.1875 
C 11.703125 18.890625 9.796875 20 7.90625 20 
C 5.59375 20 4.09375 18.59375 4.09375 15.796875 
C 4.09375 7.09375 11 -2 21.59375 -2 
C 31.90625 -2 41.703125 6.890625 41.703125 19.796875 
C 41.703125 32.09375 33.90625 41.59375 24.203125 41.59375 
C 19.09375 41.59375 14.796875 39.6875 11.40625 36 
z
" id="CMR17-53"/>
       </defs>
       <use transform="scale(0.996264)" xlink:href="#CMR17-48"/>
       <use transform="translate(45.690477 0)scale(0.996264)" xlink:href="#CMMI12-58"/>
       <use transform="translate(72.787654 0)scale(0.996264)" xlink:href="#CMR17-53"/>
      </g>
     </g>
    </g>
    <g id="text_43">
     <!-- Normalized -->
     <g transform="translate(23.832743 162.946966)rotate(-90)scale(0.1 -0.1)">
      <defs>
       <path d="M 22.90625 65.296875 
L 21.09375 69 
L 8.796875 69 
L 8.796875 0 
L 16.59375 0 
L 16.59375 61.328125 
L 16.703125 61.421875 
C 17.40625 59.640625 17.796875 58.734375 21.90625 49.890625 
L 43.296875 3.6875 
L 45.09375 0 
L 57.40625 0 
L 57.40625 69 
L 49.59375 69 
L 49.59375 7.65625 
L 49.5 7.5625 
C 48.796875 9.34375 48.40625 10.234375 44.296875 19.09375 
z
" id="CMSS17-78"/>
       <path d="M 14.90625 21.390625 
C 14.90625 30.84375 21.796875 37.171875 30.59375 37.375 
L 30.59375 44 
C 24.203125 43.890625 18.203125 40.6875 14.59375 35.46875 
L 14.59375 43.484375 
L 7.5 43.484375 
L 7.5 0 
L 14.90625 0 
z
" id="CMSS17-114"/>
       <path d="M 14.796875 69 
L 7.40625 69 
L 7.40625 0 
L 14.796875 0 
z
" id="CMSS17-108"/>
       <path d="M 37.5 39.09375 
L 37.5 43 
L 3.90625 43 
L 3.90625 36.984375 
L 16.703125 36.984375 
C 17.90625 36.984375 19.09375 37.09375 20.296875 37.09375 
L 27.296875 37.09375 
L 2.59375 4.09375 
L 2.59375 0 
L 37.796875 0 
L 37.796875 6.1875 
L 24.203125 6.1875 
C 23 6.1875 21.796875 6.09375 20.59375 6.09375 
L 12.90625 6.09375 
z
" id="CMSS17-122"/>
      </defs>
      <use transform="scale(0.996264)" xlink:href="#CMSS17-78"/>
      <use transform="translate(66.061519 0)scale(0.996264)" xlink:href="#CMSS17-111"/>
      <use transform="translate(110.302689 0)scale(0.996264)" xlink:href="#CMSS17-114"/>
      <use transform="translate(142.212461 0)scale(0.996264)" xlink:href="#CMSS17-109"/>
      <use transform="translate(216.441716 0)scale(0.996264)" xlink:href="#CMSS17-97"/>
      <use transform="translate(261.363636 0)scale(0.996264)" xlink:href="#CMSS17-108"/>
      <use transform="translate(283.544359 0)scale(0.996264)" xlink:href="#CMSS17-105"/>
      <use transform="translate(305.725082 0)scale(0.996264)" xlink:href="#CMSS17-122"/>
      <use transform="translate(346.402954 0)scale(0.996264)" xlink:href="#CMSS17-101"/>
      <use transform="translate(388.041776 0)scale(0.996264)" xlink:href="#CMSS17-100"/>
     </g>
    </g>
   </g>
   <g id="LineCollection_1">
    <path clip-path="url(#p9d348eaf1a)" d="M 66.567318 47.632204 
L 66.567318 44.571429 
" style="fill:none;stroke:#000000;stroke-width:1.5;"/>
    <path clip-path="url(#p9d348eaf1a)" d="M 74.360615 217.043565 
L 74.360615 215.052797 
" style="fill:none;stroke:#000000;stroke-width:1.5;"/>
    <path clip-path="url(#p9d348eaf1a)" d="M 82.153911 224.063471 
L 82.153911 213.137895 
" style="fill:none;stroke:#000000;stroke-width:1.5;"/>
    <path clip-path="url(#p9d348eaf1a)" d="M 89.947207 227.903089 
L 89.947207 226.772152 
" style="fill:none;stroke:#000000;stroke-width:1.5;"/>
    <path clip-path="url(#p9d348eaf1a)" d="M 97.740503 230.369061 
L 97.740503 225.69777 
" style="fill:none;stroke:#000000;stroke-width:1.5;"/>
    <path clip-path="url(#p9d348eaf1a)" d="M 105.533799 231.805336 
L 105.533799 227.469293 
" style="fill:none;stroke:#000000;stroke-width:1.5;"/>
    <path clip-path="url(#p9d348eaf1a)" d="M 113.327095 234.297826 
L 113.327095 233.595366 
" style="fill:none;stroke:#000000;stroke-width:1.5;"/>
    <path clip-path="url(#p9d348eaf1a)" d="M 121.120391 236.253975 
L 121.120391 234.819161 
" style="fill:none;stroke:#000000;stroke-width:1.5;"/>
    <path clip-path="url(#p9d348eaf1a)" d="M 128.913687 238.260267 
L 128.913687 236.878468 
" style="fill:none;stroke:#000000;stroke-width:1.5;"/>
    <path clip-path="url(#p9d348eaf1a)" d="M 136.706983 240.456257 
L 136.706983 239.7784 
" style="fill:none;stroke:#000000;stroke-width:1.5;"/>
    <path clip-path="url(#p9d348eaf1a)" d="M 144.500279 240.463772 
L 144.500279 239.820254 
" style="fill:none;stroke:#000000;stroke-width:1.5;"/>
    <path clip-path="url(#p9d348eaf1a)" d="M 152.293575 240.769769 
L 152.293575 239.878245 
" style="fill:none;stroke:#000000;stroke-width:1.5;"/>
    <path clip-path="url(#p9d348eaf1a)" d="M 160.086872 240.686878 
L 160.086872 240.008109 
" style="fill:none;stroke:#000000;stroke-width:1.5;"/>
    <path clip-path="url(#p9d348eaf1a)" d="M 167.880168 242.11001 
L 167.880168 241.221187 
" style="fill:none;stroke:#000000;stroke-width:1.5;"/>
    <path clip-path="url(#p9d348eaf1a)" d="M 175.673464 242.704244 
L 175.673464 242.051722 
" style="fill:none;stroke:#000000;stroke-width:1.5;"/>
    <path clip-path="url(#p9d348eaf1a)" d="M 183.46676 242.651432 
L 183.46676 242.455005 
" style="fill:none;stroke:#000000;stroke-width:1.5;"/>
    <path clip-path="url(#p9d348eaf1a)" d="M 191.260056 243.243593 
L 191.260056 242.83728 
" style="fill:none;stroke:#000000;stroke-width:1.5;"/>
    <path clip-path="url(#p9d348eaf1a)" d="M 199.053352 243.652996 
L 199.053352 243.138201 
" style="fill:none;stroke:#000000;stroke-width:1.5;"/>
    <path clip-path="url(#p9d348eaf1a)" d="M 206.846648 244.201266 
L 206.846648 243.221978 
" style="fill:none;stroke:#000000;stroke-width:1.5;"/>
    <path clip-path="url(#p9d348eaf1a)" d="M 214.639944 244.024702 
L 214.639944 243.839253 
" style="fill:none;stroke:#000000;stroke-width:1.5;"/>
    <path clip-path="url(#p9d348eaf1a)" d="M 222.43324 244.160771 
L 222.43324 243.929489 
" style="fill:none;stroke:#000000;stroke-width:1.5;"/>
    <path clip-path="url(#p9d348eaf1a)" d="M 230.226536 244.181085 
L 230.226536 244.145829 
" style="fill:none;stroke:#000000;stroke-width:1.5;"/>
    <path clip-path="url(#p9d348eaf1a)" d="M 238.019832 244.219676 
L 238.019832 244.118884 
" style="fill:none;stroke:#000000;stroke-width:1.5;"/>
    <path clip-path="url(#p9d348eaf1a)" d="M 245.813128 244.236551 
L 245.813128 244.130406 
" style="fill:none;stroke:#000000;stroke-width:1.5;"/>
    <path clip-path="url(#p9d348eaf1a)" d="M 253.606425 244.418018 
L 253.606425 244.325359 
" style="fill:none;stroke:#000000;stroke-width:1.5;"/>
    <path clip-path="url(#p9d348eaf1a)" d="M 261.399721 244.500564 
L 261.399721 244.450485 
" style="fill:none;stroke:#000000;stroke-width:1.5;"/>
    <path clip-path="url(#p9d348eaf1a)" d="M 269.193017 244.538219 
L 269.193017 244.474243 
" style="fill:none;stroke:#000000;stroke-width:1.5;"/>
    <path clip-path="url(#p9d348eaf1a)" d="M 276.986313 244.555516 
L 276.986313 244.516122 
" style="fill:none;stroke:#000000;stroke-width:1.5;"/>
    <path clip-path="url(#p9d348eaf1a)" d="M 284.779609 244.60706 
L 284.779609 244.556728 
" style="fill:none;stroke:#000000;stroke-width:1.5;"/>
    <path clip-path="url(#p9d348eaf1a)" d="M 292.572905 244.639781 
L 292.572905 244.583287 
" style="fill:none;stroke:#000000;stroke-width:1.5;"/>
    <path clip-path="url(#p9d348eaf1a)" d="M 300.366201 244.629407 
L 300.366201 244.618319 
" style="fill:none;stroke:#000000;stroke-width:1.5;"/>
    <path clip-path="url(#p9d348eaf1a)" d="M 308.159497 244.642326 
L 308.159497 244.624027 
" style="fill:none;stroke:#000000;stroke-width:1.5;"/>
    <path clip-path="url(#p9d348eaf1a)" d="M 315.952793 244.671975 
L 315.952793 244.621944 
" style="fill:none;stroke:#000000;stroke-width:1.5;"/>
    <path clip-path="url(#p9d348eaf1a)" d="M 323.746089 244.725937 
L 323.746089 244.568668 
" style="fill:none;stroke:#000000;stroke-width:1.5;"/>
    <path clip-path="url(#p9d348eaf1a)" d="M 331.539385 244.660159 
L 331.539385 244.64757 
" style="fill:none;stroke:#000000;stroke-width:1.5;"/>
    <path clip-path="url(#p9d348eaf1a)" d="M 339.332682 244.707735 
L 339.332682 244.688925 
" style="fill:none;stroke:#000000;stroke-width:1.5;"/>
   </g>
   <g id="patch_39">
    <path d="M 49.5 244.8 
L 49.5 34.56 
" style="fill:none;stroke:#000000;stroke-linecap:square;stroke-linejoin:miter;stroke-width:0.8;"/>
   </g>
   <g id="patch_40">
    <path d="M 356.4 244.8 
L 356.4 34.56 
" style="fill:none;stroke:#000000;stroke-linecap:square;stroke-linejoin:miter;stroke-width:0.8;"/>
   </g>
   <g id="patch_41">
    <path d="M 49.5 244.8 
L 356.4 244.8 
" style="fill:none;stroke:#000000;stroke-linecap:square;stroke-linejoin:miter;stroke-width:0.8;"/>
   </g>
   <g id="patch_42">
    <path d="M 49.5 34.56 
L 356.4 34.56 
" style="fill:none;stroke:#000000;stroke-linecap:square;stroke-linejoin:miter;stroke-width:0.8;"/>
   </g>
   <g id="text_44">
    <!-- Feature Importance - Gain -->
    <g transform="translate(138.532607 28.56)scale(0.12 -0.12)">
     <defs>
      <path d="M 45.59375 31 
L 45.59375 37.09375 
L 17.203125 37.09375 
L 17.203125 62.390625 
L 29.40625 62.390625 
C 30.59375 62.390625 31.796875 62.296875 33 62.296875 
L 49.5 62.296875 
L 49.5 68.796875 
L 8.796875 68.796875 
L 8.796875 0 
L 17.203125 0 
L 17.203125 31 
z
" id="CMSS17-70"/>
      <path d="M 40.90625 43 
L 33.296875 43 
L 33.296875 15.25 
C 33.296875 7.8125 27.90625 4.796875 22.203125 4.796875 
C 15.59375 4.796875 15 7 15 11.125 
L 15 43 
L 7.40625 43 
L 7.40625 10.625 
C 7.40625 2.796875 10.09375 -1 17 -1 
C 20.40625 -1 28.09375 -0.203125 33.5 4.796875 
L 33.5 -0.203125 
L 40.90625 -0.203125 
z
" id="CMSS17-117"/>
      <path d="M 17.09375 69 
L 8.703125 69 
L 8.703125 0 
L 17.09375 0 
z
" id="CMSS17-73"/>
      <path d="M 15.09375 4.296875 
C 18.40625 1.09375 22.90625 -1 27.703125 -1 
C 37 -1 45 8.640625 45 21.59375 
C 45 33.546875 39 44 30.40625 44 
C 25.40625 44 19.40625 42.1875 14.90625 38.59375 
L 14.90625 43.1875 
L 7.5 43.1875 
L 7.5 -20 
L 15.09375 -20 
z
M 15.09375 32.625 
C 15.90625 33.84375 19.296875 37.6875 24.796875 37.6875 
C 31.796875 37.6875 37.40625 30.40625 37.40625 21.59375 
C 37.40625 11.578125 30.59375 5.09375 23.90625 5.09375 
C 21.90625 5.09375 19.796875 5.59375 17.796875 7.3125 
C 15.09375 9.75 15.09375 11.265625 15.09375 12.6875 
z
" id="CMSS17-112"/>
      <path d="M 38.5 39.6875 
C 38.5 40.390625 33.90625 42.390625 32.703125 42.796875 
C 29.40625 44 25.203125 44 24.09375 44 
C 11.09375 44 3.296875 32.6875 3.296875 21.296875 
C 3.296875 9.296875 12 -1 23.703125 -1 
C 30.40625 -1 35.203125 1.1875 39.09375 3.796875 
L 38.5 10.390625 
C 34.203125 7.09375 29.203125 5.296875 23.796875 5.296875 
C 16 5.296875 10.90625 12.09375 10.90625 21.390625 
C 10.90625 28.59375 14.203125 37.6875 24.203125 37.6875 
C 29.703125 37.6875 32.796875 36.59375 37.40625 33.484375 
z
" id="CMSS17-99"/>
      <path d="M 26 19 
L 26 24.796875 
L 1 24.796875 
L 1 19 
z
" id="CMSS17-45"/>
      <path d="M 56.40625 29.1875 
L 36.5 29.1875 
L 36.5 23 
L 48.796875 23 
L 48.796875 7.390625 
C 44.90625 6.296875 40.90625 5.5 36.90625 5.5 
C 22.90625 5.5 14.59375 20.484375 14.59375 34.6875 
C 14.59375 48.796875 23.296875 63.59375 36.90625 63.59375 
C 44.59375 63.59375 48.90625 61.1875 54.203125 57.1875 
L 55.5 65.1875 
C 48.90625 68.59375 44.796875 70 37.296875 70 
C 17.90625 70 6.203125 52.390625 6.203125 34.390625 
C 6.203125 17.1875 18 -1 36.703125 -1 
C 43.703125 -1 50.203125 0.796875 56.40625 3.890625 
z
" id="CMSS17-71"/>
     </defs>
     <use transform="scale(0.996264)" xlink:href="#CMSS17-70"/>
     <use transform="translate(50.687105 0)scale(0.996264)" xlink:href="#CMSS17-101"/>
     <use transform="translate(92.325927 0)scale(0.996264)" xlink:href="#CMSS17-97"/>
     <use transform="translate(137.247848 0)scale(0.996264)" xlink:href="#CMSS17-116"/>
     <use transform="translate(171.079415 0)scale(0.996264)" xlink:href="#CMSS17-117"/>
     <use transform="translate(219.284358 0)scale(0.996264)" xlink:href="#CMSS17-114"/>
     <use transform="translate(251.19413 0)scale(0.996264)" xlink:href="#CMSS17-101"/>
     <use transform="translate(324.062065 0)scale(0.996264)" xlink:href="#CMSS17-73"/>
     <use transform="translate(349.845991 0)scale(0.996264)" xlink:href="#CMSS17-109"/>
     <use transform="translate(424.075245 0)scale(0.996264)" xlink:href="#CMSS17-112"/>
     <use transform="translate(474.882627 0)scale(0.996264)" xlink:href="#CMSS17-111"/>
     <use transform="translate(519.123797 0)scale(0.996264)" xlink:href="#CMSS17-114"/>
     <use transform="translate(551.033569 0)scale(0.996264)" xlink:href="#CMSS17-116"/>
     <use transform="translate(584.865136 0)scale(0.996264)" xlink:href="#CMSS17-97"/>
     <use transform="translate(629.787056 0)scale(0.996264)" xlink:href="#CMSS17-110"/>
     <use transform="translate(677.992 0)scale(0.996264)" xlink:href="#CMSS17-99"/>
     <use transform="translate(719.630822 0)scale(0.996264)" xlink:href="#CMSS17-101"/>
     <use transform="translate(792.498756 0)scale(0.996264)" xlink:href="#CMSS17-45"/>
     <use transform="translate(854.956982 0)scale(0.996264)" xlink:href="#CMSS17-71"/>
     <use transform="translate(917.415207 0)scale(0.996264)" xlink:href="#CMSS17-97"/>
     <use transform="translate(962.337128 0)scale(0.996264)" xlink:href="#CMSS17-105"/>
     <use transform="translate(984.517851 0)scale(0.996264)" xlink:href="#CMSS17-110"/>
    </g>
   </g>
  </g>
 </g>
 <defs>
  <clipPath id="p9d348eaf1a">
   <rect height="210.24" width="306.9" x="49.5" y="34.56"/>
  </clipPath>
 </defs>
</svg>
